<?xml version="1.0" encoding="utf-8" standalone="no"?>
<!DOCTYPE svg PUBLIC "-//W3C//DTD SVG 1.1//EN"
  "http://www.w3.org/Graphics/SVG/1.1/DTD/svg11.dtd">
<!-- Created with matplotlib (https://matplotlib.org/) -->
<svg height="209.3425pt" version="1.1" viewBox="0 0 319.885 209.3425" width="319.885pt" xmlns="http://www.w3.org/2000/svg" xmlns:xlink="http://www.w3.org/1999/xlink">
 <metadata>
  <rdf:RDF xmlns:cc="http://creativecommons.org/ns#" xmlns:dc="http://purl.org/dc/elements/1.1/" xmlns:rdf="http://www.w3.org/1999/02/22-rdf-syntax-ns#">
   <cc:Work>
    <dc:type rdf:resource="http://purl.org/dc/dcmitype/StillImage"/>
    <dc:date>2021-07-10T11:36:09.431090</dc:date>
    <dc:format>image/svg+xml</dc:format>
    <dc:creator>
     <cc:Agent>
      <dc:title>Matplotlib v3.3.2, https://matplotlib.org/</dc:title>
     </cc:Agent>
    </dc:creator>
   </cc:Work>
  </rdf:RDF>
 </metadata>
 <defs>
  <style type="text/css">*{stroke-linecap:butt;stroke-linejoin:round;}</style>
 </defs>
 <g id="figure_1">
  <g id="patch_1">
   <path d="M 0 209.3425 
L 319.885 209.3425 
L 319.885 0 
L 0 0 
z
" style="fill:none;"/>
  </g>
  <g id="axes_1">
   <g id="patch_2">
    <path d="M 85.7425 163 
L 249.1425 163 
L 249.1425 63.4 
L 85.7425 63.4 
z
" style="fill:#ffffff;"/>
   </g>
   <g id="PathCollection_1">
    <defs>
     <path d="M 0 3 
C 0.795609 3 1.55874 2.683901 2.12132 2.12132 
C 2.683901 1.55874 3 0.795609 3 0 
C 3 -0.795609 2.683901 -1.55874 2.12132 -2.12132 
C 1.55874 -2.683901 0.795609 -3 0 -3 
C -0.795609 -3 -1.55874 -2.683901 -2.12132 -2.12132 
C -2.683901 -1.55874 -3 -0.795609 -3 0 
C -3 0.795609 -2.683901 1.55874 -2.12132 2.12132 
C -1.55874 2.683901 -0.795609 3 0 3 
z
" id="m6e715c6745" style="stroke:#000000;stroke-opacity:0.8;"/>
    </defs>
    <g clip-path="url(#pd779bd5483)">
     <use style="fill-opacity:0.8;stroke:#000000;stroke-opacity:0.8;" x="189.795824" xlink:href="#m6e715c6745" y="99.575069"/>
     <use style="fill-opacity:0.8;stroke:#000000;stroke-opacity:0.8;" x="198.653386" xlink:href="#m6e715c6745" y="94.175904"/>
     <use style="fill-opacity:0.8;stroke:#000000;stroke-opacity:0.8;" x="130.137387" xlink:href="#m6e715c6745" y="135.942974"/>
     <use style="fill-opacity:0.8;stroke:#000000;stroke-opacity:0.8;" x="185.91809" xlink:href="#m6e715c6745" y="101.937821"/>
     <use style="fill-opacity:0.8;stroke:#000000;stroke-opacity:0.8;" x="208.480173" xlink:href="#m6e715c6745" y="88.18465"/>
     <use style="fill-opacity:0.8;stroke:#000000;stroke-opacity:0.8;" x="158.986145" xlink:href="#m6e715c6745" y="118.360368"/>
     <use style="fill-opacity:0.8;stroke:#000000;stroke-opacity:0.8;" x="173.665386" xlink:href="#m6e715c6745" y="109.407189"/>
     <use style="fill-opacity:0.8;stroke:#000000;stroke-opacity:0.8;" x="214.789463" xlink:href="#m6e715c6745" y="84.341228"/>
     <use style="fill-opacity:0.8;stroke:#000000;stroke-opacity:0.8;" x="152.025369" xlink:href="#m6e715c6745" y="122.60337"/>
     <use style="fill-opacity:0.8;stroke:#000000;stroke-opacity:0.8;" x="208.153251" xlink:href="#m6e715c6745" y="88.384091"/>
     <use style="fill-opacity:0.8;stroke:#000000;stroke-opacity:0.8;" x="211.674926" xlink:href="#m6e715c6745" y="86.236482"/>
     <use style="fill-opacity:0.8;stroke:#000000;stroke-opacity:0.8;" x="136.743984" xlink:href="#m6e715c6745" y="131.913435"/>
     <use style="fill-opacity:0.8;stroke:#000000;stroke-opacity:0.8;" x="123.049846" xlink:href="#m6e715c6745" y="140.25593"/>
     <use style="fill-opacity:0.8;stroke:#000000;stroke-opacity:0.8;" x="133.142409" xlink:href="#m6e715c6745" y="134.118869"/>
     <use style="fill-opacity:0.8;stroke:#000000;stroke-opacity:0.8;" x="226.257524" xlink:href="#m6e715c6745" y="77.349353"/>
     <use style="fill-opacity:0.8;stroke:#000000;stroke-opacity:0.8;" x="195.81339" xlink:href="#m6e715c6745" y="95.912077"/>
     <use style="fill-opacity:0.8;stroke:#000000;stroke-opacity:0.8;" x="109.058602" xlink:href="#m6e715c6745" y="148.789976"/>
     <use style="fill-opacity:0.8;stroke:#000000;stroke-opacity:0.8;" x="209.849968" xlink:href="#m6e715c6745" y="87.349012"/>
     <use style="fill-opacity:0.8;stroke:#000000;stroke-opacity:0.8;" x="240.489187" xlink:href="#m6e715c6745" y="68.675394"/>
     <use style="fill-opacity:0.8;stroke:#000000;stroke-opacity:0.8;" x="226.914796" xlink:href="#m6e715c6745" y="76.949464"/>
     <use style="fill-opacity:0.8;stroke:#000000;stroke-opacity:0.8;" x="169.696113" xlink:href="#m6e715c6745" y="111.829702"/>
     <use style="fill-opacity:0.8;stroke:#000000;stroke-opacity:0.8;" x="163.858591" xlink:href="#m6e715c6745" y="115.374695"/>
     <use style="fill-opacity:0.8;stroke:#000000;stroke-opacity:0.8;" x="186.516821" xlink:href="#m6e715c6745" y="101.578307"/>
     <use style="fill-opacity:0.8;stroke:#000000;stroke-opacity:0.8;" x="111.176682" xlink:href="#m6e715c6745" y="147.500858"/>
     <use style="fill-opacity:0.8;stroke:#000000;stroke-opacity:0.8;" x="151.128162" xlink:href="#m6e715c6745" y="123.152028"/>
     <use style="fill-opacity:0.8;stroke:#000000;stroke-opacity:0.8;" x="181.359326" xlink:href="#m6e715c6745" y="104.72193"/>
     <use style="fill-opacity:0.8;stroke:#000000;stroke-opacity:0.8;" x="176.839941" xlink:href="#m6e715c6745" y="107.459887"/>
     <use style="fill-opacity:0.8;stroke:#000000;stroke-opacity:0.8;" x="167.618174" xlink:href="#m6e715c6745" y="113.091128"/>
     <use style="fill-opacity:0.8;stroke:#000000;stroke-opacity:0.8;" x="115.417713" xlink:href="#m6e715c6745" y="144.906898"/>
     <use style="fill-opacity:0.8;stroke:#000000;stroke-opacity:0.8;" x="138.160624" xlink:href="#m6e715c6745" y="131.053183"/>
     <use style="fill-opacity:0.8;stroke:#000000;stroke-opacity:0.8;" x="103.720622" xlink:href="#m6e715c6745" y="152.046202"/>
     <use style="fill-opacity:0.8;stroke:#000000;stroke-opacity:0.8;" x="200.983797" xlink:href="#m6e715c6745" y="92.764918"/>
     <use style="fill-opacity:0.8;stroke:#000000;stroke-opacity:0.8;" x="104.563758" xlink:href="#m6e715c6745" y="151.525571"/>
     <use style="fill-opacity:0.8;stroke:#000000;stroke-opacity:0.8;" x="215.428246" xlink:href="#m6e715c6745" y="83.951388"/>
     <use style="fill-opacity:0.8;stroke:#000000;stroke-opacity:0.8;" x="154.583648" xlink:href="#m6e715c6745" y="121.028604"/>
     <use style="fill-opacity:0.8;stroke:#000000;stroke-opacity:0.8;" x="200.435337" xlink:href="#m6e715c6745" y="93.098026"/>
     <use style="fill-opacity:0.8;stroke:#000000;stroke-opacity:0.8;" x="176.628647" xlink:href="#m6e715c6745" y="107.597019"/>
     <use style="fill-opacity:0.8;stroke:#000000;stroke-opacity:0.8;" x="184.139729" xlink:href="#m6e715c6745" y="103.028153"/>
     <use style="fill-opacity:0.8;stroke:#000000;stroke-opacity:0.8;" x="118.821343" xlink:href="#m6e715c6745" y="142.83091"/>
     <use style="fill-opacity:0.8;stroke:#000000;stroke-opacity:0.8;" x="234.130097" xlink:href="#m6e715c6745" y="72.549525"/>
     <use style="fill-opacity:0.8;stroke:#000000;stroke-opacity:0.8;" x="144.91133" xlink:href="#m6e715c6745" y="126.931032"/>
     <use style="fill-opacity:0.8;stroke:#000000;stroke-opacity:0.8;" x="116.392182" xlink:href="#m6e715c6745" y="144.315637"/>
     <use style="fill-opacity:0.8;stroke:#000000;stroke-opacity:0.8;" x="105.474731" xlink:href="#m6e715c6745" y="150.97449"/>
     <use style="fill-opacity:0.8;stroke:#000000;stroke-opacity:0.8;" x="164.723425" xlink:href="#m6e715c6745" y="114.859155"/>
     <use style="fill-opacity:0.8;stroke:#000000;stroke-opacity:0.8;" x="161.577632" xlink:href="#m6e715c6745" y="116.76971"/>
     <use style="fill-opacity:0.8;stroke:#000000;stroke-opacity:0.8;" x="105.802108" xlink:href="#m6e715c6745" y="150.767226"/>
     <use style="fill-opacity:0.8;stroke:#000000;stroke-opacity:0.8;" x="209.345722" xlink:href="#m6e715c6745" y="87.658992"/>
     <use style="fill-opacity:0.8;stroke:#000000;stroke-opacity:0.8;" x="155.733143" xlink:href="#m6e715c6745" y="120.324792"/>
     <use style="fill-opacity:0.8;stroke:#000000;stroke-opacity:0.8;" x="123.122756" xlink:href="#m6e715c6745" y="140.213989"/>
     <use style="fill-opacity:0.8;stroke:#000000;stroke-opacity:0.8;" x="94.010519" xlink:href="#m6e715c6745" y="157.962737"/>
     <use style="fill-opacity:0.8;stroke:#000000;stroke-opacity:0.8;" x="172.035069" xlink:href="#m6e715c6745" y="110.394512"/>
     <use style="fill-opacity:0.8;stroke:#000000;stroke-opacity:0.8;" x="126.752425" xlink:href="#m6e715c6745" y="138.005916"/>
     <use style="fill-opacity:0.8;stroke:#000000;stroke-opacity:0.8;" x="168.702663" xlink:href="#m6e715c6745" y="112.433171"/>
     <use style="fill-opacity:0.8;stroke:#000000;stroke-opacity:0.8;" x="167.299309" xlink:href="#m6e715c6745" y="113.290778"/>
     <use style="fill-opacity:0.8;stroke:#000000;stroke-opacity:0.8;" x="210.650935" xlink:href="#m6e715c6745" y="86.859139"/>
     <use style="fill-opacity:0.8;stroke:#000000;stroke-opacity:0.8;" x="215.187983" xlink:href="#m6e715c6745" y="84.101134"/>
     <use style="fill-opacity:0.8;stroke:#000000;stroke-opacity:0.8;" x="163.468486" xlink:href="#m6e715c6745" y="115.615745"/>
     <use style="fill-opacity:0.8;stroke:#000000;stroke-opacity:0.8;" x="144.13158" xlink:href="#m6e715c6745" y="127.402293"/>
    </g>
   </g>
   <g id="PolyCollection_1">
    <path clip-path="url(#pd779bd5483)" d="M 94.010519 157.957356 
L 94.010519 157.962396 
L 95.490102 157.060495 
L 96.969684 156.158588 
L 98.449267 155.256698 
L 99.928849 154.35481 
L 101.408432 153.452921 
L 102.888014 152.551032 
L 104.367597 151.649137 
L 105.847179 150.747246 
L 107.326762 149.845349 
L 108.806344 148.94345 
L 110.285927 148.041556 
L 111.765509 147.139661 
L 113.245092 146.237767 
L 114.724674 145.335872 
L 116.204257 144.433978 
L 117.683839 143.532083 
L 119.163422 142.630188 
L 120.643004 141.728294 
L 122.122587 140.826399 
L 123.602169 139.924504 
L 125.081752 139.022609 
L 126.561334 138.120715 
L 128.040917 137.21882 
L 129.520499 136.316925 
L 131.000082 135.415034 
L 132.479664 134.51314 
L 133.959247 133.611247 
L 135.438829 132.709366 
L 136.918412 131.807485 
L 138.397995 130.905604 
L 139.877577 130.003706 
L 141.35716 129.101821 
L 142.836742 128.199935 
L 144.316325 127.298051 
L 145.795907 126.396165 
L 147.27549 125.494269 
L 148.755072 124.592393 
L 150.234655 123.690511 
L 151.714237 122.788626 
L 153.19382 121.886752 
L 154.673402 120.984868 
L 156.152985 120.08298 
L 157.632567 119.181091 
L 159.11215 118.27921 
L 160.591732 117.377335 
L 162.071315 116.475449 
L 163.550897 115.573579 
L 165.03048 114.671686 
L 166.510062 113.769831 
L 167.989645 112.867965 
L 169.469227 111.966105 
L 170.94881 111.064234 
L 172.428392 110.162371 
L 173.907975 109.260499 
L 175.387557 108.358642 
L 176.86714 107.456761 
L 178.346722 106.554893 
L 179.826305 105.653032 
L 181.305887 104.75117 
L 182.78547 103.849318 
L 184.265052 102.947446 
L 185.744635 102.045585 
L 187.224217 101.143723 
L 188.7038 100.241861 
L 190.183382 99.340008 
L 191.662965 98.438167 
L 193.142547 97.536304 
L 194.62213 96.634439 
L 196.101712 95.732578 
L 197.581295 94.830719 
L 199.060877 93.928859 
L 200.54046 93.027007 
L 202.020042 92.125152 
L 203.499625 91.223312 
L 204.979207 90.321463 
L 206.45879 89.419604 
L 207.938372 88.517755 
L 209.417955 87.615914 
L 210.897537 86.714074 
L 212.37712 85.812238 
L 213.856702 84.910399 
L 215.336285 84.00855 
L 216.815867 83.106703 
L 218.29545 82.204867 
L 219.775032 81.30302 
L 221.254615 80.401176 
L 222.734197 79.499346 
L 224.21378 78.597497 
L 225.693362 77.695661 
L 227.172945 76.793826 
L 228.652527 75.891991 
L 230.13211 74.990151 
L 231.611692 74.088301 
L 233.091275 73.186485 
L 234.570857 72.28465 
L 236.05044 71.382814 
L 237.530022 70.480976 
L 239.009605 69.579141 
L 240.489187 68.677309 
L 240.489187 68.673257 
L 240.489187 68.673257 
L 239.009605 69.575154 
L 237.530022 70.477051 
L 236.05044 71.378948 
L 234.570857 72.280846 
L 233.091275 73.182743 
L 231.611692 74.08464 
L 230.13211 74.986531 
L 228.652527 75.888414 
L 227.172945 76.790293 
L 225.693362 77.692188 
L 224.21378 78.594086 
L 222.734197 79.495985 
L 221.254615 80.39788 
L 219.775032 81.299769 
L 218.29545 82.201654 
L 216.815867 83.103533 
L 215.336285 84.005385 
L 213.856702 84.907235 
L 212.37712 85.809109 
L 210.897537 86.710998 
L 209.417955 87.612887 
L 207.938372 88.514776 
L 206.45879 89.416665 
L 204.979207 90.318554 
L 203.499625 91.220444 
L 202.020042 92.122328 
L 200.54046 93.024192 
L 199.060877 93.926059 
L 197.581295 94.827958 
L 196.101712 95.72983 
L 194.62213 96.631713 
L 193.142547 97.533599 
L 191.662965 98.435481 
L 190.183382 99.337353 
L 188.7038 100.239232 
L 187.224217 101.141107 
L 185.744635 102.042982 
L 184.265052 102.944857 
L 182.78547 103.846733 
L 181.305887 104.748587 
L 179.826305 105.650473 
L 178.346722 106.552349 
L 176.86714 107.454213 
L 175.387557 108.356076 
L 173.907975 109.257934 
L 172.428392 110.159779 
L 170.94881 111.061629 
L 169.469227 111.963477 
L 167.989645 112.865325 
L 166.510062 113.767174 
L 165.03048 114.669026 
L 163.550897 115.570888 
L 162.071315 116.47273 
L 160.591732 117.374618 
L 159.11215 118.276442 
L 157.632567 119.178293 
L 156.152985 120.080151 
L 154.673402 120.982012 
L 153.19382 121.883884 
L 151.714237 122.785731 
L 150.234655 123.68759 
L 148.755072 124.589451 
L 147.27549 125.491326 
L 145.795907 126.393165 
L 144.316325 127.295009 
L 142.836742 128.196857 
L 141.35716 129.098679 
L 139.877577 130.000497 
L 138.397995 130.902315 
L 136.918412 131.804133 
L 135.438829 132.705981 
L 133.959247 133.607829 
L 132.479664 134.509677 
L 131.000082 135.411519 
L 129.520499 136.313367 
L 128.040917 137.215203 
L 126.561334 138.117037 
L 125.081752 139.018871 
L 123.602169 139.920706 
L 122.122587 140.82254 
L 120.643004 141.724375 
L 119.163422 142.62621 
L 117.683839 143.528045 
L 116.204257 144.42989 
L 114.724674 145.331735 
L 113.245092 146.23358 
L 111.765509 147.135405 
L 110.285927 148.03722 
L 108.806344 148.939051 
L 107.326762 149.840889 
L 105.847179 150.742726 
L 104.367597 151.644554 
L 102.888014 152.546386 
L 101.408432 153.448209 
L 99.928849 154.350031 
L 98.449267 155.251868 
L 96.969684 156.153705 
L 95.490102 157.055539 
L 94.010519 157.957356 
z
" style="fill-opacity:0.15;"/>
   </g>
   <g id="matplotlib.axis_1">
    <g id="xtick_1">
     <g id="line2d_1">
      <defs>
       <path d="M 0 0 
L 0 3.5 
" id="mf469ba3914" style="stroke:#000000;stroke-width:0.8;"/>
      </defs>
      <g>
       <use style="stroke:#000000;stroke-width:0.8;" x="85.7425" xlink:href="#mf469ba3914" y="163"/>
      </g>
     </g>
     <g id="text_1">
      <!-- 0.0 -->
      <g transform="translate(77.790938 177.598437)scale(0.1 -0.1)">
       <defs>
        <path d="M 31.78125 66.40625 
Q 24.171875 66.40625 20.328125 58.90625 
Q 16.5 51.421875 16.5 36.375 
Q 16.5 21.390625 20.328125 13.890625 
Q 24.171875 6.390625 31.78125 6.390625 
Q 39.453125 6.390625 43.28125 13.890625 
Q 47.125 21.390625 47.125 36.375 
Q 47.125 51.421875 43.28125 58.90625 
Q 39.453125 66.40625 31.78125 66.40625 
z
M 31.78125 74.21875 
Q 44.046875 74.21875 50.515625 64.515625 
Q 56.984375 54.828125 56.984375 36.375 
Q 56.984375 17.96875 50.515625 8.265625 
Q 44.046875 -1.421875 31.78125 -1.421875 
Q 19.53125 -1.421875 13.0625 8.265625 
Q 6.59375 17.96875 6.59375 36.375 
Q 6.59375 54.828125 13.0625 64.515625 
Q 19.53125 74.21875 31.78125 74.21875 
z
" id="DejaVuSans-48"/>
        <path d="M 10.6875 12.40625 
L 21 12.40625 
L 21 0 
L 10.6875 0 
z
" id="DejaVuSans-46"/>
       </defs>
       <use xlink:href="#DejaVuSans-48"/>
       <use x="63.623047" xlink:href="#DejaVuSans-46"/>
       <use x="95.410156" xlink:href="#DejaVuSans-48"/>
      </g>
     </g>
    </g>
    <g id="xtick_2">
     <g id="line2d_2">
      <g>
       <use style="stroke:#000000;stroke-width:0.8;" x="118.4225" xlink:href="#mf469ba3914" y="163"/>
      </g>
     </g>
     <g id="text_2">
      <!-- 0.2 -->
      <g transform="translate(110.470938 177.598437)scale(0.1 -0.1)">
       <defs>
        <path d="M 19.1875 8.296875 
L 53.609375 8.296875 
L 53.609375 0 
L 7.328125 0 
L 7.328125 8.296875 
Q 12.9375 14.109375 22.625 23.890625 
Q 32.328125 33.6875 34.8125 36.53125 
Q 39.546875 41.84375 41.421875 45.53125 
Q 43.3125 49.21875 43.3125 52.78125 
Q 43.3125 58.59375 39.234375 62.25 
Q 35.15625 65.921875 28.609375 65.921875 
Q 23.96875 65.921875 18.8125 64.3125 
Q 13.671875 62.703125 7.8125 59.421875 
L 7.8125 69.390625 
Q 13.765625 71.78125 18.9375 73 
Q 24.125 74.21875 28.421875 74.21875 
Q 39.75 74.21875 46.484375 68.546875 
Q 53.21875 62.890625 53.21875 53.421875 
Q 53.21875 48.921875 51.53125 44.890625 
Q 49.859375 40.875 45.40625 35.40625 
Q 44.1875 33.984375 37.640625 27.21875 
Q 31.109375 20.453125 19.1875 8.296875 
z
" id="DejaVuSans-50"/>
       </defs>
       <use xlink:href="#DejaVuSans-48"/>
       <use x="63.623047" xlink:href="#DejaVuSans-46"/>
       <use x="95.410156" xlink:href="#DejaVuSans-50"/>
      </g>
     </g>
    </g>
    <g id="xtick_3">
     <g id="line2d_3">
      <g>
       <use style="stroke:#000000;stroke-width:0.8;" x="151.1025" xlink:href="#mf469ba3914" y="163"/>
      </g>
     </g>
     <g id="text_3">
      <!-- 0.4 -->
      <g transform="translate(143.150938 177.598437)scale(0.1 -0.1)">
       <defs>
        <path d="M 37.796875 64.3125 
L 12.890625 25.390625 
L 37.796875 25.390625 
z
M 35.203125 72.90625 
L 47.609375 72.90625 
L 47.609375 25.390625 
L 58.015625 25.390625 
L 58.015625 17.1875 
L 47.609375 17.1875 
L 47.609375 0 
L 37.796875 0 
L 37.796875 17.1875 
L 4.890625 17.1875 
L 4.890625 26.703125 
z
" id="DejaVuSans-52"/>
       </defs>
       <use xlink:href="#DejaVuSans-48"/>
       <use x="63.623047" xlink:href="#DejaVuSans-46"/>
       <use x="95.410156" xlink:href="#DejaVuSans-52"/>
      </g>
     </g>
    </g>
    <g id="xtick_4">
     <g id="line2d_4">
      <g>
       <use style="stroke:#000000;stroke-width:0.8;" x="183.7825" xlink:href="#mf469ba3914" y="163"/>
      </g>
     </g>
     <g id="text_4">
      <!-- 0.6 -->
      <g transform="translate(175.830937 177.598437)scale(0.1 -0.1)">
       <defs>
        <path d="M 33.015625 40.375 
Q 26.375 40.375 22.484375 35.828125 
Q 18.609375 31.296875 18.609375 23.390625 
Q 18.609375 15.53125 22.484375 10.953125 
Q 26.375 6.390625 33.015625 6.390625 
Q 39.65625 6.390625 43.53125 10.953125 
Q 47.40625 15.53125 47.40625 23.390625 
Q 47.40625 31.296875 43.53125 35.828125 
Q 39.65625 40.375 33.015625 40.375 
z
M 52.59375 71.296875 
L 52.59375 62.3125 
Q 48.875 64.0625 45.09375 64.984375 
Q 41.3125 65.921875 37.59375 65.921875 
Q 27.828125 65.921875 22.671875 59.328125 
Q 17.53125 52.734375 16.796875 39.40625 
Q 19.671875 43.65625 24.015625 45.921875 
Q 28.375 48.1875 33.59375 48.1875 
Q 44.578125 48.1875 50.953125 41.515625 
Q 57.328125 34.859375 57.328125 23.390625 
Q 57.328125 12.15625 50.6875 5.359375 
Q 44.046875 -1.421875 33.015625 -1.421875 
Q 20.359375 -1.421875 13.671875 8.265625 
Q 6.984375 17.96875 6.984375 36.375 
Q 6.984375 53.65625 15.1875 63.9375 
Q 23.390625 74.21875 37.203125 74.21875 
Q 40.921875 74.21875 44.703125 73.484375 
Q 48.484375 72.75 52.59375 71.296875 
z
" id="DejaVuSans-54"/>
       </defs>
       <use xlink:href="#DejaVuSans-48"/>
       <use x="63.623047" xlink:href="#DejaVuSans-46"/>
       <use x="95.410156" xlink:href="#DejaVuSans-54"/>
      </g>
     </g>
    </g>
    <g id="xtick_5">
     <g id="line2d_5">
      <g>
       <use style="stroke:#000000;stroke-width:0.8;" x="216.4625" xlink:href="#mf469ba3914" y="163"/>
      </g>
     </g>
     <g id="text_5">
      <!-- 0.8 -->
      <g transform="translate(208.510938 177.598437)scale(0.1 -0.1)">
       <defs>
        <path d="M 31.78125 34.625 
Q 24.75 34.625 20.71875 30.859375 
Q 16.703125 27.09375 16.703125 20.515625 
Q 16.703125 13.921875 20.71875 10.15625 
Q 24.75 6.390625 31.78125 6.390625 
Q 38.8125 6.390625 42.859375 10.171875 
Q 46.921875 13.96875 46.921875 20.515625 
Q 46.921875 27.09375 42.890625 30.859375 
Q 38.875 34.625 31.78125 34.625 
z
M 21.921875 38.8125 
Q 15.578125 40.375 12.03125 44.71875 
Q 8.5 49.078125 8.5 55.328125 
Q 8.5 64.0625 14.71875 69.140625 
Q 20.953125 74.21875 31.78125 74.21875 
Q 42.671875 74.21875 48.875 69.140625 
Q 55.078125 64.0625 55.078125 55.328125 
Q 55.078125 49.078125 51.53125 44.71875 
Q 48 40.375 41.703125 38.8125 
Q 48.828125 37.15625 52.796875 32.3125 
Q 56.78125 27.484375 56.78125 20.515625 
Q 56.78125 9.90625 50.3125 4.234375 
Q 43.84375 -1.421875 31.78125 -1.421875 
Q 19.734375 -1.421875 13.25 4.234375 
Q 6.78125 9.90625 6.78125 20.515625 
Q 6.78125 27.484375 10.78125 32.3125 
Q 14.796875 37.15625 21.921875 38.8125 
z
M 18.3125 54.390625 
Q 18.3125 48.734375 21.84375 45.5625 
Q 25.390625 42.390625 31.78125 42.390625 
Q 38.140625 42.390625 41.71875 45.5625 
Q 45.3125 48.734375 45.3125 54.390625 
Q 45.3125 60.0625 41.71875 63.234375 
Q 38.140625 66.40625 31.78125 66.40625 
Q 25.390625 66.40625 21.84375 63.234375 
Q 18.3125 60.0625 18.3125 54.390625 
z
" id="DejaVuSans-56"/>
       </defs>
       <use xlink:href="#DejaVuSans-48"/>
       <use x="63.623047" xlink:href="#DejaVuSans-46"/>
       <use x="95.410156" xlink:href="#DejaVuSans-56"/>
      </g>
     </g>
    </g>
    <g id="xtick_6">
     <g id="line2d_6">
      <g>
       <use style="stroke:#000000;stroke-width:0.8;" x="249.1425" xlink:href="#mf469ba3914" y="163"/>
      </g>
     </g>
     <g id="text_6">
      <!-- 1.0 -->
      <g transform="translate(241.190937 177.598437)scale(0.1 -0.1)">
       <defs>
        <path d="M 12.40625 8.296875 
L 28.515625 8.296875 
L 28.515625 63.921875 
L 10.984375 60.40625 
L 10.984375 69.390625 
L 28.421875 72.90625 
L 38.28125 72.90625 
L 38.28125 8.296875 
L 54.390625 8.296875 
L 54.390625 0 
L 12.40625 0 
z
" id="DejaVuSans-49"/>
       </defs>
       <use xlink:href="#DejaVuSans-49"/>
       <use x="63.623047" xlink:href="#DejaVuSans-46"/>
       <use x="95.410156" xlink:href="#DejaVuSans-48"/>
      </g>
     </g>
    </g>
   </g>
   <g id="matplotlib.axis_2">
    <g id="ytick_1">
     <g id="line2d_7">
      <defs>
       <path d="M 0 0 
L -3.5 0 
" id="m32dd08699b" style="stroke:#000000;stroke-width:0.8;"/>
      </defs>
      <g>
       <use style="stroke:#000000;stroke-width:0.8;" x="85.7425" xlink:href="#m32dd08699b" y="163"/>
      </g>
     </g>
     <g id="text_7">
      <!-- 0.0 -->
      <g transform="translate(62.839375 166.799219)scale(0.1 -0.1)">
       <use xlink:href="#DejaVuSans-48"/>
       <use x="63.623047" xlink:href="#DejaVuSans-46"/>
       <use x="95.410156" xlink:href="#DejaVuSans-48"/>
      </g>
     </g>
    </g>
    <g id="ytick_2">
     <g id="line2d_8">
      <g>
       <use style="stroke:#000000;stroke-width:0.8;" x="85.7425" xlink:href="#m32dd08699b" y="143.08"/>
      </g>
     </g>
     <g id="text_8">
      <!-- 0.2 -->
      <g transform="translate(62.839375 146.879219)scale(0.1 -0.1)">
       <use xlink:href="#DejaVuSans-48"/>
       <use x="63.623047" xlink:href="#DejaVuSans-46"/>
       <use x="95.410156" xlink:href="#DejaVuSans-50"/>
      </g>
     </g>
    </g>
    <g id="ytick_3">
     <g id="line2d_9">
      <g>
       <use style="stroke:#000000;stroke-width:0.8;" x="85.7425" xlink:href="#m32dd08699b" y="123.16"/>
      </g>
     </g>
     <g id="text_9">
      <!-- 0.4 -->
      <g transform="translate(62.839375 126.959219)scale(0.1 -0.1)">
       <use xlink:href="#DejaVuSans-48"/>
       <use x="63.623047" xlink:href="#DejaVuSans-46"/>
       <use x="95.410156" xlink:href="#DejaVuSans-52"/>
      </g>
     </g>
    </g>
    <g id="ytick_4">
     <g id="line2d_10">
      <g>
       <use style="stroke:#000000;stroke-width:0.8;" x="85.7425" xlink:href="#m32dd08699b" y="103.24"/>
      </g>
     </g>
     <g id="text_10">
      <!-- 0.6 -->
      <g transform="translate(62.839375 107.039219)scale(0.1 -0.1)">
       <use xlink:href="#DejaVuSans-48"/>
       <use x="63.623047" xlink:href="#DejaVuSans-46"/>
       <use x="95.410156" xlink:href="#DejaVuSans-54"/>
      </g>
     </g>
    </g>
    <g id="ytick_5">
     <g id="line2d_11">
      <g>
       <use style="stroke:#000000;stroke-width:0.8;" x="85.7425" xlink:href="#m32dd08699b" y="83.32"/>
      </g>
     </g>
     <g id="text_11">
      <!-- 0.8 -->
      <g transform="translate(62.839375 87.119219)scale(0.1 -0.1)">
       <use xlink:href="#DejaVuSans-48"/>
       <use x="63.623047" xlink:href="#DejaVuSans-46"/>
       <use x="95.410156" xlink:href="#DejaVuSans-56"/>
      </g>
     </g>
    </g>
    <g id="ytick_6">
     <g id="line2d_12">
      <g>
       <use style="stroke:#000000;stroke-width:0.8;" x="85.7425" xlink:href="#m32dd08699b" y="63.4"/>
      </g>
     </g>
     <g id="text_12">
      <!-- 1.0 -->
      <g transform="translate(62.839375 67.199219)scale(0.1 -0.1)">
       <use xlink:href="#DejaVuSans-49"/>
       <use x="63.623047" xlink:href="#DejaVuSans-46"/>
       <use x="95.410156" xlink:href="#DejaVuSans-48"/>
      </g>
     </g>
    </g>
   </g>
   <g id="line2d_13">
    <path clip-path="url(#pd779bd5483)" d="M 94.010519 157.959825 
L 95.490102 157.057961 
L 96.969684 156.156098 
L 98.449267 155.254234 
L 99.928849 154.35237 
L 101.408432 153.450507 
L 102.888014 152.548643 
L 104.367597 151.646779 
L 105.847179 150.744916 
L 107.326762 149.843052 
L 108.806344 148.941188 
L 110.285927 148.039325 
L 111.765509 147.137461 
L 113.245092 146.235597 
L 114.724674 145.333734 
L 116.204257 144.43187 
L 117.683839 143.530007 
L 119.163422 142.628143 
L 120.643004 141.726279 
L 122.122587 140.824416 
L 123.602169 139.922552 
L 125.081752 139.020688 
L 126.561334 138.118825 
L 128.040917 137.216961 
L 129.520499 136.315097 
L 131.000082 135.413234 
L 132.479664 134.51137 
L 133.959247 133.609507 
L 135.438829 132.707643 
L 136.918412 131.805779 
L 138.397995 130.903916 
L 139.877577 130.002052 
L 141.35716 129.100188 
L 142.836742 128.198325 
L 144.316325 127.296461 
L 145.795907 126.394597 
L 147.27549 125.492734 
L 148.755072 124.59087 
L 150.234655 123.689006 
L 151.714237 122.787143 
L 153.19382 121.885279 
L 154.673402 120.983416 
L 156.152985 120.081552 
L 157.632567 119.179688 
L 159.11215 118.277825 
L 160.591732 117.375961 
L 162.071315 116.474097 
L 163.550897 115.572234 
L 165.03048 114.67037 
L 166.510062 113.768506 
L 167.989645 112.866643 
L 169.469227 111.964779 
L 170.94881 111.062916 
L 172.428392 110.161052 
L 173.907975 109.259188 
L 175.387557 108.357325 
L 176.86714 107.455461 
L 178.346722 106.553597 
L 179.826305 105.651734 
L 181.305887 104.74987 
L 182.78547 103.848006 
L 184.265052 102.946143 
L 185.744635 102.044279 
L 187.224217 101.142415 
L 188.7038 100.240552 
L 190.183382 99.338688 
L 191.662965 98.436825 
L 193.142547 97.534961 
L 194.62213 96.633097 
L 196.101712 95.731234 
L 197.581295 94.82937 
L 199.060877 93.927506 
L 200.54046 93.025643 
L 202.020042 92.123779 
L 203.499625 91.221915 
L 204.979207 90.320052 
L 206.45879 89.418188 
L 207.938372 88.516325 
L 209.417955 87.614461 
L 210.897537 86.712597 
L 212.37712 85.810734 
L 213.856702 84.90887 
L 215.336285 84.007006 
L 216.815867 83.105143 
L 218.29545 82.203279 
L 219.775032 81.301415 
L 221.254615 80.399552 
L 222.734197 79.497688 
L 224.21378 78.595824 
L 225.693362 77.693961 
L 227.172945 76.792097 
L 228.652527 75.890234 
L 230.13211 74.98837 
L 231.611692 74.086506 
L 233.091275 73.184643 
L 234.570857 72.282779 
L 236.05044 71.380915 
L 237.530022 70.479052 
L 239.009605 69.577188 
L 240.489187 68.675324 
" style="fill:none;stroke:#000000;stroke-linecap:square;stroke-width:2.25;"/>
   </g>
   <g id="patch_3">
    <path d="M 85.7425 163 
L 85.7425 63.4 
" style="fill:none;stroke:#000000;stroke-linecap:square;stroke-linejoin:miter;stroke-width:0.8;"/>
   </g>
   <g id="patch_4">
    <path d="M 249.1425 163 
L 249.1425 63.4 
" style="fill:none;stroke:#000000;stroke-linecap:square;stroke-linejoin:miter;stroke-width:0.8;"/>
   </g>
   <g id="patch_5">
    <path d="M 85.7425 163 
L 249.1425 163 
" style="fill:none;stroke:#000000;stroke-linecap:square;stroke-linejoin:miter;stroke-width:0.8;"/>
   </g>
   <g id="patch_6">
    <path d="M 85.7425 63.4 
L 249.1425 63.4 
" style="fill:none;stroke:#000000;stroke-linecap:square;stroke-linejoin:miter;stroke-width:0.8;"/>
   </g>
   <g id="text_13">
    <!-- 1st-Order Occasion Setting -->
    <g transform="translate(86.203437 57.4)scale(0.12 -0.12)">
     <defs>
      <path d="M 44.28125 53.078125 
L 44.28125 44.578125 
Q 40.484375 46.53125 36.375 47.5 
Q 32.28125 48.484375 27.875 48.484375 
Q 21.1875 48.484375 17.84375 46.4375 
Q 14.5 44.390625 14.5 40.28125 
Q 14.5 37.15625 16.890625 35.375 
Q 19.28125 33.59375 26.515625 31.984375 
L 29.59375 31.296875 
Q 39.15625 29.25 43.1875 25.515625 
Q 47.21875 21.78125 47.21875 15.09375 
Q 47.21875 7.46875 41.1875 3.015625 
Q 35.15625 -1.421875 24.609375 -1.421875 
Q 20.21875 -1.421875 15.453125 -0.5625 
Q 10.6875 0.296875 5.421875 2 
L 5.421875 11.28125 
Q 10.40625 8.6875 15.234375 7.390625 
Q 20.0625 6.109375 24.8125 6.109375 
Q 31.15625 6.109375 34.5625 8.28125 
Q 37.984375 10.453125 37.984375 14.40625 
Q 37.984375 18.0625 35.515625 20.015625 
Q 33.0625 21.96875 24.703125 23.78125 
L 21.578125 24.515625 
Q 13.234375 26.265625 9.515625 29.90625 
Q 5.8125 33.546875 5.8125 39.890625 
Q 5.8125 47.609375 11.28125 51.796875 
Q 16.75 56 26.8125 56 
Q 31.78125 56 36.171875 55.265625 
Q 40.578125 54.546875 44.28125 53.078125 
z
" id="DejaVuSans-115"/>
      <path d="M 18.3125 70.21875 
L 18.3125 54.6875 
L 36.8125 54.6875 
L 36.8125 47.703125 
L 18.3125 47.703125 
L 18.3125 18.015625 
Q 18.3125 11.328125 20.140625 9.421875 
Q 21.96875 7.515625 27.59375 7.515625 
L 36.8125 7.515625 
L 36.8125 0 
L 27.59375 0 
Q 17.1875 0 13.234375 3.875 
Q 9.28125 7.765625 9.28125 18.015625 
L 9.28125 47.703125 
L 2.6875 47.703125 
L 2.6875 54.6875 
L 9.28125 54.6875 
L 9.28125 70.21875 
z
" id="DejaVuSans-116"/>
      <path d="M 4.890625 31.390625 
L 31.203125 31.390625 
L 31.203125 23.390625 
L 4.890625 23.390625 
z
" id="DejaVuSans-45"/>
      <path d="M 39.40625 66.21875 
Q 28.65625 66.21875 22.328125 58.203125 
Q 16.015625 50.203125 16.015625 36.375 
Q 16.015625 22.609375 22.328125 14.59375 
Q 28.65625 6.59375 39.40625 6.59375 
Q 50.140625 6.59375 56.421875 14.59375 
Q 62.703125 22.609375 62.703125 36.375 
Q 62.703125 50.203125 56.421875 58.203125 
Q 50.140625 66.21875 39.40625 66.21875 
z
M 39.40625 74.21875 
Q 54.734375 74.21875 63.90625 63.9375 
Q 73.09375 53.65625 73.09375 36.375 
Q 73.09375 19.140625 63.90625 8.859375 
Q 54.734375 -1.421875 39.40625 -1.421875 
Q 24.03125 -1.421875 14.8125 8.828125 
Q 5.609375 19.09375 5.609375 36.375 
Q 5.609375 53.65625 14.8125 63.9375 
Q 24.03125 74.21875 39.40625 74.21875 
z
" id="DejaVuSans-79"/>
      <path d="M 41.109375 46.296875 
Q 39.59375 47.171875 37.8125 47.578125 
Q 36.03125 48 33.890625 48 
Q 26.265625 48 22.1875 43.046875 
Q 18.109375 38.09375 18.109375 28.8125 
L 18.109375 0 
L 9.078125 0 
L 9.078125 54.6875 
L 18.109375 54.6875 
L 18.109375 46.1875 
Q 20.953125 51.171875 25.484375 53.578125 
Q 30.03125 56 36.53125 56 
Q 37.453125 56 38.578125 55.875 
Q 39.703125 55.765625 41.0625 55.515625 
z
" id="DejaVuSans-114"/>
      <path d="M 45.40625 46.390625 
L 45.40625 75.984375 
L 54.390625 75.984375 
L 54.390625 0 
L 45.40625 0 
L 45.40625 8.203125 
Q 42.578125 3.328125 38.25 0.953125 
Q 33.9375 -1.421875 27.875 -1.421875 
Q 17.96875 -1.421875 11.734375 6.484375 
Q 5.515625 14.40625 5.515625 27.296875 
Q 5.515625 40.1875 11.734375 48.09375 
Q 17.96875 56 27.875 56 
Q 33.9375 56 38.25 53.625 
Q 42.578125 51.265625 45.40625 46.390625 
z
M 14.796875 27.296875 
Q 14.796875 17.390625 18.875 11.75 
Q 22.953125 6.109375 30.078125 6.109375 
Q 37.203125 6.109375 41.296875 11.75 
Q 45.40625 17.390625 45.40625 27.296875 
Q 45.40625 37.203125 41.296875 42.84375 
Q 37.203125 48.484375 30.078125 48.484375 
Q 22.953125 48.484375 18.875 42.84375 
Q 14.796875 37.203125 14.796875 27.296875 
z
" id="DejaVuSans-100"/>
      <path d="M 56.203125 29.59375 
L 56.203125 25.203125 
L 14.890625 25.203125 
Q 15.484375 15.921875 20.484375 11.0625 
Q 25.484375 6.203125 34.421875 6.203125 
Q 39.59375 6.203125 44.453125 7.46875 
Q 49.3125 8.734375 54.109375 11.28125 
L 54.109375 2.78125 
Q 49.265625 0.734375 44.1875 -0.34375 
Q 39.109375 -1.421875 33.890625 -1.421875 
Q 20.796875 -1.421875 13.15625 6.1875 
Q 5.515625 13.8125 5.515625 26.8125 
Q 5.515625 40.234375 12.765625 48.109375 
Q 20.015625 56 32.328125 56 
Q 43.359375 56 49.78125 48.890625 
Q 56.203125 41.796875 56.203125 29.59375 
z
M 47.21875 32.234375 
Q 47.125 39.59375 43.09375 43.984375 
Q 39.0625 48.390625 32.421875 48.390625 
Q 24.90625 48.390625 20.390625 44.140625 
Q 15.875 39.890625 15.1875 32.171875 
z
" id="DejaVuSans-101"/>
      <path id="DejaVuSans-32"/>
      <path d="M 48.78125 52.59375 
L 48.78125 44.1875 
Q 44.96875 46.296875 41.140625 47.34375 
Q 37.3125 48.390625 33.40625 48.390625 
Q 24.65625 48.390625 19.8125 42.84375 
Q 14.984375 37.3125 14.984375 27.296875 
Q 14.984375 17.28125 19.8125 11.734375 
Q 24.65625 6.203125 33.40625 6.203125 
Q 37.3125 6.203125 41.140625 7.25 
Q 44.96875 8.296875 48.78125 10.40625 
L 48.78125 2.09375 
Q 45.015625 0.34375 40.984375 -0.53125 
Q 36.96875 -1.421875 32.421875 -1.421875 
Q 20.0625 -1.421875 12.78125 6.34375 
Q 5.515625 14.109375 5.515625 27.296875 
Q 5.515625 40.671875 12.859375 48.328125 
Q 20.21875 56 33.015625 56 
Q 37.15625 56 41.109375 55.140625 
Q 45.0625 54.296875 48.78125 52.59375 
z
" id="DejaVuSans-99"/>
      <path d="M 34.28125 27.484375 
Q 23.390625 27.484375 19.1875 25 
Q 14.984375 22.515625 14.984375 16.5 
Q 14.984375 11.71875 18.140625 8.90625 
Q 21.296875 6.109375 26.703125 6.109375 
Q 34.1875 6.109375 38.703125 11.40625 
Q 43.21875 16.703125 43.21875 25.484375 
L 43.21875 27.484375 
z
M 52.203125 31.203125 
L 52.203125 0 
L 43.21875 0 
L 43.21875 8.296875 
Q 40.140625 3.328125 35.546875 0.953125 
Q 30.953125 -1.421875 24.3125 -1.421875 
Q 15.921875 -1.421875 10.953125 3.296875 
Q 6 8.015625 6 15.921875 
Q 6 25.140625 12.171875 29.828125 
Q 18.359375 34.515625 30.609375 34.515625 
L 43.21875 34.515625 
L 43.21875 35.40625 
Q 43.21875 41.609375 39.140625 45 
Q 35.0625 48.390625 27.6875 48.390625 
Q 23 48.390625 18.546875 47.265625 
Q 14.109375 46.140625 10.015625 43.890625 
L 10.015625 52.203125 
Q 14.9375 54.109375 19.578125 55.046875 
Q 24.21875 56 28.609375 56 
Q 40.484375 56 46.34375 49.84375 
Q 52.203125 43.703125 52.203125 31.203125 
z
" id="DejaVuSans-97"/>
      <path d="M 9.421875 54.6875 
L 18.40625 54.6875 
L 18.40625 0 
L 9.421875 0 
z
M 9.421875 75.984375 
L 18.40625 75.984375 
L 18.40625 64.59375 
L 9.421875 64.59375 
z
" id="DejaVuSans-105"/>
      <path d="M 30.609375 48.390625 
Q 23.390625 48.390625 19.1875 42.75 
Q 14.984375 37.109375 14.984375 27.296875 
Q 14.984375 17.484375 19.15625 11.84375 
Q 23.34375 6.203125 30.609375 6.203125 
Q 37.796875 6.203125 41.984375 11.859375 
Q 46.1875 17.53125 46.1875 27.296875 
Q 46.1875 37.015625 41.984375 42.703125 
Q 37.796875 48.390625 30.609375 48.390625 
z
M 30.609375 56 
Q 42.328125 56 49.015625 48.375 
Q 55.71875 40.765625 55.71875 27.296875 
Q 55.71875 13.875 49.015625 6.21875 
Q 42.328125 -1.421875 30.609375 -1.421875 
Q 18.84375 -1.421875 12.171875 6.21875 
Q 5.515625 13.875 5.515625 27.296875 
Q 5.515625 40.765625 12.171875 48.375 
Q 18.84375 56 30.609375 56 
z
" id="DejaVuSans-111"/>
      <path d="M 54.890625 33.015625 
L 54.890625 0 
L 45.90625 0 
L 45.90625 32.71875 
Q 45.90625 40.484375 42.875 44.328125 
Q 39.84375 48.1875 33.796875 48.1875 
Q 26.515625 48.1875 22.3125 43.546875 
Q 18.109375 38.921875 18.109375 30.90625 
L 18.109375 0 
L 9.078125 0 
L 9.078125 54.6875 
L 18.109375 54.6875 
L 18.109375 46.1875 
Q 21.34375 51.125 25.703125 53.5625 
Q 30.078125 56 35.796875 56 
Q 45.21875 56 50.046875 50.171875 
Q 54.890625 44.34375 54.890625 33.015625 
z
" id="DejaVuSans-110"/>
      <path d="M 53.515625 70.515625 
L 53.515625 60.890625 
Q 47.90625 63.578125 42.921875 64.890625 
Q 37.9375 66.21875 33.296875 66.21875 
Q 25.25 66.21875 20.875 63.09375 
Q 16.5 59.96875 16.5 54.203125 
Q 16.5 49.359375 19.40625 46.890625 
Q 22.3125 44.4375 30.421875 42.921875 
L 36.375 41.703125 
Q 47.40625 39.59375 52.65625 34.296875 
Q 57.90625 29 57.90625 20.125 
Q 57.90625 9.515625 50.796875 4.046875 
Q 43.703125 -1.421875 29.984375 -1.421875 
Q 24.8125 -1.421875 18.96875 -0.25 
Q 13.140625 0.921875 6.890625 3.21875 
L 6.890625 13.375 
Q 12.890625 10.015625 18.65625 8.296875 
Q 24.421875 6.59375 29.984375 6.59375 
Q 38.421875 6.59375 43.015625 9.90625 
Q 47.609375 13.234375 47.609375 19.390625 
Q 47.609375 24.75 44.3125 27.78125 
Q 41.015625 30.8125 33.5 32.328125 
L 27.484375 33.5 
Q 16.453125 35.6875 11.515625 40.375 
Q 6.59375 45.0625 6.59375 53.421875 
Q 6.59375 63.09375 13.40625 68.65625 
Q 20.21875 74.21875 32.171875 74.21875 
Q 37.3125 74.21875 42.625 73.28125 
Q 47.953125 72.359375 53.515625 70.515625 
z
" id="DejaVuSans-83"/>
      <path d="M 45.40625 27.984375 
Q 45.40625 37.75 41.375 43.109375 
Q 37.359375 48.484375 30.078125 48.484375 
Q 22.859375 48.484375 18.828125 43.109375 
Q 14.796875 37.75 14.796875 27.984375 
Q 14.796875 18.265625 18.828125 12.890625 
Q 22.859375 7.515625 30.078125 7.515625 
Q 37.359375 7.515625 41.375 12.890625 
Q 45.40625 18.265625 45.40625 27.984375 
z
M 54.390625 6.78125 
Q 54.390625 -7.171875 48.1875 -13.984375 
Q 42 -20.796875 29.203125 -20.796875 
Q 24.46875 -20.796875 20.265625 -20.09375 
Q 16.0625 -19.390625 12.109375 -17.921875 
L 12.109375 -9.1875 
Q 16.0625 -11.328125 19.921875 -12.34375 
Q 23.78125 -13.375 27.78125 -13.375 
Q 36.625 -13.375 41.015625 -8.765625 
Q 45.40625 -4.15625 45.40625 5.171875 
L 45.40625 9.625 
Q 42.625 4.78125 38.28125 2.390625 
Q 33.9375 0 27.875 0 
Q 17.828125 0 11.671875 7.65625 
Q 5.515625 15.328125 5.515625 27.984375 
Q 5.515625 40.671875 11.671875 48.328125 
Q 17.828125 56 27.875 56 
Q 33.9375 56 38.28125 53.609375 
Q 42.625 51.21875 45.40625 46.390625 
L 45.40625 54.6875 
L 54.390625 54.6875 
z
" id="DejaVuSans-103"/>
     </defs>
     <use xlink:href="#DejaVuSans-49"/>
     <use x="63.623047" xlink:href="#DejaVuSans-115"/>
     <use x="115.722656" xlink:href="#DejaVuSans-116"/>
     <use x="154.931641" xlink:href="#DejaVuSans-45"/>
     <use x="193.765625" xlink:href="#DejaVuSans-79"/>
     <use x="272.476562" xlink:href="#DejaVuSans-114"/>
     <use x="311.839844" xlink:href="#DejaVuSans-100"/>
     <use x="375.316406" xlink:href="#DejaVuSans-101"/>
     <use x="436.839844" xlink:href="#DejaVuSans-114"/>
     <use x="477.953125" xlink:href="#DejaVuSans-32"/>
     <use x="509.740234" xlink:href="#DejaVuSans-79"/>
     <use x="588.451172" xlink:href="#DejaVuSans-99"/>
     <use x="643.431641" xlink:href="#DejaVuSans-99"/>
     <use x="698.412109" xlink:href="#DejaVuSans-97"/>
     <use x="759.691406" xlink:href="#DejaVuSans-115"/>
     <use x="811.791016" xlink:href="#DejaVuSans-105"/>
     <use x="839.574219" xlink:href="#DejaVuSans-111"/>
     <use x="900.755859" xlink:href="#DejaVuSans-110"/>
     <use x="964.134766" xlink:href="#DejaVuSans-32"/>
     <use x="995.921875" xlink:href="#DejaVuSans-83"/>
     <use x="1059.398438" xlink:href="#DejaVuSans-101"/>
     <use x="1120.921875" xlink:href="#DejaVuSans-116"/>
     <use x="1160.130859" xlink:href="#DejaVuSans-116"/>
     <use x="1199.339844" xlink:href="#DejaVuSans-105"/>
     <use x="1227.123047" xlink:href="#DejaVuSans-110"/>
     <use x="1290.501953" xlink:href="#DejaVuSans-103"/>
    </g>
   </g>
  </g>
  <g id="text_14">
   <!-- Simulated vs Recovered α Parameters -->
   <g transform="translate(7.2 19.3575)scale(0.16 -0.16)">
    <defs>
     <path d="M 52 44.1875 
Q 55.375 50.25 60.0625 53.125 
Q 64.75 56 71.09375 56 
Q 79.640625 56 84.28125 50.015625 
Q 88.921875 44.046875 88.921875 33.015625 
L 88.921875 0 
L 79.890625 0 
L 79.890625 32.71875 
Q 79.890625 40.578125 77.09375 44.375 
Q 74.3125 48.1875 68.609375 48.1875 
Q 61.625 48.1875 57.5625 43.546875 
Q 53.515625 38.921875 53.515625 30.90625 
L 53.515625 0 
L 44.484375 0 
L 44.484375 32.71875 
Q 44.484375 40.625 41.703125 44.40625 
Q 38.921875 48.1875 33.109375 48.1875 
Q 26.21875 48.1875 22.15625 43.53125 
Q 18.109375 38.875 18.109375 30.90625 
L 18.109375 0 
L 9.078125 0 
L 9.078125 54.6875 
L 18.109375 54.6875 
L 18.109375 46.1875 
Q 21.1875 51.21875 25.484375 53.609375 
Q 29.78125 56 35.6875 56 
Q 41.65625 56 45.828125 52.96875 
Q 50 49.953125 52 44.1875 
z
" id="DejaVuSans-109"/>
     <path d="M 8.5 21.578125 
L 8.5 54.6875 
L 17.484375 54.6875 
L 17.484375 21.921875 
Q 17.484375 14.15625 20.5 10.265625 
Q 23.53125 6.390625 29.59375 6.390625 
Q 36.859375 6.390625 41.078125 11.03125 
Q 45.3125 15.671875 45.3125 23.6875 
L 45.3125 54.6875 
L 54.296875 54.6875 
L 54.296875 0 
L 45.3125 0 
L 45.3125 8.40625 
Q 42.046875 3.421875 37.71875 1 
Q 33.40625 -1.421875 27.6875 -1.421875 
Q 18.265625 -1.421875 13.375 4.4375 
Q 8.5 10.296875 8.5 21.578125 
z
M 31.109375 56 
z
" id="DejaVuSans-117"/>
     <path d="M 9.421875 75.984375 
L 18.40625 75.984375 
L 18.40625 0 
L 9.421875 0 
z
" id="DejaVuSans-108"/>
     <path d="M 2.984375 54.6875 
L 12.5 54.6875 
L 29.59375 8.796875 
L 46.6875 54.6875 
L 56.203125 54.6875 
L 35.6875 0 
L 23.484375 0 
z
" id="DejaVuSans-118"/>
     <path d="M 44.390625 34.1875 
Q 47.5625 33.109375 50.5625 29.59375 
Q 53.5625 26.078125 56.59375 19.921875 
L 66.609375 0 
L 56 0 
L 46.6875 18.703125 
Q 43.0625 26.03125 39.671875 28.421875 
Q 36.28125 30.8125 30.421875 30.8125 
L 19.671875 30.8125 
L 19.671875 0 
L 9.8125 0 
L 9.8125 72.90625 
L 32.078125 72.90625 
Q 44.578125 72.90625 50.734375 67.671875 
Q 56.890625 62.453125 56.890625 51.90625 
Q 56.890625 45.015625 53.6875 40.46875 
Q 50.484375 35.9375 44.390625 34.1875 
z
M 19.671875 64.796875 
L 19.671875 38.921875 
L 32.078125 38.921875 
Q 39.203125 38.921875 42.84375 42.21875 
Q 46.484375 45.515625 46.484375 51.90625 
Q 46.484375 58.296875 42.84375 61.546875 
Q 39.203125 64.796875 32.078125 64.796875 
z
" id="DejaVuSans-82"/>
     <path d="M 41.3125 25.4375 
L 39.15625 36.71875 
Q 36.96875 48.296875 28.265625 48.296875 
Q 21.734375 48.296875 18.75 42.921875 
Q 14.984375 36.1875 14.984375 27.296875 
Q 14.984375 16.546875 18.65625 11.421875 
Q 22.359375 6.203125 28.265625 6.203125 
Q 34.8125 6.203125 38.328125 16.609375 
z
M 46.34375 40.375 
L 51.171875 54.6875 
L 59.1875 54.6875 
L 49.171875 25.046875 
L 51.125 14.359375 
Q 51.5625 11.96875 53.265625 9.96875 
Q 55.28125 7.625 56.84375 7.625 
L 61.140625 7.625 
L 61.140625 0 
L 55.765625 0 
Q 51.171875 0 47.078125 4.109375 
Q 45.0625 6.15625 44.234375 10.453125 
Q 42 5.03125 37.40625 0.78125 
Q 35.25 -1.21875 28.265625 -1.21875 
Q 16.796875 -1.21875 11.234375 6.203125 
Q 5.515625 13.875 5.515625 27.296875 
Q 5.515625 41.65625 11.71875 48.390625 
Q 18.609375 55.90625 28.265625 55.90625 
Q 43.453125 55.90625 46.34375 40.375 
z
" id="DejaVuSans-945"/>
     <path d="M 19.671875 64.796875 
L 19.671875 37.40625 
L 32.078125 37.40625 
Q 38.96875 37.40625 42.71875 40.96875 
Q 46.484375 44.53125 46.484375 51.125 
Q 46.484375 57.671875 42.71875 61.234375 
Q 38.96875 64.796875 32.078125 64.796875 
z
M 9.8125 72.90625 
L 32.078125 72.90625 
Q 44.34375 72.90625 50.609375 67.359375 
Q 56.890625 61.8125 56.890625 51.125 
Q 56.890625 40.328125 50.609375 34.8125 
Q 44.34375 29.296875 32.078125 29.296875 
L 19.671875 29.296875 
L 19.671875 0 
L 9.8125 0 
z
" id="DejaVuSans-80"/>
    </defs>
    <use xlink:href="#DejaVuSans-83"/>
    <use x="63.476562" xlink:href="#DejaVuSans-105"/>
    <use x="91.259766" xlink:href="#DejaVuSans-109"/>
    <use x="188.671875" xlink:href="#DejaVuSans-117"/>
    <use x="252.050781" xlink:href="#DejaVuSans-108"/>
    <use x="279.833984" xlink:href="#DejaVuSans-97"/>
    <use x="341.113281" xlink:href="#DejaVuSans-116"/>
    <use x="380.322266" xlink:href="#DejaVuSans-101"/>
    <use x="441.845703" xlink:href="#DejaVuSans-100"/>
    <use x="505.322266" xlink:href="#DejaVuSans-32"/>
    <use x="537.109375" xlink:href="#DejaVuSans-118"/>
    <use x="596.289062" xlink:href="#DejaVuSans-115"/>
    <use x="648.388672" xlink:href="#DejaVuSans-32"/>
    <use x="680.175781" xlink:href="#DejaVuSans-82"/>
    <use x="745.158203" xlink:href="#DejaVuSans-101"/>
    <use x="806.681641" xlink:href="#DejaVuSans-99"/>
    <use x="861.662109" xlink:href="#DejaVuSans-111"/>
    <use x="922.84375" xlink:href="#DejaVuSans-118"/>
    <use x="982.023438" xlink:href="#DejaVuSans-101"/>
    <use x="1043.546875" xlink:href="#DejaVuSans-114"/>
    <use x="1082.410156" xlink:href="#DejaVuSans-101"/>
    <use x="1143.933594" xlink:href="#DejaVuSans-100"/>
    <use x="1207.410156" xlink:href="#DejaVuSans-32"/>
    <use x="1239.197266" xlink:href="#DejaVuSans-945"/>
    <use x="1305.115234" xlink:href="#DejaVuSans-32"/>
    <use x="1336.902344" xlink:href="#DejaVuSans-80"/>
    <use x="1392.705078" xlink:href="#DejaVuSans-97"/>
    <use x="1453.984375" xlink:href="#DejaVuSans-114"/>
    <use x="1495.097656" xlink:href="#DejaVuSans-97"/>
    <use x="1556.376953" xlink:href="#DejaVuSans-109"/>
    <use x="1653.789062" xlink:href="#DejaVuSans-101"/>
    <use x="1715.3125" xlink:href="#DejaVuSans-116"/>
    <use x="1754.521484" xlink:href="#DejaVuSans-101"/>
    <use x="1816.044922" xlink:href="#DejaVuSans-114"/>
    <use x="1857.158203" xlink:href="#DejaVuSans-115"/>
   </g>
  </g>
  <g id="text_15">
   <!-- Simulated α -->
   <g transform="translate(111.7 198.815)scale(0.16 -0.16)">
    <use xlink:href="#DejaVuSans-83"/>
    <use x="63.476562" xlink:href="#DejaVuSans-105"/>
    <use x="91.259766" xlink:href="#DejaVuSans-109"/>
    <use x="188.671875" xlink:href="#DejaVuSans-117"/>
    <use x="252.050781" xlink:href="#DejaVuSans-108"/>
    <use x="279.833984" xlink:href="#DejaVuSans-97"/>
    <use x="341.113281" xlink:href="#DejaVuSans-116"/>
    <use x="380.322266" xlink:href="#DejaVuSans-101"/>
    <use x="441.845703" xlink:href="#DejaVuSans-100"/>
    <use x="505.322266" xlink:href="#DejaVuSans-32"/>
    <use x="537.109375" xlink:href="#DejaVuSans-945"/>
   </g>
  </g>
  <g id="text_16">
   <!-- Recovered α -->
   <g transform="translate(52.0375 150.79875)rotate(-90)scale(0.16 -0.16)">
    <use xlink:href="#DejaVuSans-82"/>
    <use x="64.982422" xlink:href="#DejaVuSans-101"/>
    <use x="126.505859" xlink:href="#DejaVuSans-99"/>
    <use x="181.486328" xlink:href="#DejaVuSans-111"/>
    <use x="242.667969" xlink:href="#DejaVuSans-118"/>
    <use x="301.847656" xlink:href="#DejaVuSans-101"/>
    <use x="363.371094" xlink:href="#DejaVuSans-114"/>
    <use x="402.234375" xlink:href="#DejaVuSans-101"/>
    <use x="463.757812" xlink:href="#DejaVuSans-100"/>
    <use x="527.234375" xlink:href="#DejaVuSans-32"/>
    <use x="559.021484" xlink:href="#DejaVuSans-945"/>
   </g>
  </g>
 </g>
 <defs>
  <clipPath id="pd779bd5483">
   <rect height="99.6" width="163.4" x="85.7425" y="63.4"/>
  </clipPath>
 </defs>
</svg>
