<?xml version="1.0" encoding="utf-8" standalone="no"?>
<!DOCTYPE svg PUBLIC "-//W3C//DTD SVG 1.1//EN"
  "http://www.w3.org/Graphics/SVG/1.1/DTD/svg11.dtd">
<!-- Created with matplotlib (https://matplotlib.org/) -->
<svg height="209.3425pt" version="1.1" viewBox="0 0 319.885 209.3425" width="319.885pt" xmlns="http://www.w3.org/2000/svg" xmlns:xlink="http://www.w3.org/1999/xlink">
 <metadata>
  <rdf:RDF xmlns:cc="http://creativecommons.org/ns#" xmlns:dc="http://purl.org/dc/elements/1.1/" xmlns:rdf="http://www.w3.org/1999/02/22-rdf-syntax-ns#">
   <cc:Work>
    <dc:type rdf:resource="http://purl.org/dc/dcmitype/StillImage"/>
    <dc:date>2021-07-10T12:10:00.827976</dc:date>
    <dc:format>image/svg+xml</dc:format>
    <dc:creator>
     <cc:Agent>
      <dc:title>Matplotlib v3.3.2, https://matplotlib.org/</dc:title>
     </cc:Agent>
    </dc:creator>
   </cc:Work>
  </rdf:RDF>
 </metadata>
 <defs>
  <style type="text/css">*{stroke-linecap:butt;stroke-linejoin:round;}</style>
 </defs>
 <g id="figure_1">
  <g id="patch_1">
   <path d="M 0 209.3425 
L 319.885 209.3425 
L 319.885 0 
L 0 0 
z
" style="fill:none;"/>
  </g>
  <g id="axes_1">
   <g id="patch_2">
    <path d="M 85.7425 163 
L 249.1425 163 
L 249.1425 63.4 
L 85.7425 63.4 
z
" style="fill:#ffffff;"/>
   </g>
   <g id="PathCollection_1">
    <defs>
     <path d="M 0 3 
C 0.795609 3 1.55874 2.683901 2.12132 2.12132 
C 2.683901 1.55874 3 0.795609 3 0 
C 3 -0.795609 2.683901 -1.55874 2.12132 -2.12132 
C 1.55874 -2.683901 0.795609 -3 0 -3 
C -0.795609 -3 -1.55874 -2.683901 -2.12132 -2.12132 
C -2.683901 -1.55874 -3 -0.795609 -3 0 
C -3 0.795609 -2.683901 1.55874 -2.12132 2.12132 
C -1.55874 2.683901 -0.795609 3 0 3 
z
" id="m5e2a2fbc74" style="stroke:#000000;stroke-opacity:0.8;"/>
    </defs>
    <g clip-path="url(#pc2268318cd)">
     <use style="fill-opacity:0.8;stroke:#000000;stroke-opacity:0.8;" x="161.973169" xlink:href="#m5e2a2fbc74" y="116.545297"/>
     <use style="fill-opacity:0.8;stroke:#000000;stroke-opacity:0.8;" x="100.012986" xlink:href="#m5e2a2fbc74" y="154.299165"/>
     <use style="fill-opacity:0.8;stroke:#000000;stroke-opacity:0.8;" x="189.159722" xlink:href="#m5e2a2fbc74" y="99.960283"/>
     <use style="fill-opacity:0.8;stroke:#000000;stroke-opacity:0.8;" x="97.465654" xlink:href="#m5e2a2fbc74" y="155.853241"/>
     <use style="fill-opacity:0.8;stroke:#000000;stroke-opacity:0.8;" x="116.999315" xlink:href="#m5e2a2fbc74" y="143.945442"/>
     <use style="fill-opacity:0.8;stroke:#000000;stroke-opacity:0.8;" x="168.921571" xlink:href="#m5e2a2fbc74" y="112.309517"/>
     <use style="fill-opacity:0.8;stroke:#000000;stroke-opacity:0.8;" x="98.453245" xlink:href="#m5e2a2fbc74" y="155.250502"/>
     <use style="fill-opacity:0.8;stroke:#000000;stroke-opacity:0.8;" x="118.411782" xlink:href="#m5e2a2fbc74" y="143.087849"/>
     <use style="fill-opacity:0.8;stroke:#000000;stroke-opacity:0.8;" x="151.812683" xlink:href="#m5e2a2fbc74" y="122.72201"/>
     <use style="fill-opacity:0.8;stroke:#000000;stroke-opacity:0.8;" x="189.879541" xlink:href="#m5e2a2fbc74" y="99.518078"/>
     <use style="fill-opacity:0.8;stroke:#000000;stroke-opacity:0.8;" x="179.326241" xlink:href="#m5e2a2fbc74" y="105.9574"/>
     <use style="fill-opacity:0.8;stroke:#000000;stroke-opacity:0.8;" x="163.822729" xlink:href="#m5e2a2fbc74" y="115.398233"/>
     <use style="fill-opacity:0.8;stroke:#000000;stroke-opacity:0.8;" x="201.59073" xlink:href="#m5e2a2fbc74" y="92.396217"/>
     <use style="fill-opacity:0.8;stroke:#000000;stroke-opacity:0.8;" x="183.964157" xlink:href="#m5e2a2fbc74" y="103.124688"/>
     <use style="fill-opacity:0.8;stroke:#000000;stroke-opacity:0.8;" x="208.176329" xlink:href="#m5e2a2fbc74" y="88.368258"/>
     <use style="fill-opacity:0.8;stroke:#000000;stroke-opacity:0.8;" x="214.696426" xlink:href="#m5e2a2fbc74" y="84.397903"/>
     <use style="fill-opacity:0.8;stroke:#000000;stroke-opacity:0.8;" x="110.13212" xlink:href="#m5e2a2fbc74" y="148.136213"/>
     <use style="fill-opacity:0.8;stroke:#000000;stroke-opacity:0.8;" x="99.251423" xlink:href="#m5e2a2fbc74" y="154.762326"/>
     <use style="fill-opacity:0.8;stroke:#000000;stroke-opacity:0.8;" x="124.061254" xlink:href="#m5e2a2fbc74" y="139.639911"/>
     <use style="fill-opacity:0.8;stroke:#000000;stroke-opacity:0.8;" x="179.368005" xlink:href="#m5e2a2fbc74" y="105.92865"/>
     <use style="fill-opacity:0.8;stroke:#000000;stroke-opacity:0.8;" x="212.43406" xlink:href="#m5e2a2fbc74" y="85.782356"/>
     <use style="fill-opacity:0.8;stroke:#000000;stroke-opacity:0.8;" x="171.187626" xlink:href="#m5e2a2fbc74" y="110.923008"/>
     <use style="fill-opacity:0.8;stroke:#000000;stroke-opacity:0.8;" x="227.3443" xlink:href="#m5e2a2fbc74" y="76.675074"/>
     <use style="fill-opacity:0.8;stroke:#000000;stroke-opacity:0.8;" x="182.578571" xlink:href="#m5e2a2fbc74" y="103.97009"/>
     <use style="fill-opacity:0.8;stroke:#000000;stroke-opacity:0.8;" x="110.386808" xlink:href="#m5e2a2fbc74" y="147.97135"/>
     <use style="fill-opacity:0.8;stroke:#000000;stroke-opacity:0.8;" x="203.035648" xlink:href="#m5e2a2fbc74" y="91.512925"/>
     <use style="fill-opacity:0.8;stroke:#000000;stroke-opacity:0.8;" x="158.325486" xlink:href="#m5e2a2fbc74" y="118.763631"/>
     <use style="fill-opacity:0.8;stroke:#000000;stroke-opacity:0.8;" x="131.909325" xlink:href="#m5e2a2fbc74" y="134.866068"/>
     <use style="fill-opacity:0.8;stroke:#000000;stroke-opacity:0.8;" x="183.707907" xlink:href="#m5e2a2fbc74" y="103.296964"/>
     <use style="fill-opacity:0.8;stroke:#000000;stroke-opacity:0.8;" x="165.196774" xlink:href="#m5e2a2fbc74" y="114.571665"/>
     <use style="fill-opacity:0.8;stroke:#000000;stroke-opacity:0.8;" x="141.424674" xlink:href="#m5e2a2fbc74" y="129.053984"/>
     <use style="fill-opacity:0.8;stroke:#000000;stroke-opacity:0.8;" x="182.426719" xlink:href="#m5e2a2fbc74" y="104.050326"/>
     <use style="fill-opacity:0.8;stroke:#000000;stroke-opacity:0.8;" x="228.631991" xlink:href="#m5e2a2fbc74" y="75.907279"/>
     <use style="fill-opacity:0.8;stroke:#000000;stroke-opacity:0.8;" x="197.235893" xlink:href="#m5e2a2fbc74" y="95.053535"/>
     <use style="fill-opacity:0.8;stroke:#000000;stroke-opacity:0.8;" x="108.629512" xlink:href="#m5e2a2fbc74" y="149.047459"/>
     <use style="fill-opacity:0.8;stroke:#000000;stroke-opacity:0.8;" x="214.41974" xlink:href="#m5e2a2fbc74" y="84.572674"/>
     <use style="fill-opacity:0.8;stroke:#000000;stroke-opacity:0.8;" x="148.941205" xlink:href="#m5e2a2fbc74" y="124.475039"/>
     <use style="fill-opacity:0.8;stroke:#000000;stroke-opacity:0.8;" x="198.049786" xlink:href="#m5e2a2fbc74" y="94.545353"/>
     <use style="fill-opacity:0.8;stroke:#000000;stroke-opacity:0.8;" x="199.426031" xlink:href="#m5e2a2fbc74" y="93.700379"/>
     <use style="fill-opacity:0.8;stroke:#000000;stroke-opacity:0.8;" x="165.00054" xlink:href="#m5e2a2fbc74" y="114.678436"/>
     <use style="fill-opacity:0.8;stroke:#000000;stroke-opacity:0.8;" x="234.494272" xlink:href="#m5e2a2fbc74" y="72.329417"/>
     <use style="fill-opacity:0.8;stroke:#000000;stroke-opacity:0.8;" x="171.047405" xlink:href="#m5e2a2fbc74" y="110.995553"/>
     <use style="fill-opacity:0.8;stroke:#000000;stroke-opacity:0.8;" x="109.788076" xlink:href="#m5e2a2fbc74" y="148.338543"/>
     <use style="fill-opacity:0.8;stroke:#000000;stroke-opacity:0.8;" x="186.364439" xlink:href="#m5e2a2fbc74" y="101.664451"/>
     <use style="fill-opacity:0.8;stroke:#000000;stroke-opacity:0.8;" x="136.150788" xlink:href="#m5e2a2fbc74" y="132.267848"/>
     <use style="fill-opacity:0.8;stroke:#000000;stroke-opacity:0.8;" x="158.005709" xlink:href="#m5e2a2fbc74" y="118.95641"/>
     <use style="fill-opacity:0.8;stroke:#000000;stroke-opacity:0.8;" x="113.330434" xlink:href="#m5e2a2fbc74" y="146.187357"/>
     <use style="fill-opacity:0.8;stroke:#000000;stroke-opacity:0.8;" x="150.528335" xlink:href="#m5e2a2fbc74" y="123.506894"/>
     <use style="fill-opacity:0.8;stroke:#000000;stroke-opacity:0.8;" x="102.061938" xlink:href="#m5e2a2fbc74" y="153.054991"/>
     <use style="fill-opacity:0.8;stroke:#000000;stroke-opacity:0.8;" x="96.124715" xlink:href="#m5e2a2fbc74" y="156.671559"/>
     <use style="fill-opacity:0.8;stroke:#000000;stroke-opacity:0.8;" x="168.128939" xlink:href="#m5e2a2fbc74" y="112.785267"/>
     <use style="fill-opacity:0.8;stroke:#000000;stroke-opacity:0.8;" x="162.81367" xlink:href="#m5e2a2fbc74" y="116.038162"/>
     <use style="fill-opacity:0.8;stroke:#000000;stroke-opacity:0.8;" x="163.742108" xlink:href="#m5e2a2fbc74" y="115.44895"/>
     <use style="fill-opacity:0.8;stroke:#000000;stroke-opacity:0.8;" x="100.968764" xlink:href="#m5e2a2fbc74" y="153.720621"/>
     <use style="fill-opacity:0.8;stroke:#000000;stroke-opacity:0.8;" x="160.477326" xlink:href="#m5e2a2fbc74" y="117.44736"/>
     <use style="fill-opacity:0.8;stroke:#000000;stroke-opacity:0.8;" x="135.811926" xlink:href="#m5e2a2fbc74" y="132.477983"/>
     <use style="fill-opacity:0.8;stroke:#000000;stroke-opacity:0.8;" x="157.94916" xlink:href="#m5e2a2fbc74" y="118.994219"/>
     <use style="fill-opacity:0.8;stroke:#000000;stroke-opacity:0.8;" x="206.545853" xlink:href="#m5e2a2fbc74" y="89.365738"/>
     <use style="fill-opacity:0.8;stroke:#000000;stroke-opacity:0.8;" x="209.585601" xlink:href="#m5e2a2fbc74" y="87.510215"/>
     <use style="fill-opacity:0.8;stroke:#000000;stroke-opacity:0.8;" x="120.301879" xlink:href="#m5e2a2fbc74" y="141.929983"/>
     <use style="fill-opacity:0.8;stroke:#000000;stroke-opacity:0.8;" x="189.677321" xlink:href="#m5e2a2fbc74" y="99.635738"/>
     <use style="fill-opacity:0.8;stroke:#000000;stroke-opacity:0.8;" x="144.845003" xlink:href="#m5e2a2fbc74" y="126.987324"/>
     <use style="fill-opacity:0.8;stroke:#000000;stroke-opacity:0.8;" x="174.043143" xlink:href="#m5e2a2fbc74" y="109.173901"/>
     <use style="fill-opacity:0.8;stroke:#000000;stroke-opacity:0.8;" x="110.06414" xlink:href="#m5e2a2fbc74" y="148.183255"/>
     <use style="fill-opacity:0.8;stroke:#000000;stroke-opacity:0.8;" x="154.262884" xlink:href="#m5e2a2fbc74" y="121.230709"/>
     <use style="fill-opacity:0.8;stroke:#000000;stroke-opacity:0.8;" x="130.468754" xlink:href="#m5e2a2fbc74" y="135.730231"/>
     <use style="fill-opacity:0.8;stroke:#000000;stroke-opacity:0.8;" x="147.024691" xlink:href="#m5e2a2fbc74" y="125.64824"/>
    </g>
   </g>
   <g id="PolyCollection_1">
    <path clip-path="url(#pc2268318cd)" d="M 96.124715 156.668731 
L 96.124715 156.672948 
L 97.522388 155.820981 
L 98.92006 154.969047 
L 100.317732 154.117096 
L 101.715405 153.265144 
L 103.113077 152.413187 
L 104.510749 151.561229 
L 105.908422 150.709271 
L 107.306094 149.857313 
L 108.703766 149.005357 
L 110.101438 148.153396 
L 111.499111 147.30144 
L 112.896783 146.449479 
L 114.294455 145.597521 
L 115.692128 144.745563 
L 117.0898 143.893637 
L 118.487472 143.041682 
L 119.885144 142.189769 
L 121.282817 141.337795 
L 122.680489 140.485851 
L 124.078161 139.633919 
L 125.475834 138.78197 
L 126.873506 137.930017 
L 128.271178 137.078063 
L 129.66885 136.22611 
L 131.066523 135.374183 
L 132.464195 134.52228 
L 133.861867 133.670372 
L 135.25954 132.818419 
L 136.657212 131.966489 
L 138.054884 131.11455 
L 139.452556 130.262621 
L 140.850229 129.410685 
L 142.247901 128.558778 
L 143.645573 127.706849 
L 145.043246 126.85493 
L 146.440918 126.003012 
L 147.83859 125.151094 
L 149.236262 124.299176 
L 150.633935 123.447276 
L 152.031607 122.595376 
L 153.429279 121.743471 
L 154.826952 120.89155 
L 156.224624 120.039652 
L 157.622296 119.187764 
L 159.019969 118.335883 
L 160.417641 117.483975 
L 161.815313 116.632069 
L 163.212985 115.78016 
L 164.610658 114.928252 
L 166.00833 114.07635 
L 167.406002 113.224457 
L 168.803675 112.372558 
L 170.201347 111.520658 
L 171.599019 110.668766 
L 172.996691 109.816891 
L 174.394364 108.965022 
L 175.792036 108.113127 
L 177.189708 107.261218 
L 178.587381 106.409331 
L 179.985053 105.557444 
L 181.382725 104.705567 
L 182.780397 103.853684 
L 184.17807 103.001783 
L 185.575742 102.149897 
L 186.973414 101.29801 
L 188.371087 100.446123 
L 189.768759 99.594236 
L 191.166431 98.742348 
L 192.564103 97.890464 
L 193.961776 97.038581 
L 195.359448 96.186687 
L 196.75712 95.3348 
L 198.154793 94.482914 
L 199.552465 93.631029 
L 200.950137 92.779139 
L 202.347809 91.927257 
L 203.745482 91.075387 
L 205.143154 90.223517 
L 206.540826 89.371632 
L 207.938499 88.519734 
L 209.336171 87.667855 
L 210.733843 86.815967 
L 212.131516 85.96407 
L 213.529188 85.112171 
L 214.92686 84.260273 
L 216.324532 83.408382 
L 217.722205 82.556499 
L 219.119877 81.704634 
L 220.517549 80.852759 
L 221.915222 80.000893 
L 223.312894 79.149027 
L 224.710566 78.297152 
L 226.108238 77.445266 
L 227.505911 76.593388 
L 228.903583 75.741504 
L 230.301255 74.889609 
L 231.698928 74.037724 
L 233.0966 73.185838 
L 234.494272 72.333952 
L 234.494272 72.326188 
L 234.494272 72.326188 
L 233.0966 73.178156 
L 231.698928 74.030129 
L 230.301255 74.882102 
L 228.903583 75.734075 
L 227.505911 76.586048 
L 226.108238 77.438021 
L 224.710566 78.289994 
L 223.312894 79.141963 
L 221.915222 79.993938 
L 220.517549 80.845914 
L 219.119877 81.697887 
L 217.722205 82.549859 
L 216.324532 83.401833 
L 214.92686 84.253806 
L 213.529188 85.10578 
L 212.131516 85.957754 
L 210.733843 86.80974 
L 209.336171 87.661727 
L 207.938499 88.513713 
L 206.540826 89.365672 
L 205.143154 90.217627 
L 203.745482 91.069592 
L 202.347809 91.921564 
L 200.950137 92.773537 
L 199.552465 93.62551 
L 198.154793 94.477481 
L 196.75712 95.329457 
L 195.359448 96.18143 
L 193.961776 97.033403 
L 192.564103 97.885359 
L 191.166431 98.737311 
L 189.768759 99.589264 
L 188.371087 100.441227 
L 186.973414 101.293191 
L 185.575742 102.145163 
L 184.17807 102.997123 
L 182.780397 103.849082 
L 181.382725 104.701042 
L 179.985053 105.553003 
L 178.587381 106.404974 
L 177.189708 107.256924 
L 175.792036 108.108883 
L 174.394364 108.960842 
L 172.996691 109.812789 
L 171.599019 110.664774 
L 170.201347 111.516756 
L 168.803675 112.36872 
L 167.406002 113.220685 
L 166.00833 114.07266 
L 164.610658 114.924624 
L 163.212985 115.776575 
L 161.815313 116.628524 
L 160.417641 117.480454 
L 159.019969 118.332401 
L 157.622296 119.18436 
L 156.224624 120.036311 
L 154.826952 120.88826 
L 153.429279 121.740235 
L 152.031607 122.5922 
L 150.633935 123.44413 
L 149.236262 124.29612 
L 147.83859 125.148058 
L 146.440918 125.99999 
L 145.043246 126.851939 
L 143.645573 127.703864 
L 142.247901 128.555785 
L 140.850229 129.407707 
L 139.452556 130.25963 
L 138.054884 131.111548 
L 136.657212 131.963473 
L 135.25954 132.815397 
L 133.861867 133.667322 
L 132.464195 134.519247 
L 131.066523 135.371168 
L 129.66885 136.223078 
L 128.271178 137.074984 
L 126.873506 137.926896 
L 125.475834 138.778811 
L 124.078161 139.63073 
L 122.680489 140.482646 
L 121.282817 141.334532 
L 119.885144 142.18646 
L 118.487472 143.038402 
L 117.0898 143.890317 
L 115.692128 144.742218 
L 114.294455 145.594118 
L 112.896783 146.446032 
L 111.499111 147.297946 
L 110.101438 148.149822 
L 108.703766 149.001718 
L 107.306094 149.853589 
L 105.908422 150.705473 
L 104.510749 151.557403 
L 103.113077 152.409305 
L 101.715405 153.261221 
L 100.317732 154.113093 
L 98.92006 154.964971 
L 97.522388 155.816848 
L 96.124715 156.668731 
z
" style="fill-opacity:0.15;"/>
   </g>
   <g id="matplotlib.axis_1">
    <g id="xtick_1">
     <g id="line2d_1">
      <defs>
       <path d="M 0 0 
L 0 3.5 
" id="m2ac3956942" style="stroke:#000000;stroke-width:0.8;"/>
      </defs>
      <g>
       <use style="stroke:#000000;stroke-width:0.8;" x="85.7425" xlink:href="#m2ac3956942" y="163"/>
      </g>
     </g>
     <g id="text_1">
      <!-- 0.0 -->
      <g transform="translate(77.790938 177.598437)scale(0.1 -0.1)">
       <defs>
        <path d="M 31.78125 66.40625 
Q 24.171875 66.40625 20.328125 58.90625 
Q 16.5 51.421875 16.5 36.375 
Q 16.5 21.390625 20.328125 13.890625 
Q 24.171875 6.390625 31.78125 6.390625 
Q 39.453125 6.390625 43.28125 13.890625 
Q 47.125 21.390625 47.125 36.375 
Q 47.125 51.421875 43.28125 58.90625 
Q 39.453125 66.40625 31.78125 66.40625 
z
M 31.78125 74.21875 
Q 44.046875 74.21875 50.515625 64.515625 
Q 56.984375 54.828125 56.984375 36.375 
Q 56.984375 17.96875 50.515625 8.265625 
Q 44.046875 -1.421875 31.78125 -1.421875 
Q 19.53125 -1.421875 13.0625 8.265625 
Q 6.59375 17.96875 6.59375 36.375 
Q 6.59375 54.828125 13.0625 64.515625 
Q 19.53125 74.21875 31.78125 74.21875 
z
" id="DejaVuSans-48"/>
        <path d="M 10.6875 12.40625 
L 21 12.40625 
L 21 0 
L 10.6875 0 
z
" id="DejaVuSans-46"/>
       </defs>
       <use xlink:href="#DejaVuSans-48"/>
       <use x="63.623047" xlink:href="#DejaVuSans-46"/>
       <use x="95.410156" xlink:href="#DejaVuSans-48"/>
      </g>
     </g>
    </g>
    <g id="xtick_2">
     <g id="line2d_2">
      <g>
       <use style="stroke:#000000;stroke-width:0.8;" x="118.4225" xlink:href="#m2ac3956942" y="163"/>
      </g>
     </g>
     <g id="text_2">
      <!-- 0.2 -->
      <g transform="translate(110.470938 177.598437)scale(0.1 -0.1)">
       <defs>
        <path d="M 19.1875 8.296875 
L 53.609375 8.296875 
L 53.609375 0 
L 7.328125 0 
L 7.328125 8.296875 
Q 12.9375 14.109375 22.625 23.890625 
Q 32.328125 33.6875 34.8125 36.53125 
Q 39.546875 41.84375 41.421875 45.53125 
Q 43.3125 49.21875 43.3125 52.78125 
Q 43.3125 58.59375 39.234375 62.25 
Q 35.15625 65.921875 28.609375 65.921875 
Q 23.96875 65.921875 18.8125 64.3125 
Q 13.671875 62.703125 7.8125 59.421875 
L 7.8125 69.390625 
Q 13.765625 71.78125 18.9375 73 
Q 24.125 74.21875 28.421875 74.21875 
Q 39.75 74.21875 46.484375 68.546875 
Q 53.21875 62.890625 53.21875 53.421875 
Q 53.21875 48.921875 51.53125 44.890625 
Q 49.859375 40.875 45.40625 35.40625 
Q 44.1875 33.984375 37.640625 27.21875 
Q 31.109375 20.453125 19.1875 8.296875 
z
" id="DejaVuSans-50"/>
       </defs>
       <use xlink:href="#DejaVuSans-48"/>
       <use x="63.623047" xlink:href="#DejaVuSans-46"/>
       <use x="95.410156" xlink:href="#DejaVuSans-50"/>
      </g>
     </g>
    </g>
    <g id="xtick_3">
     <g id="line2d_3">
      <g>
       <use style="stroke:#000000;stroke-width:0.8;" x="151.1025" xlink:href="#m2ac3956942" y="163"/>
      </g>
     </g>
     <g id="text_3">
      <!-- 0.4 -->
      <g transform="translate(143.150938 177.598437)scale(0.1 -0.1)">
       <defs>
        <path d="M 37.796875 64.3125 
L 12.890625 25.390625 
L 37.796875 25.390625 
z
M 35.203125 72.90625 
L 47.609375 72.90625 
L 47.609375 25.390625 
L 58.015625 25.390625 
L 58.015625 17.1875 
L 47.609375 17.1875 
L 47.609375 0 
L 37.796875 0 
L 37.796875 17.1875 
L 4.890625 17.1875 
L 4.890625 26.703125 
z
" id="DejaVuSans-52"/>
       </defs>
       <use xlink:href="#DejaVuSans-48"/>
       <use x="63.623047" xlink:href="#DejaVuSans-46"/>
       <use x="95.410156" xlink:href="#DejaVuSans-52"/>
      </g>
     </g>
    </g>
    <g id="xtick_4">
     <g id="line2d_4">
      <g>
       <use style="stroke:#000000;stroke-width:0.8;" x="183.7825" xlink:href="#m2ac3956942" y="163"/>
      </g>
     </g>
     <g id="text_4">
      <!-- 0.6 -->
      <g transform="translate(175.830937 177.598437)scale(0.1 -0.1)">
       <defs>
        <path d="M 33.015625 40.375 
Q 26.375 40.375 22.484375 35.828125 
Q 18.609375 31.296875 18.609375 23.390625 
Q 18.609375 15.53125 22.484375 10.953125 
Q 26.375 6.390625 33.015625 6.390625 
Q 39.65625 6.390625 43.53125 10.953125 
Q 47.40625 15.53125 47.40625 23.390625 
Q 47.40625 31.296875 43.53125 35.828125 
Q 39.65625 40.375 33.015625 40.375 
z
M 52.59375 71.296875 
L 52.59375 62.3125 
Q 48.875 64.0625 45.09375 64.984375 
Q 41.3125 65.921875 37.59375 65.921875 
Q 27.828125 65.921875 22.671875 59.328125 
Q 17.53125 52.734375 16.796875 39.40625 
Q 19.671875 43.65625 24.015625 45.921875 
Q 28.375 48.1875 33.59375 48.1875 
Q 44.578125 48.1875 50.953125 41.515625 
Q 57.328125 34.859375 57.328125 23.390625 
Q 57.328125 12.15625 50.6875 5.359375 
Q 44.046875 -1.421875 33.015625 -1.421875 
Q 20.359375 -1.421875 13.671875 8.265625 
Q 6.984375 17.96875 6.984375 36.375 
Q 6.984375 53.65625 15.1875 63.9375 
Q 23.390625 74.21875 37.203125 74.21875 
Q 40.921875 74.21875 44.703125 73.484375 
Q 48.484375 72.75 52.59375 71.296875 
z
" id="DejaVuSans-54"/>
       </defs>
       <use xlink:href="#DejaVuSans-48"/>
       <use x="63.623047" xlink:href="#DejaVuSans-46"/>
       <use x="95.410156" xlink:href="#DejaVuSans-54"/>
      </g>
     </g>
    </g>
    <g id="xtick_5">
     <g id="line2d_5">
      <g>
       <use style="stroke:#000000;stroke-width:0.8;" x="216.4625" xlink:href="#m2ac3956942" y="163"/>
      </g>
     </g>
     <g id="text_5">
      <!-- 0.8 -->
      <g transform="translate(208.510938 177.598437)scale(0.1 -0.1)">
       <defs>
        <path d="M 31.78125 34.625 
Q 24.75 34.625 20.71875 30.859375 
Q 16.703125 27.09375 16.703125 20.515625 
Q 16.703125 13.921875 20.71875 10.15625 
Q 24.75 6.390625 31.78125 6.390625 
Q 38.8125 6.390625 42.859375 10.171875 
Q 46.921875 13.96875 46.921875 20.515625 
Q 46.921875 27.09375 42.890625 30.859375 
Q 38.875 34.625 31.78125 34.625 
z
M 21.921875 38.8125 
Q 15.578125 40.375 12.03125 44.71875 
Q 8.5 49.078125 8.5 55.328125 
Q 8.5 64.0625 14.71875 69.140625 
Q 20.953125 74.21875 31.78125 74.21875 
Q 42.671875 74.21875 48.875 69.140625 
Q 55.078125 64.0625 55.078125 55.328125 
Q 55.078125 49.078125 51.53125 44.71875 
Q 48 40.375 41.703125 38.8125 
Q 48.828125 37.15625 52.796875 32.3125 
Q 56.78125 27.484375 56.78125 20.515625 
Q 56.78125 9.90625 50.3125 4.234375 
Q 43.84375 -1.421875 31.78125 -1.421875 
Q 19.734375 -1.421875 13.25 4.234375 
Q 6.78125 9.90625 6.78125 20.515625 
Q 6.78125 27.484375 10.78125 32.3125 
Q 14.796875 37.15625 21.921875 38.8125 
z
M 18.3125 54.390625 
Q 18.3125 48.734375 21.84375 45.5625 
Q 25.390625 42.390625 31.78125 42.390625 
Q 38.140625 42.390625 41.71875 45.5625 
Q 45.3125 48.734375 45.3125 54.390625 
Q 45.3125 60.0625 41.71875 63.234375 
Q 38.140625 66.40625 31.78125 66.40625 
Q 25.390625 66.40625 21.84375 63.234375 
Q 18.3125 60.0625 18.3125 54.390625 
z
" id="DejaVuSans-56"/>
       </defs>
       <use xlink:href="#DejaVuSans-48"/>
       <use x="63.623047" xlink:href="#DejaVuSans-46"/>
       <use x="95.410156" xlink:href="#DejaVuSans-56"/>
      </g>
     </g>
    </g>
    <g id="xtick_6">
     <g id="line2d_6">
      <g>
       <use style="stroke:#000000;stroke-width:0.8;" x="249.1425" xlink:href="#m2ac3956942" y="163"/>
      </g>
     </g>
     <g id="text_6">
      <!-- 1.0 -->
      <g transform="translate(241.190937 177.598437)scale(0.1 -0.1)">
       <defs>
        <path d="M 12.40625 8.296875 
L 28.515625 8.296875 
L 28.515625 63.921875 
L 10.984375 60.40625 
L 10.984375 69.390625 
L 28.421875 72.90625 
L 38.28125 72.90625 
L 38.28125 8.296875 
L 54.390625 8.296875 
L 54.390625 0 
L 12.40625 0 
z
" id="DejaVuSans-49"/>
       </defs>
       <use xlink:href="#DejaVuSans-49"/>
       <use x="63.623047" xlink:href="#DejaVuSans-46"/>
       <use x="95.410156" xlink:href="#DejaVuSans-48"/>
      </g>
     </g>
    </g>
   </g>
   <g id="matplotlib.axis_2">
    <g id="ytick_1">
     <g id="line2d_7">
      <defs>
       <path d="M 0 0 
L -3.5 0 
" id="mec875f6ac5" style="stroke:#000000;stroke-width:0.8;"/>
      </defs>
      <g>
       <use style="stroke:#000000;stroke-width:0.8;" x="85.7425" xlink:href="#mec875f6ac5" y="163"/>
      </g>
     </g>
     <g id="text_7">
      <!-- 0.0 -->
      <g transform="translate(62.839375 166.799219)scale(0.1 -0.1)">
       <use xlink:href="#DejaVuSans-48"/>
       <use x="63.623047" xlink:href="#DejaVuSans-46"/>
       <use x="95.410156" xlink:href="#DejaVuSans-48"/>
      </g>
     </g>
    </g>
    <g id="ytick_2">
     <g id="line2d_8">
      <g>
       <use style="stroke:#000000;stroke-width:0.8;" x="85.7425" xlink:href="#mec875f6ac5" y="143.08"/>
      </g>
     </g>
     <g id="text_8">
      <!-- 0.2 -->
      <g transform="translate(62.839375 146.879219)scale(0.1 -0.1)">
       <use xlink:href="#DejaVuSans-48"/>
       <use x="63.623047" xlink:href="#DejaVuSans-46"/>
       <use x="95.410156" xlink:href="#DejaVuSans-50"/>
      </g>
     </g>
    </g>
    <g id="ytick_3">
     <g id="line2d_9">
      <g>
       <use style="stroke:#000000;stroke-width:0.8;" x="85.7425" xlink:href="#mec875f6ac5" y="123.16"/>
      </g>
     </g>
     <g id="text_9">
      <!-- 0.4 -->
      <g transform="translate(62.839375 126.959219)scale(0.1 -0.1)">
       <use xlink:href="#DejaVuSans-48"/>
       <use x="63.623047" xlink:href="#DejaVuSans-46"/>
       <use x="95.410156" xlink:href="#DejaVuSans-52"/>
      </g>
     </g>
    </g>
    <g id="ytick_4">
     <g id="line2d_10">
      <g>
       <use style="stroke:#000000;stroke-width:0.8;" x="85.7425" xlink:href="#mec875f6ac5" y="103.24"/>
      </g>
     </g>
     <g id="text_10">
      <!-- 0.6 -->
      <g transform="translate(62.839375 107.039219)scale(0.1 -0.1)">
       <use xlink:href="#DejaVuSans-48"/>
       <use x="63.623047" xlink:href="#DejaVuSans-46"/>
       <use x="95.410156" xlink:href="#DejaVuSans-54"/>
      </g>
     </g>
    </g>
    <g id="ytick_5">
     <g id="line2d_11">
      <g>
       <use style="stroke:#000000;stroke-width:0.8;" x="85.7425" xlink:href="#mec875f6ac5" y="83.32"/>
      </g>
     </g>
     <g id="text_11">
      <!-- 0.8 -->
      <g transform="translate(62.839375 87.119219)scale(0.1 -0.1)">
       <use xlink:href="#DejaVuSans-48"/>
       <use x="63.623047" xlink:href="#DejaVuSans-46"/>
       <use x="95.410156" xlink:href="#DejaVuSans-56"/>
      </g>
     </g>
    </g>
    <g id="ytick_6">
     <g id="line2d_12">
      <g>
       <use style="stroke:#000000;stroke-width:0.8;" x="85.7425" xlink:href="#mec875f6ac5" y="63.4"/>
      </g>
     </g>
     <g id="text_12">
      <!-- 1.0 -->
      <g transform="translate(62.839375 67.199219)scale(0.1 -0.1)">
       <use xlink:href="#DejaVuSans-49"/>
       <use x="63.623047" xlink:href="#DejaVuSans-46"/>
       <use x="95.410156" xlink:href="#DejaVuSans-48"/>
      </g>
     </g>
    </g>
   </g>
   <g id="line2d_13">
    <path clip-path="url(#pc2268318cd)" d="M 96.124715 156.670922 
L 97.522388 155.818995 
L 98.92006 154.967068 
L 100.317732 154.115141 
L 101.715405 153.263213 
L 103.113077 152.411286 
L 104.510749 151.559359 
L 105.908422 150.707432 
L 107.306094 149.855505 
L 108.703766 149.003578 
L 110.101438 148.151651 
L 111.499111 147.299724 
L 112.896783 146.447797 
L 114.294455 145.59587 
L 115.692128 144.743943 
L 117.0898 143.892016 
L 118.487472 143.040089 
L 119.885144 142.188162 
L 121.282817 141.336234 
L 122.680489 140.484307 
L 124.078161 139.63238 
L 125.475834 138.780453 
L 126.873506 137.928526 
L 128.271178 137.076599 
L 129.66885 136.224672 
L 131.066523 135.372745 
L 132.464195 134.520818 
L 133.861867 133.668891 
L 135.25954 132.816964 
L 136.657212 131.965037 
L 138.054884 131.11311 
L 139.452556 130.261183 
L 140.850229 129.409256 
L 142.247901 128.557328 
L 143.645573 127.705401 
L 145.043246 126.853474 
L 146.440918 126.001547 
L 147.83859 125.14962 
L 149.236262 124.297693 
L 150.633935 123.445766 
L 152.031607 122.593839 
L 153.429279 121.741912 
L 154.826952 120.889985 
L 156.224624 120.038058 
L 157.622296 119.186131 
L 159.019969 118.334204 
L 160.417641 117.482277 
L 161.815313 116.63035 
L 163.212985 115.778422 
L 164.610658 114.926495 
L 166.00833 114.074568 
L 167.406002 113.222641 
L 168.803675 112.370714 
L 170.201347 111.518787 
L 171.599019 110.66686 
L 172.996691 109.814933 
L 174.394364 108.963006 
L 175.792036 108.111079 
L 177.189708 107.259152 
L 178.587381 106.407225 
L 179.985053 105.555298 
L 181.382725 104.703371 
L 182.780397 103.851443 
L 184.17807 102.999516 
L 185.575742 102.147589 
L 186.973414 101.295662 
L 188.371087 100.443735 
L 189.768759 99.591808 
L 191.166431 98.739881 
L 192.564103 97.887954 
L 193.961776 97.036027 
L 195.359448 96.1841 
L 196.75712 95.332173 
L 198.154793 94.480246 
L 199.552465 93.628319 
L 200.950137 92.776392 
L 202.347809 91.924465 
L 203.745482 91.072537 
L 205.143154 90.22061 
L 206.540826 89.368683 
L 207.938499 88.516756 
L 209.336171 87.664829 
L 210.733843 86.812902 
L 212.131516 85.960975 
L 213.529188 85.109048 
L 214.92686 84.257121 
L 216.324532 83.405194 
L 217.722205 82.553267 
L 219.119877 81.70134 
L 220.517549 80.849413 
L 221.915222 79.997486 
L 223.312894 79.145558 
L 224.710566 78.293631 
L 226.108238 77.441704 
L 227.505911 76.589777 
L 228.903583 75.73785 
L 230.301255 74.885923 
L 231.698928 74.033996 
L 233.0966 73.182069 
L 234.494272 72.330142 
" style="fill:none;stroke:#000000;stroke-linecap:square;stroke-width:2.25;"/>
   </g>
   <g id="patch_3">
    <path d="M 85.7425 163 
L 85.7425 63.4 
" style="fill:none;stroke:#000000;stroke-linecap:square;stroke-linejoin:miter;stroke-width:0.8;"/>
   </g>
   <g id="patch_4">
    <path d="M 249.1425 163 
L 249.1425 63.4 
" style="fill:none;stroke:#000000;stroke-linecap:square;stroke-linejoin:miter;stroke-width:0.8;"/>
   </g>
   <g id="patch_5">
    <path d="M 85.7425 163 
L 249.1425 163 
" style="fill:none;stroke:#000000;stroke-linecap:square;stroke-linejoin:miter;stroke-width:0.8;"/>
   </g>
   <g id="patch_6">
    <path d="M 85.7425 63.4 
L 249.1425 63.4 
" style="fill:none;stroke:#000000;stroke-linecap:square;stroke-linejoin:miter;stroke-width:0.8;"/>
   </g>
   <g id="text_13">
    <!-- 1st-Order Occasion Setting -->
    <g transform="translate(86.203437 57.4)scale(0.12 -0.12)">
     <defs>
      <path d="M 44.28125 53.078125 
L 44.28125 44.578125 
Q 40.484375 46.53125 36.375 47.5 
Q 32.28125 48.484375 27.875 48.484375 
Q 21.1875 48.484375 17.84375 46.4375 
Q 14.5 44.390625 14.5 40.28125 
Q 14.5 37.15625 16.890625 35.375 
Q 19.28125 33.59375 26.515625 31.984375 
L 29.59375 31.296875 
Q 39.15625 29.25 43.1875 25.515625 
Q 47.21875 21.78125 47.21875 15.09375 
Q 47.21875 7.46875 41.1875 3.015625 
Q 35.15625 -1.421875 24.609375 -1.421875 
Q 20.21875 -1.421875 15.453125 -0.5625 
Q 10.6875 0.296875 5.421875 2 
L 5.421875 11.28125 
Q 10.40625 8.6875 15.234375 7.390625 
Q 20.0625 6.109375 24.8125 6.109375 
Q 31.15625 6.109375 34.5625 8.28125 
Q 37.984375 10.453125 37.984375 14.40625 
Q 37.984375 18.0625 35.515625 20.015625 
Q 33.0625 21.96875 24.703125 23.78125 
L 21.578125 24.515625 
Q 13.234375 26.265625 9.515625 29.90625 
Q 5.8125 33.546875 5.8125 39.890625 
Q 5.8125 47.609375 11.28125 51.796875 
Q 16.75 56 26.8125 56 
Q 31.78125 56 36.171875 55.265625 
Q 40.578125 54.546875 44.28125 53.078125 
z
" id="DejaVuSans-115"/>
      <path d="M 18.3125 70.21875 
L 18.3125 54.6875 
L 36.8125 54.6875 
L 36.8125 47.703125 
L 18.3125 47.703125 
L 18.3125 18.015625 
Q 18.3125 11.328125 20.140625 9.421875 
Q 21.96875 7.515625 27.59375 7.515625 
L 36.8125 7.515625 
L 36.8125 0 
L 27.59375 0 
Q 17.1875 0 13.234375 3.875 
Q 9.28125 7.765625 9.28125 18.015625 
L 9.28125 47.703125 
L 2.6875 47.703125 
L 2.6875 54.6875 
L 9.28125 54.6875 
L 9.28125 70.21875 
z
" id="DejaVuSans-116"/>
      <path d="M 4.890625 31.390625 
L 31.203125 31.390625 
L 31.203125 23.390625 
L 4.890625 23.390625 
z
" id="DejaVuSans-45"/>
      <path d="M 39.40625 66.21875 
Q 28.65625 66.21875 22.328125 58.203125 
Q 16.015625 50.203125 16.015625 36.375 
Q 16.015625 22.609375 22.328125 14.59375 
Q 28.65625 6.59375 39.40625 6.59375 
Q 50.140625 6.59375 56.421875 14.59375 
Q 62.703125 22.609375 62.703125 36.375 
Q 62.703125 50.203125 56.421875 58.203125 
Q 50.140625 66.21875 39.40625 66.21875 
z
M 39.40625 74.21875 
Q 54.734375 74.21875 63.90625 63.9375 
Q 73.09375 53.65625 73.09375 36.375 
Q 73.09375 19.140625 63.90625 8.859375 
Q 54.734375 -1.421875 39.40625 -1.421875 
Q 24.03125 -1.421875 14.8125 8.828125 
Q 5.609375 19.09375 5.609375 36.375 
Q 5.609375 53.65625 14.8125 63.9375 
Q 24.03125 74.21875 39.40625 74.21875 
z
" id="DejaVuSans-79"/>
      <path d="M 41.109375 46.296875 
Q 39.59375 47.171875 37.8125 47.578125 
Q 36.03125 48 33.890625 48 
Q 26.265625 48 22.1875 43.046875 
Q 18.109375 38.09375 18.109375 28.8125 
L 18.109375 0 
L 9.078125 0 
L 9.078125 54.6875 
L 18.109375 54.6875 
L 18.109375 46.1875 
Q 20.953125 51.171875 25.484375 53.578125 
Q 30.03125 56 36.53125 56 
Q 37.453125 56 38.578125 55.875 
Q 39.703125 55.765625 41.0625 55.515625 
z
" id="DejaVuSans-114"/>
      <path d="M 45.40625 46.390625 
L 45.40625 75.984375 
L 54.390625 75.984375 
L 54.390625 0 
L 45.40625 0 
L 45.40625 8.203125 
Q 42.578125 3.328125 38.25 0.953125 
Q 33.9375 -1.421875 27.875 -1.421875 
Q 17.96875 -1.421875 11.734375 6.484375 
Q 5.515625 14.40625 5.515625 27.296875 
Q 5.515625 40.1875 11.734375 48.09375 
Q 17.96875 56 27.875 56 
Q 33.9375 56 38.25 53.625 
Q 42.578125 51.265625 45.40625 46.390625 
z
M 14.796875 27.296875 
Q 14.796875 17.390625 18.875 11.75 
Q 22.953125 6.109375 30.078125 6.109375 
Q 37.203125 6.109375 41.296875 11.75 
Q 45.40625 17.390625 45.40625 27.296875 
Q 45.40625 37.203125 41.296875 42.84375 
Q 37.203125 48.484375 30.078125 48.484375 
Q 22.953125 48.484375 18.875 42.84375 
Q 14.796875 37.203125 14.796875 27.296875 
z
" id="DejaVuSans-100"/>
      <path d="M 56.203125 29.59375 
L 56.203125 25.203125 
L 14.890625 25.203125 
Q 15.484375 15.921875 20.484375 11.0625 
Q 25.484375 6.203125 34.421875 6.203125 
Q 39.59375 6.203125 44.453125 7.46875 
Q 49.3125 8.734375 54.109375 11.28125 
L 54.109375 2.78125 
Q 49.265625 0.734375 44.1875 -0.34375 
Q 39.109375 -1.421875 33.890625 -1.421875 
Q 20.796875 -1.421875 13.15625 6.1875 
Q 5.515625 13.8125 5.515625 26.8125 
Q 5.515625 40.234375 12.765625 48.109375 
Q 20.015625 56 32.328125 56 
Q 43.359375 56 49.78125 48.890625 
Q 56.203125 41.796875 56.203125 29.59375 
z
M 47.21875 32.234375 
Q 47.125 39.59375 43.09375 43.984375 
Q 39.0625 48.390625 32.421875 48.390625 
Q 24.90625 48.390625 20.390625 44.140625 
Q 15.875 39.890625 15.1875 32.171875 
z
" id="DejaVuSans-101"/>
      <path id="DejaVuSans-32"/>
      <path d="M 48.78125 52.59375 
L 48.78125 44.1875 
Q 44.96875 46.296875 41.140625 47.34375 
Q 37.3125 48.390625 33.40625 48.390625 
Q 24.65625 48.390625 19.8125 42.84375 
Q 14.984375 37.3125 14.984375 27.296875 
Q 14.984375 17.28125 19.8125 11.734375 
Q 24.65625 6.203125 33.40625 6.203125 
Q 37.3125 6.203125 41.140625 7.25 
Q 44.96875 8.296875 48.78125 10.40625 
L 48.78125 2.09375 
Q 45.015625 0.34375 40.984375 -0.53125 
Q 36.96875 -1.421875 32.421875 -1.421875 
Q 20.0625 -1.421875 12.78125 6.34375 
Q 5.515625 14.109375 5.515625 27.296875 
Q 5.515625 40.671875 12.859375 48.328125 
Q 20.21875 56 33.015625 56 
Q 37.15625 56 41.109375 55.140625 
Q 45.0625 54.296875 48.78125 52.59375 
z
" id="DejaVuSans-99"/>
      <path d="M 34.28125 27.484375 
Q 23.390625 27.484375 19.1875 25 
Q 14.984375 22.515625 14.984375 16.5 
Q 14.984375 11.71875 18.140625 8.90625 
Q 21.296875 6.109375 26.703125 6.109375 
Q 34.1875 6.109375 38.703125 11.40625 
Q 43.21875 16.703125 43.21875 25.484375 
L 43.21875 27.484375 
z
M 52.203125 31.203125 
L 52.203125 0 
L 43.21875 0 
L 43.21875 8.296875 
Q 40.140625 3.328125 35.546875 0.953125 
Q 30.953125 -1.421875 24.3125 -1.421875 
Q 15.921875 -1.421875 10.953125 3.296875 
Q 6 8.015625 6 15.921875 
Q 6 25.140625 12.171875 29.828125 
Q 18.359375 34.515625 30.609375 34.515625 
L 43.21875 34.515625 
L 43.21875 35.40625 
Q 43.21875 41.609375 39.140625 45 
Q 35.0625 48.390625 27.6875 48.390625 
Q 23 48.390625 18.546875 47.265625 
Q 14.109375 46.140625 10.015625 43.890625 
L 10.015625 52.203125 
Q 14.9375 54.109375 19.578125 55.046875 
Q 24.21875 56 28.609375 56 
Q 40.484375 56 46.34375 49.84375 
Q 52.203125 43.703125 52.203125 31.203125 
z
" id="DejaVuSans-97"/>
      <path d="M 9.421875 54.6875 
L 18.40625 54.6875 
L 18.40625 0 
L 9.421875 0 
z
M 9.421875 75.984375 
L 18.40625 75.984375 
L 18.40625 64.59375 
L 9.421875 64.59375 
z
" id="DejaVuSans-105"/>
      <path d="M 30.609375 48.390625 
Q 23.390625 48.390625 19.1875 42.75 
Q 14.984375 37.109375 14.984375 27.296875 
Q 14.984375 17.484375 19.15625 11.84375 
Q 23.34375 6.203125 30.609375 6.203125 
Q 37.796875 6.203125 41.984375 11.859375 
Q 46.1875 17.53125 46.1875 27.296875 
Q 46.1875 37.015625 41.984375 42.703125 
Q 37.796875 48.390625 30.609375 48.390625 
z
M 30.609375 56 
Q 42.328125 56 49.015625 48.375 
Q 55.71875 40.765625 55.71875 27.296875 
Q 55.71875 13.875 49.015625 6.21875 
Q 42.328125 -1.421875 30.609375 -1.421875 
Q 18.84375 -1.421875 12.171875 6.21875 
Q 5.515625 13.875 5.515625 27.296875 
Q 5.515625 40.765625 12.171875 48.375 
Q 18.84375 56 30.609375 56 
z
" id="DejaVuSans-111"/>
      <path d="M 54.890625 33.015625 
L 54.890625 0 
L 45.90625 0 
L 45.90625 32.71875 
Q 45.90625 40.484375 42.875 44.328125 
Q 39.84375 48.1875 33.796875 48.1875 
Q 26.515625 48.1875 22.3125 43.546875 
Q 18.109375 38.921875 18.109375 30.90625 
L 18.109375 0 
L 9.078125 0 
L 9.078125 54.6875 
L 18.109375 54.6875 
L 18.109375 46.1875 
Q 21.34375 51.125 25.703125 53.5625 
Q 30.078125 56 35.796875 56 
Q 45.21875 56 50.046875 50.171875 
Q 54.890625 44.34375 54.890625 33.015625 
z
" id="DejaVuSans-110"/>
      <path d="M 53.515625 70.515625 
L 53.515625 60.890625 
Q 47.90625 63.578125 42.921875 64.890625 
Q 37.9375 66.21875 33.296875 66.21875 
Q 25.25 66.21875 20.875 63.09375 
Q 16.5 59.96875 16.5 54.203125 
Q 16.5 49.359375 19.40625 46.890625 
Q 22.3125 44.4375 30.421875 42.921875 
L 36.375 41.703125 
Q 47.40625 39.59375 52.65625 34.296875 
Q 57.90625 29 57.90625 20.125 
Q 57.90625 9.515625 50.796875 4.046875 
Q 43.703125 -1.421875 29.984375 -1.421875 
Q 24.8125 -1.421875 18.96875 -0.25 
Q 13.140625 0.921875 6.890625 3.21875 
L 6.890625 13.375 
Q 12.890625 10.015625 18.65625 8.296875 
Q 24.421875 6.59375 29.984375 6.59375 
Q 38.421875 6.59375 43.015625 9.90625 
Q 47.609375 13.234375 47.609375 19.390625 
Q 47.609375 24.75 44.3125 27.78125 
Q 41.015625 30.8125 33.5 32.328125 
L 27.484375 33.5 
Q 16.453125 35.6875 11.515625 40.375 
Q 6.59375 45.0625 6.59375 53.421875 
Q 6.59375 63.09375 13.40625 68.65625 
Q 20.21875 74.21875 32.171875 74.21875 
Q 37.3125 74.21875 42.625 73.28125 
Q 47.953125 72.359375 53.515625 70.515625 
z
" id="DejaVuSans-83"/>
      <path d="M 45.40625 27.984375 
Q 45.40625 37.75 41.375 43.109375 
Q 37.359375 48.484375 30.078125 48.484375 
Q 22.859375 48.484375 18.828125 43.109375 
Q 14.796875 37.75 14.796875 27.984375 
Q 14.796875 18.265625 18.828125 12.890625 
Q 22.859375 7.515625 30.078125 7.515625 
Q 37.359375 7.515625 41.375 12.890625 
Q 45.40625 18.265625 45.40625 27.984375 
z
M 54.390625 6.78125 
Q 54.390625 -7.171875 48.1875 -13.984375 
Q 42 -20.796875 29.203125 -20.796875 
Q 24.46875 -20.796875 20.265625 -20.09375 
Q 16.0625 -19.390625 12.109375 -17.921875 
L 12.109375 -9.1875 
Q 16.0625 -11.328125 19.921875 -12.34375 
Q 23.78125 -13.375 27.78125 -13.375 
Q 36.625 -13.375 41.015625 -8.765625 
Q 45.40625 -4.15625 45.40625 5.171875 
L 45.40625 9.625 
Q 42.625 4.78125 38.28125 2.390625 
Q 33.9375 0 27.875 0 
Q 17.828125 0 11.671875 7.65625 
Q 5.515625 15.328125 5.515625 27.984375 
Q 5.515625 40.671875 11.671875 48.328125 
Q 17.828125 56 27.875 56 
Q 33.9375 56 38.28125 53.609375 
Q 42.625 51.21875 45.40625 46.390625 
L 45.40625 54.6875 
L 54.390625 54.6875 
z
" id="DejaVuSans-103"/>
     </defs>
     <use xlink:href="#DejaVuSans-49"/>
     <use x="63.623047" xlink:href="#DejaVuSans-115"/>
     <use x="115.722656" xlink:href="#DejaVuSans-116"/>
     <use x="154.931641" xlink:href="#DejaVuSans-45"/>
     <use x="193.765625" xlink:href="#DejaVuSans-79"/>
     <use x="272.476562" xlink:href="#DejaVuSans-114"/>
     <use x="311.839844" xlink:href="#DejaVuSans-100"/>
     <use x="375.316406" xlink:href="#DejaVuSans-101"/>
     <use x="436.839844" xlink:href="#DejaVuSans-114"/>
     <use x="477.953125" xlink:href="#DejaVuSans-32"/>
     <use x="509.740234" xlink:href="#DejaVuSans-79"/>
     <use x="588.451172" xlink:href="#DejaVuSans-99"/>
     <use x="643.431641" xlink:href="#DejaVuSans-99"/>
     <use x="698.412109" xlink:href="#DejaVuSans-97"/>
     <use x="759.691406" xlink:href="#DejaVuSans-115"/>
     <use x="811.791016" xlink:href="#DejaVuSans-105"/>
     <use x="839.574219" xlink:href="#DejaVuSans-111"/>
     <use x="900.755859" xlink:href="#DejaVuSans-110"/>
     <use x="964.134766" xlink:href="#DejaVuSans-32"/>
     <use x="995.921875" xlink:href="#DejaVuSans-83"/>
     <use x="1059.398438" xlink:href="#DejaVuSans-101"/>
     <use x="1120.921875" xlink:href="#DejaVuSans-116"/>
     <use x="1160.130859" xlink:href="#DejaVuSans-116"/>
     <use x="1199.339844" xlink:href="#DejaVuSans-105"/>
     <use x="1227.123047" xlink:href="#DejaVuSans-110"/>
     <use x="1290.501953" xlink:href="#DejaVuSans-103"/>
    </g>
   </g>
  </g>
  <g id="text_14">
   <!-- Simulated vs Recovered α Parameters -->
   <g transform="translate(7.2 19.3575)scale(0.16 -0.16)">
    <defs>
     <path d="M 52 44.1875 
Q 55.375 50.25 60.0625 53.125 
Q 64.75 56 71.09375 56 
Q 79.640625 56 84.28125 50.015625 
Q 88.921875 44.046875 88.921875 33.015625 
L 88.921875 0 
L 79.890625 0 
L 79.890625 32.71875 
Q 79.890625 40.578125 77.09375 44.375 
Q 74.3125 48.1875 68.609375 48.1875 
Q 61.625 48.1875 57.5625 43.546875 
Q 53.515625 38.921875 53.515625 30.90625 
L 53.515625 0 
L 44.484375 0 
L 44.484375 32.71875 
Q 44.484375 40.625 41.703125 44.40625 
Q 38.921875 48.1875 33.109375 48.1875 
Q 26.21875 48.1875 22.15625 43.53125 
Q 18.109375 38.875 18.109375 30.90625 
L 18.109375 0 
L 9.078125 0 
L 9.078125 54.6875 
L 18.109375 54.6875 
L 18.109375 46.1875 
Q 21.1875 51.21875 25.484375 53.609375 
Q 29.78125 56 35.6875 56 
Q 41.65625 56 45.828125 52.96875 
Q 50 49.953125 52 44.1875 
z
" id="DejaVuSans-109"/>
     <path d="M 8.5 21.578125 
L 8.5 54.6875 
L 17.484375 54.6875 
L 17.484375 21.921875 
Q 17.484375 14.15625 20.5 10.265625 
Q 23.53125 6.390625 29.59375 6.390625 
Q 36.859375 6.390625 41.078125 11.03125 
Q 45.3125 15.671875 45.3125 23.6875 
L 45.3125 54.6875 
L 54.296875 54.6875 
L 54.296875 0 
L 45.3125 0 
L 45.3125 8.40625 
Q 42.046875 3.421875 37.71875 1 
Q 33.40625 -1.421875 27.6875 -1.421875 
Q 18.265625 -1.421875 13.375 4.4375 
Q 8.5 10.296875 8.5 21.578125 
z
M 31.109375 56 
z
" id="DejaVuSans-117"/>
     <path d="M 9.421875 75.984375 
L 18.40625 75.984375 
L 18.40625 0 
L 9.421875 0 
z
" id="DejaVuSans-108"/>
     <path d="M 2.984375 54.6875 
L 12.5 54.6875 
L 29.59375 8.796875 
L 46.6875 54.6875 
L 56.203125 54.6875 
L 35.6875 0 
L 23.484375 0 
z
" id="DejaVuSans-118"/>
     <path d="M 44.390625 34.1875 
Q 47.5625 33.109375 50.5625 29.59375 
Q 53.5625 26.078125 56.59375 19.921875 
L 66.609375 0 
L 56 0 
L 46.6875 18.703125 
Q 43.0625 26.03125 39.671875 28.421875 
Q 36.28125 30.8125 30.421875 30.8125 
L 19.671875 30.8125 
L 19.671875 0 
L 9.8125 0 
L 9.8125 72.90625 
L 32.078125 72.90625 
Q 44.578125 72.90625 50.734375 67.671875 
Q 56.890625 62.453125 56.890625 51.90625 
Q 56.890625 45.015625 53.6875 40.46875 
Q 50.484375 35.9375 44.390625 34.1875 
z
M 19.671875 64.796875 
L 19.671875 38.921875 
L 32.078125 38.921875 
Q 39.203125 38.921875 42.84375 42.21875 
Q 46.484375 45.515625 46.484375 51.90625 
Q 46.484375 58.296875 42.84375 61.546875 
Q 39.203125 64.796875 32.078125 64.796875 
z
" id="DejaVuSans-82"/>
     <path d="M 41.3125 25.4375 
L 39.15625 36.71875 
Q 36.96875 48.296875 28.265625 48.296875 
Q 21.734375 48.296875 18.75 42.921875 
Q 14.984375 36.1875 14.984375 27.296875 
Q 14.984375 16.546875 18.65625 11.421875 
Q 22.359375 6.203125 28.265625 6.203125 
Q 34.8125 6.203125 38.328125 16.609375 
z
M 46.34375 40.375 
L 51.171875 54.6875 
L 59.1875 54.6875 
L 49.171875 25.046875 
L 51.125 14.359375 
Q 51.5625 11.96875 53.265625 9.96875 
Q 55.28125 7.625 56.84375 7.625 
L 61.140625 7.625 
L 61.140625 0 
L 55.765625 0 
Q 51.171875 0 47.078125 4.109375 
Q 45.0625 6.15625 44.234375 10.453125 
Q 42 5.03125 37.40625 0.78125 
Q 35.25 -1.21875 28.265625 -1.21875 
Q 16.796875 -1.21875 11.234375 6.203125 
Q 5.515625 13.875 5.515625 27.296875 
Q 5.515625 41.65625 11.71875 48.390625 
Q 18.609375 55.90625 28.265625 55.90625 
Q 43.453125 55.90625 46.34375 40.375 
z
" id="DejaVuSans-945"/>
     <path d="M 19.671875 64.796875 
L 19.671875 37.40625 
L 32.078125 37.40625 
Q 38.96875 37.40625 42.71875 40.96875 
Q 46.484375 44.53125 46.484375 51.125 
Q 46.484375 57.671875 42.71875 61.234375 
Q 38.96875 64.796875 32.078125 64.796875 
z
M 9.8125 72.90625 
L 32.078125 72.90625 
Q 44.34375 72.90625 50.609375 67.359375 
Q 56.890625 61.8125 56.890625 51.125 
Q 56.890625 40.328125 50.609375 34.8125 
Q 44.34375 29.296875 32.078125 29.296875 
L 19.671875 29.296875 
L 19.671875 0 
L 9.8125 0 
z
" id="DejaVuSans-80"/>
    </defs>
    <use xlink:href="#DejaVuSans-83"/>
    <use x="63.476562" xlink:href="#DejaVuSans-105"/>
    <use x="91.259766" xlink:href="#DejaVuSans-109"/>
    <use x="188.671875" xlink:href="#DejaVuSans-117"/>
    <use x="252.050781" xlink:href="#DejaVuSans-108"/>
    <use x="279.833984" xlink:href="#DejaVuSans-97"/>
    <use x="341.113281" xlink:href="#DejaVuSans-116"/>
    <use x="380.322266" xlink:href="#DejaVuSans-101"/>
    <use x="441.845703" xlink:href="#DejaVuSans-100"/>
    <use x="505.322266" xlink:href="#DejaVuSans-32"/>
    <use x="537.109375" xlink:href="#DejaVuSans-118"/>
    <use x="596.289062" xlink:href="#DejaVuSans-115"/>
    <use x="648.388672" xlink:href="#DejaVuSans-32"/>
    <use x="680.175781" xlink:href="#DejaVuSans-82"/>
    <use x="745.158203" xlink:href="#DejaVuSans-101"/>
    <use x="806.681641" xlink:href="#DejaVuSans-99"/>
    <use x="861.662109" xlink:href="#DejaVuSans-111"/>
    <use x="922.84375" xlink:href="#DejaVuSans-118"/>
    <use x="982.023438" xlink:href="#DejaVuSans-101"/>
    <use x="1043.546875" xlink:href="#DejaVuSans-114"/>
    <use x="1082.410156" xlink:href="#DejaVuSans-101"/>
    <use x="1143.933594" xlink:href="#DejaVuSans-100"/>
    <use x="1207.410156" xlink:href="#DejaVuSans-32"/>
    <use x="1239.197266" xlink:href="#DejaVuSans-945"/>
    <use x="1305.115234" xlink:href="#DejaVuSans-32"/>
    <use x="1336.902344" xlink:href="#DejaVuSans-80"/>
    <use x="1392.705078" xlink:href="#DejaVuSans-97"/>
    <use x="1453.984375" xlink:href="#DejaVuSans-114"/>
    <use x="1495.097656" xlink:href="#DejaVuSans-97"/>
    <use x="1556.376953" xlink:href="#DejaVuSans-109"/>
    <use x="1653.789062" xlink:href="#DejaVuSans-101"/>
    <use x="1715.3125" xlink:href="#DejaVuSans-116"/>
    <use x="1754.521484" xlink:href="#DejaVuSans-101"/>
    <use x="1816.044922" xlink:href="#DejaVuSans-114"/>
    <use x="1857.158203" xlink:href="#DejaVuSans-115"/>
   </g>
  </g>
  <g id="text_15">
   <!-- Simulated α -->
   <g transform="translate(111.7 198.815)scale(0.16 -0.16)">
    <use xlink:href="#DejaVuSans-83"/>
    <use x="63.476562" xlink:href="#DejaVuSans-105"/>
    <use x="91.259766" xlink:href="#DejaVuSans-109"/>
    <use x="188.671875" xlink:href="#DejaVuSans-117"/>
    <use x="252.050781" xlink:href="#DejaVuSans-108"/>
    <use x="279.833984" xlink:href="#DejaVuSans-97"/>
    <use x="341.113281" xlink:href="#DejaVuSans-116"/>
    <use x="380.322266" xlink:href="#DejaVuSans-101"/>
    <use x="441.845703" xlink:href="#DejaVuSans-100"/>
    <use x="505.322266" xlink:href="#DejaVuSans-32"/>
    <use x="537.109375" xlink:href="#DejaVuSans-945"/>
   </g>
  </g>
  <g id="text_16">
   <!-- Recovered α -->
   <g transform="translate(52.0375 150.79875)rotate(-90)scale(0.16 -0.16)">
    <use xlink:href="#DejaVuSans-82"/>
    <use x="64.982422" xlink:href="#DejaVuSans-101"/>
    <use x="126.505859" xlink:href="#DejaVuSans-99"/>
    <use x="181.486328" xlink:href="#DejaVuSans-111"/>
    <use x="242.667969" xlink:href="#DejaVuSans-118"/>
    <use x="301.847656" xlink:href="#DejaVuSans-101"/>
    <use x="363.371094" xlink:href="#DejaVuSans-114"/>
    <use x="402.234375" xlink:href="#DejaVuSans-101"/>
    <use x="463.757812" xlink:href="#DejaVuSans-100"/>
    <use x="527.234375" xlink:href="#DejaVuSans-32"/>
    <use x="559.021484" xlink:href="#DejaVuSans-945"/>
   </g>
  </g>
 </g>
 <defs>
  <clipPath id="pc2268318cd">
   <rect height="99.6" width="163.4" x="85.7425" y="63.4"/>
  </clipPath>
 </defs>
</svg>
