<?xml version="1.0" encoding="utf-8" standalone="no"?>
<!DOCTYPE svg PUBLIC "-//W3C//DTD SVG 1.1//EN"
  "http://www.w3.org/Graphics/SVG/1.1/DTD/svg11.dtd">
<!-- Created with matplotlib (https://matplotlib.org/) -->
<svg height="209.3425pt" version="1.1" viewBox="0 0 319.885 209.3425" width="319.885pt" xmlns="http://www.w3.org/2000/svg" xmlns:xlink="http://www.w3.org/1999/xlink">
 <metadata>
  <rdf:RDF xmlns:cc="http://creativecommons.org/ns#" xmlns:dc="http://purl.org/dc/elements/1.1/" xmlns:rdf="http://www.w3.org/1999/02/22-rdf-syntax-ns#">
   <cc:Work>
    <dc:type rdf:resource="http://purl.org/dc/dcmitype/StillImage"/>
    <dc:date>2021-07-10T14:16:23.713428</dc:date>
    <dc:format>image/svg+xml</dc:format>
    <dc:creator>
     <cc:Agent>
      <dc:title>Matplotlib v3.3.2, https://matplotlib.org/</dc:title>
     </cc:Agent>
    </dc:creator>
   </cc:Work>
  </rdf:RDF>
 </metadata>
 <defs>
  <style type="text/css">*{stroke-linecap:butt;stroke-linejoin:round;}</style>
 </defs>
 <g id="figure_1">
  <g id="patch_1">
   <path d="M 0 209.3425 
L 319.885 209.3425 
L 319.885 0 
L 0 0 
z
" style="fill:none;"/>
  </g>
  <g id="axes_1">
   <g id="patch_2">
    <path d="M 85.7425 163 
L 249.1425 163 
L 249.1425 63.4 
L 85.7425 63.4 
z
" style="fill:#ffffff;"/>
   </g>
   <g id="PathCollection_1">
    <defs>
     <path d="M 0 3 
C 0.795609 3 1.55874 2.683901 2.12132 2.12132 
C 2.683901 1.55874 3 0.795609 3 0 
C 3 -0.795609 2.683901 -1.55874 2.12132 -2.12132 
C 1.55874 -2.683901 0.795609 -3 0 -3 
C -0.795609 -3 -1.55874 -2.683901 -2.12132 -2.12132 
C -2.683901 -1.55874 -3 -0.795609 -3 0 
C -3 0.795609 -2.683901 1.55874 -2.12132 2.12132 
C -1.55874 2.683901 -0.795609 3 0 3 
z
" id="m1e2af147ed" style="stroke:#000000;stroke-opacity:0.8;"/>
    </defs>
    <g clip-path="url(#p7b43767f6d)">
     <use style="fill-opacity:0.8;stroke:#000000;stroke-opacity:0.8;" x="158.159297" xlink:href="#m1e2af147ed" y="118.86891"/>
     <use style="fill-opacity:0.8;stroke:#000000;stroke-opacity:0.8;" x="114.127809" xlink:href="#m1e2af147ed" y="145.701199"/>
     <use style="fill-opacity:0.8;stroke:#000000;stroke-opacity:0.8;" x="177.341827" xlink:href="#m1e2af147ed" y="107.170847"/>
     <use style="fill-opacity:0.8;stroke:#000000;stroke-opacity:0.8;" x="131.464121" xlink:href="#m1e2af147ed" y="135.14387"/>
     <use style="fill-opacity:0.8;stroke:#000000;stroke-opacity:0.8;" x="218.015735" xlink:href="#m1e2af147ed" y="82.372302"/>
     <use style="fill-opacity:0.8;stroke:#000000;stroke-opacity:0.8;" x="127.502132" xlink:href="#m1e2af147ed" y="137.544389"/>
     <use style="fill-opacity:0.8;stroke:#000000;stroke-opacity:0.8;" x="192.304128" xlink:href="#m1e2af147ed" y="98.033573"/>
     <use style="fill-opacity:0.8;stroke:#000000;stroke-opacity:0.8;" x="176.820562" xlink:href="#m1e2af147ed" y="107.490429"/>
     <use style="fill-opacity:0.8;stroke:#000000;stroke-opacity:0.8;" x="152.54036" xlink:href="#m1e2af147ed" y="122.265664"/>
     <use style="fill-opacity:0.8;stroke:#000000;stroke-opacity:0.8;" x="170.210126" xlink:href="#m1e2af147ed" y="111.502522"/>
     <use style="fill-opacity:0.8;stroke:#000000;stroke-opacity:0.8;" x="177.853567" xlink:href="#m1e2af147ed" y="106.851378"/>
     <use style="fill-opacity:0.8;stroke:#000000;stroke-opacity:0.8;" x="152.103425" xlink:href="#m1e2af147ed" y="122.547093"/>
     <use style="fill-opacity:0.8;stroke:#000000;stroke-opacity:0.8;" x="229.294582" xlink:href="#m1e2af147ed" y="75.502852"/>
     <use style="fill-opacity:0.8;stroke:#000000;stroke-opacity:0.8;" x="123.562913" xlink:href="#m1e2af147ed" y="139.942783"/>
     <use style="fill-opacity:0.8;stroke:#000000;stroke-opacity:0.8;" x="194.858677" xlink:href="#m1e2af147ed" y="96.494281"/>
     <use style="fill-opacity:0.8;stroke:#000000;stroke-opacity:0.8;" x="201.227118" xlink:href="#m1e2af147ed" y="92.600241"/>
     <use style="fill-opacity:0.8;stroke:#000000;stroke-opacity:0.8;" x="201.796444" xlink:href="#m1e2af147ed" y="92.259968"/>
     <use style="fill-opacity:0.8;stroke:#000000;stroke-opacity:0.8;" x="192.866046" xlink:href="#m1e2af147ed" y="97.702535"/>
     <use style="fill-opacity:0.8;stroke:#000000;stroke-opacity:0.8;" x="141.685116" xlink:href="#m1e2af147ed" y="128.892714"/>
     <use style="fill-opacity:0.8;stroke:#000000;stroke-opacity:0.8;" x="209.200434" xlink:href="#m1e2af147ed" y="87.758372"/>
     <use style="fill-opacity:0.8;stroke:#000000;stroke-opacity:0.8;" x="99.765287" xlink:href="#m1e2af147ed" y="154.449122"/>
     <use style="fill-opacity:0.8;stroke:#000000;stroke-opacity:0.8;" x="179.21016" xlink:href="#m1e2af147ed" y="106.023077"/>
     <use style="fill-opacity:0.8;stroke:#000000;stroke-opacity:0.8;" x="190.683229" xlink:href="#m1e2af147ed" y="99.034791"/>
     <use style="fill-opacity:0.8;stroke:#000000;stroke-opacity:0.8;" x="179.316748" xlink:href="#m1e2af147ed" y="105.962538"/>
     <use style="fill-opacity:0.8;stroke:#000000;stroke-opacity:0.8;" x="177.008299" xlink:href="#m1e2af147ed" y="107.361451"/>
     <use style="fill-opacity:0.8;stroke:#000000;stroke-opacity:0.8;" x="127.245435" xlink:href="#m1e2af147ed" y="137.689459"/>
     <use style="fill-opacity:0.8;stroke:#000000;stroke-opacity:0.8;" x="180.238806" xlink:href="#m1e2af147ed" y="105.397141"/>
     <use style="fill-opacity:0.8;stroke:#000000;stroke-opacity:0.8;" x="114.237576" xlink:href="#m1e2af147ed" y="145.63823"/>
     <use style="fill-opacity:0.8;stroke:#000000;stroke-opacity:0.8;" x="148.610813" xlink:href="#m1e2af147ed" y="124.684541"/>
     <use style="fill-opacity:0.8;stroke:#000000;stroke-opacity:0.8;" x="206.114484" xlink:href="#m1e2af147ed" y="89.609529"/>
     <use style="fill-opacity:0.8;stroke:#000000;stroke-opacity:0.8;" x="130.084859" xlink:href="#m1e2af147ed" y="135.967278"/>
     <use style="fill-opacity:0.8;stroke:#000000;stroke-opacity:0.8;" x="130.171132" xlink:href="#m1e2af147ed" y="135.925951"/>
     <use style="fill-opacity:0.8;stroke:#000000;stroke-opacity:0.8;" x="117.859046" xlink:href="#m1e2af147ed" y="143.431701"/>
     <use style="fill-opacity:0.8;stroke:#000000;stroke-opacity:0.8;" x="137.349172" xlink:href="#m1e2af147ed" y="131.55574"/>
     <use style="fill-opacity:0.8;stroke:#000000;stroke-opacity:0.8;" x="110.937956" xlink:href="#m1e2af147ed" y="147.6407"/>
     <use style="fill-opacity:0.8;stroke:#000000;stroke-opacity:0.8;" x="122.462213" xlink:href="#m1e2af147ed" y="140.623991"/>
     <use style="fill-opacity:0.8;stroke:#000000;stroke-opacity:0.8;" x="146.58706" xlink:href="#m1e2af147ed" y="125.911703"/>
     <use style="fill-opacity:0.8;stroke:#000000;stroke-opacity:0.8;" x="227.813133" xlink:href="#m1e2af147ed" y="76.402613"/>
     <use style="fill-opacity:0.8;stroke:#000000;stroke-opacity:0.8;" x="207.875736" xlink:href="#m1e2af147ed" y="88.558727"/>
     <use style="fill-opacity:0.8;stroke:#000000;stroke-opacity:0.8;" x="156.228132" xlink:href="#m1e2af147ed" y="120.028597"/>
     <use style="fill-opacity:0.8;stroke:#000000;stroke-opacity:0.8;" x="173.022419" xlink:href="#m1e2af147ed" y="109.796605"/>
     <use style="fill-opacity:0.8;stroke:#000000;stroke-opacity:0.8;" x="166.971169" xlink:href="#m1e2af147ed" y="113.484828"/>
     <use style="fill-opacity:0.8;stroke:#000000;stroke-opacity:0.8;" x="116.756572" xlink:href="#m1e2af147ed" y="144.087578"/>
     <use style="fill-opacity:0.8;stroke:#000000;stroke-opacity:0.8;" x="126.978842" xlink:href="#m1e2af147ed" y="137.860546"/>
     <use style="fill-opacity:0.8;stroke:#000000;stroke-opacity:0.8;" x="123.399337" xlink:href="#m1e2af147ed" y="140.041475"/>
     <use style="fill-opacity:0.8;stroke:#000000;stroke-opacity:0.8;" x="174.88693" xlink:href="#m1e2af147ed" y="108.655516"/>
     <use style="fill-opacity:0.8;stroke:#000000;stroke-opacity:0.8;" x="153.053903" xlink:href="#m1e2af147ed" y="121.96793"/>
     <use style="fill-opacity:0.8;stroke:#000000;stroke-opacity:0.8;" x="165.081008" xlink:href="#m1e2af147ed" y="114.636815"/>
     <use style="fill-opacity:0.8;stroke:#000000;stroke-opacity:0.8;" x="123.324385" xlink:href="#m1e2af147ed" y="140.095838"/>
     <use style="fill-opacity:0.8;stroke:#000000;stroke-opacity:0.8;" x="109.442368" xlink:href="#m1e2af147ed" y="148.557378"/>
     <use style="fill-opacity:0.8;stroke:#000000;stroke-opacity:0.8;" x="153.631853" xlink:href="#m1e2af147ed" y="121.611923"/>
     <use style="fill-opacity:0.8;stroke:#000000;stroke-opacity:0.8;" x="142.248412" xlink:href="#m1e2af147ed" y="128.568042"/>
     <use style="fill-opacity:0.8;stroke:#000000;stroke-opacity:0.8;" x="117.736534" xlink:href="#m1e2af147ed" y="143.498677"/>
     <use style="fill-opacity:0.8;stroke:#000000;stroke-opacity:0.8;" x="102.648414" xlink:href="#m1e2af147ed" y="152.693474"/>
     <use style="fill-opacity:0.8;stroke:#000000;stroke-opacity:0.8;" x="159.241037" xlink:href="#m1e2af147ed" y="118.202178"/>
     <use style="fill-opacity:0.8;stroke:#000000;stroke-opacity:0.8;" x="214.857088" xlink:href="#m1e2af147ed" y="84.296388"/>
     <use style="fill-opacity:0.8;stroke:#000000;stroke-opacity:0.8;" x="197.563794" xlink:href="#m1e2af147ed" y="94.846185"/>
     <use style="fill-opacity:0.8;stroke:#000000;stroke-opacity:0.8;" x="222.628093" xlink:href="#m1e2af147ed" y="79.564366"/>
    </g>
   </g>
   <g id="PolyCollection_1">
    <path clip-path="url(#p7b43767f6d)" d="M 99.765287 154.449271 
L 99.765287 154.455913 
L 101.073663 153.658303 
L 102.38204 152.860724 
L 103.690417 152.063163 
L 104.998793 151.265602 
L 106.30717 150.468036 
L 107.615547 149.670438 
L 108.923924 148.872881 
L 110.2323 148.075304 
L 111.540677 147.277726 
L 112.849054 146.480148 
L 114.157431 145.682565 
L 115.465807 144.884983 
L 116.774184 144.087407 
L 118.082561 143.28984 
L 119.390937 142.492259 
L 120.699314 141.694685 
L 122.007691 140.897114 
L 123.316068 140.099553 
L 124.624444 139.301979 
L 125.932821 138.50438 
L 127.241198 137.706838 
L 128.549575 136.909277 
L 129.857951 136.111709 
L 131.166328 135.31414 
L 132.474705 134.516556 
L 133.783081 133.718976 
L 135.091458 132.921433 
L 136.399835 132.123864 
L 137.708212 131.3263 
L 139.016588 130.52874 
L 140.324965 129.731187 
L 141.633342 128.933635 
L 142.941719 128.136085 
L 144.250095 127.338544 
L 145.558472 126.540997 
L 146.866849 125.743426 
L 148.175225 124.945879 
L 149.483602 124.148339 
L 150.791979 123.35079 
L 152.100356 122.55324 
L 153.408732 121.755691 
L 154.717109 120.958157 
L 156.025486 120.160651 
L 157.333862 119.363139 
L 158.642239 118.565605 
L 159.950616 117.768033 
L 161.258993 116.970484 
L 162.567369 116.172951 
L 163.875746 115.375401 
L 165.184123 114.577838 
L 166.4925 113.78031 
L 167.800876 112.982801 
L 169.109253 112.185293 
L 170.41763 111.387783 
L 171.726006 110.590265 
L 173.034383 109.792746 
L 174.34276 108.995212 
L 175.651137 108.197707 
L 176.959513 107.400202 
L 178.26789 106.602684 
L 179.576267 105.805178 
L 180.884644 105.007635 
L 182.19302 104.210127 
L 183.501397 103.412645 
L 184.809774 102.615125 
L 186.11815 101.817625 
L 187.426527 101.020126 
L 188.734904 100.222639 
L 190.043281 99.425154 
L 191.351657 98.627665 
L 192.660034 97.830178 
L 193.968411 97.032691 
L 195.276788 96.235204 
L 196.585164 95.437717 
L 197.893541 94.640218 
L 199.201918 93.842715 
L 200.510294 93.045255 
L 201.818671 92.247757 
L 203.127048 91.450281 
L 204.435425 90.652794 
L 205.743801 89.855303 
L 207.052178 89.05782 
L 208.360555 88.260333 
L 209.668932 87.462839 
L 210.977308 86.665359 
L 212.285685 85.867905 
L 213.594062 85.07044 
L 214.902438 84.272963 
L 216.210815 83.475457 
L 217.519192 82.677948 
L 218.827569 81.88044 
L 220.135945 81.082951 
L 221.444322 80.285462 
L 222.752699 79.487963 
L 224.061076 78.690468 
L 225.369452 77.892993 
L 226.677829 77.095513 
L 227.986206 76.298036 
L 229.294582 75.500564 
L 229.294582 75.493227 
L 229.294582 75.493227 
L 227.986206 76.290808 
L 226.677829 77.088396 
L 225.369452 77.885988 
L 224.061076 78.683573 
L 222.752699 79.481162 
L 221.444322 80.278743 
L 220.135945 81.076327 
L 218.827569 81.873935 
L 217.519192 82.67155 
L 216.210815 83.469145 
L 214.902438 84.266701 
L 213.594062 85.064279 
L 212.285685 85.861835 
L 210.977308 86.659425 
L 209.668932 87.457016 
L 208.360555 88.254608 
L 207.052178 89.052199 
L 205.743801 89.849791 
L 204.435425 90.647354 
L 203.127048 91.444938 
L 201.818671 92.242526 
L 200.510294 93.040101 
L 199.201918 93.837666 
L 197.893541 94.635223 
L 196.585164 95.43278 
L 195.276788 96.230336 
L 193.968411 97.027928 
L 192.660034 97.825496 
L 191.351657 98.623082 
L 190.043281 99.420699 
L 188.734904 100.218296 
L 187.426527 101.015863 
L 186.11815 101.813414 
L 184.809774 102.61097 
L 183.501397 103.408553 
L 182.19302 104.206114 
L 180.884644 105.00368 
L 179.576267 105.801217 
L 178.26789 106.598772 
L 176.959513 107.396324 
L 175.651137 108.193887 
L 174.34276 108.991448 
L 173.034383 109.789005 
L 171.726006 110.586527 
L 170.41763 111.384049 
L 169.109253 112.181571 
L 167.800876 112.979111 
L 166.4925 113.776652 
L 165.184123 114.574193 
L 163.875746 115.371727 
L 162.567369 116.169276 
L 161.258993 116.966834 
L 159.950616 117.764365 
L 158.642239 118.561911 
L 157.333862 119.35944 
L 156.025486 120.156957 
L 154.717109 120.954489 
L 153.408732 121.752031 
L 152.100356 122.549559 
L 150.791979 123.347063 
L 149.483602 124.144559 
L 148.175225 124.942051 
L 146.866849 125.73956 
L 145.558472 126.537048 
L 144.250095 127.334562 
L 142.941719 128.132042 
L 141.633342 128.929528 
L 140.324965 129.727063 
L 139.016588 130.524585 
L 137.708212 131.322094 
L 136.399835 132.119643 
L 135.091458 132.917151 
L 133.783081 133.714658 
L 132.474705 134.51218 
L 131.166328 135.309702 
L 129.857951 136.107229 
L 128.549575 136.904713 
L 127.241198 137.7022 
L 125.932821 138.499681 
L 124.624444 139.297176 
L 123.316068 140.094672 
L 122.007691 140.892148 
L 120.699314 141.689624 
L 119.390937 142.487138 
L 118.082561 143.284596 
L 116.774184 144.082093 
L 115.465807 144.879561 
L 114.157431 145.677029 
L 112.849054 146.474509 
L 111.540677 147.272023 
L 110.2323 148.069521 
L 108.923924 148.867003 
L 107.615547 149.664485 
L 106.30717 150.461967 
L 104.998793 151.259448 
L 103.690417 152.056922 
L 102.38204 152.854372 
L 101.073663 153.651822 
L 99.765287 154.449271 
z
" style="fill-opacity:0.15;"/>
   </g>
   <g id="matplotlib.axis_1">
    <g id="xtick_1">
     <g id="line2d_1">
      <defs>
       <path d="M 0 0 
L 0 3.5 
" id="m101d92302b" style="stroke:#000000;stroke-width:0.8;"/>
      </defs>
      <g>
       <use style="stroke:#000000;stroke-width:0.8;" x="85.7425" xlink:href="#m101d92302b" y="163"/>
      </g>
     </g>
     <g id="text_1">
      <!-- 0.0 -->
      <g transform="translate(77.790938 177.598437)scale(0.1 -0.1)">
       <defs>
        <path d="M 31.78125 66.40625 
Q 24.171875 66.40625 20.328125 58.90625 
Q 16.5 51.421875 16.5 36.375 
Q 16.5 21.390625 20.328125 13.890625 
Q 24.171875 6.390625 31.78125 6.390625 
Q 39.453125 6.390625 43.28125 13.890625 
Q 47.125 21.390625 47.125 36.375 
Q 47.125 51.421875 43.28125 58.90625 
Q 39.453125 66.40625 31.78125 66.40625 
z
M 31.78125 74.21875 
Q 44.046875 74.21875 50.515625 64.515625 
Q 56.984375 54.828125 56.984375 36.375 
Q 56.984375 17.96875 50.515625 8.265625 
Q 44.046875 -1.421875 31.78125 -1.421875 
Q 19.53125 -1.421875 13.0625 8.265625 
Q 6.59375 17.96875 6.59375 36.375 
Q 6.59375 54.828125 13.0625 64.515625 
Q 19.53125 74.21875 31.78125 74.21875 
z
" id="DejaVuSans-48"/>
        <path d="M 10.6875 12.40625 
L 21 12.40625 
L 21 0 
L 10.6875 0 
z
" id="DejaVuSans-46"/>
       </defs>
       <use xlink:href="#DejaVuSans-48"/>
       <use x="63.623047" xlink:href="#DejaVuSans-46"/>
       <use x="95.410156" xlink:href="#DejaVuSans-48"/>
      </g>
     </g>
    </g>
    <g id="xtick_2">
     <g id="line2d_2">
      <g>
       <use style="stroke:#000000;stroke-width:0.8;" x="118.4225" xlink:href="#m101d92302b" y="163"/>
      </g>
     </g>
     <g id="text_2">
      <!-- 0.2 -->
      <g transform="translate(110.470938 177.598437)scale(0.1 -0.1)">
       <defs>
        <path d="M 19.1875 8.296875 
L 53.609375 8.296875 
L 53.609375 0 
L 7.328125 0 
L 7.328125 8.296875 
Q 12.9375 14.109375 22.625 23.890625 
Q 32.328125 33.6875 34.8125 36.53125 
Q 39.546875 41.84375 41.421875 45.53125 
Q 43.3125 49.21875 43.3125 52.78125 
Q 43.3125 58.59375 39.234375 62.25 
Q 35.15625 65.921875 28.609375 65.921875 
Q 23.96875 65.921875 18.8125 64.3125 
Q 13.671875 62.703125 7.8125 59.421875 
L 7.8125 69.390625 
Q 13.765625 71.78125 18.9375 73 
Q 24.125 74.21875 28.421875 74.21875 
Q 39.75 74.21875 46.484375 68.546875 
Q 53.21875 62.890625 53.21875 53.421875 
Q 53.21875 48.921875 51.53125 44.890625 
Q 49.859375 40.875 45.40625 35.40625 
Q 44.1875 33.984375 37.640625 27.21875 
Q 31.109375 20.453125 19.1875 8.296875 
z
" id="DejaVuSans-50"/>
       </defs>
       <use xlink:href="#DejaVuSans-48"/>
       <use x="63.623047" xlink:href="#DejaVuSans-46"/>
       <use x="95.410156" xlink:href="#DejaVuSans-50"/>
      </g>
     </g>
    </g>
    <g id="xtick_3">
     <g id="line2d_3">
      <g>
       <use style="stroke:#000000;stroke-width:0.8;" x="151.1025" xlink:href="#m101d92302b" y="163"/>
      </g>
     </g>
     <g id="text_3">
      <!-- 0.4 -->
      <g transform="translate(143.150938 177.598437)scale(0.1 -0.1)">
       <defs>
        <path d="M 37.796875 64.3125 
L 12.890625 25.390625 
L 37.796875 25.390625 
z
M 35.203125 72.90625 
L 47.609375 72.90625 
L 47.609375 25.390625 
L 58.015625 25.390625 
L 58.015625 17.1875 
L 47.609375 17.1875 
L 47.609375 0 
L 37.796875 0 
L 37.796875 17.1875 
L 4.890625 17.1875 
L 4.890625 26.703125 
z
" id="DejaVuSans-52"/>
       </defs>
       <use xlink:href="#DejaVuSans-48"/>
       <use x="63.623047" xlink:href="#DejaVuSans-46"/>
       <use x="95.410156" xlink:href="#DejaVuSans-52"/>
      </g>
     </g>
    </g>
    <g id="xtick_4">
     <g id="line2d_4">
      <g>
       <use style="stroke:#000000;stroke-width:0.8;" x="183.7825" xlink:href="#m101d92302b" y="163"/>
      </g>
     </g>
     <g id="text_4">
      <!-- 0.6 -->
      <g transform="translate(175.830937 177.598437)scale(0.1 -0.1)">
       <defs>
        <path d="M 33.015625 40.375 
Q 26.375 40.375 22.484375 35.828125 
Q 18.609375 31.296875 18.609375 23.390625 
Q 18.609375 15.53125 22.484375 10.953125 
Q 26.375 6.390625 33.015625 6.390625 
Q 39.65625 6.390625 43.53125 10.953125 
Q 47.40625 15.53125 47.40625 23.390625 
Q 47.40625 31.296875 43.53125 35.828125 
Q 39.65625 40.375 33.015625 40.375 
z
M 52.59375 71.296875 
L 52.59375 62.3125 
Q 48.875 64.0625 45.09375 64.984375 
Q 41.3125 65.921875 37.59375 65.921875 
Q 27.828125 65.921875 22.671875 59.328125 
Q 17.53125 52.734375 16.796875 39.40625 
Q 19.671875 43.65625 24.015625 45.921875 
Q 28.375 48.1875 33.59375 48.1875 
Q 44.578125 48.1875 50.953125 41.515625 
Q 57.328125 34.859375 57.328125 23.390625 
Q 57.328125 12.15625 50.6875 5.359375 
Q 44.046875 -1.421875 33.015625 -1.421875 
Q 20.359375 -1.421875 13.671875 8.265625 
Q 6.984375 17.96875 6.984375 36.375 
Q 6.984375 53.65625 15.1875 63.9375 
Q 23.390625 74.21875 37.203125 74.21875 
Q 40.921875 74.21875 44.703125 73.484375 
Q 48.484375 72.75 52.59375 71.296875 
z
" id="DejaVuSans-54"/>
       </defs>
       <use xlink:href="#DejaVuSans-48"/>
       <use x="63.623047" xlink:href="#DejaVuSans-46"/>
       <use x="95.410156" xlink:href="#DejaVuSans-54"/>
      </g>
     </g>
    </g>
    <g id="xtick_5">
     <g id="line2d_5">
      <g>
       <use style="stroke:#000000;stroke-width:0.8;" x="216.4625" xlink:href="#m101d92302b" y="163"/>
      </g>
     </g>
     <g id="text_5">
      <!-- 0.8 -->
      <g transform="translate(208.510938 177.598437)scale(0.1 -0.1)">
       <defs>
        <path d="M 31.78125 34.625 
Q 24.75 34.625 20.71875 30.859375 
Q 16.703125 27.09375 16.703125 20.515625 
Q 16.703125 13.921875 20.71875 10.15625 
Q 24.75 6.390625 31.78125 6.390625 
Q 38.8125 6.390625 42.859375 10.171875 
Q 46.921875 13.96875 46.921875 20.515625 
Q 46.921875 27.09375 42.890625 30.859375 
Q 38.875 34.625 31.78125 34.625 
z
M 21.921875 38.8125 
Q 15.578125 40.375 12.03125 44.71875 
Q 8.5 49.078125 8.5 55.328125 
Q 8.5 64.0625 14.71875 69.140625 
Q 20.953125 74.21875 31.78125 74.21875 
Q 42.671875 74.21875 48.875 69.140625 
Q 55.078125 64.0625 55.078125 55.328125 
Q 55.078125 49.078125 51.53125 44.71875 
Q 48 40.375 41.703125 38.8125 
Q 48.828125 37.15625 52.796875 32.3125 
Q 56.78125 27.484375 56.78125 20.515625 
Q 56.78125 9.90625 50.3125 4.234375 
Q 43.84375 -1.421875 31.78125 -1.421875 
Q 19.734375 -1.421875 13.25 4.234375 
Q 6.78125 9.90625 6.78125 20.515625 
Q 6.78125 27.484375 10.78125 32.3125 
Q 14.796875 37.15625 21.921875 38.8125 
z
M 18.3125 54.390625 
Q 18.3125 48.734375 21.84375 45.5625 
Q 25.390625 42.390625 31.78125 42.390625 
Q 38.140625 42.390625 41.71875 45.5625 
Q 45.3125 48.734375 45.3125 54.390625 
Q 45.3125 60.0625 41.71875 63.234375 
Q 38.140625 66.40625 31.78125 66.40625 
Q 25.390625 66.40625 21.84375 63.234375 
Q 18.3125 60.0625 18.3125 54.390625 
z
" id="DejaVuSans-56"/>
       </defs>
       <use xlink:href="#DejaVuSans-48"/>
       <use x="63.623047" xlink:href="#DejaVuSans-46"/>
       <use x="95.410156" xlink:href="#DejaVuSans-56"/>
      </g>
     </g>
    </g>
    <g id="xtick_6">
     <g id="line2d_6">
      <g>
       <use style="stroke:#000000;stroke-width:0.8;" x="249.1425" xlink:href="#m101d92302b" y="163"/>
      </g>
     </g>
     <g id="text_6">
      <!-- 1.0 -->
      <g transform="translate(241.190937 177.598437)scale(0.1 -0.1)">
       <defs>
        <path d="M 12.40625 8.296875 
L 28.515625 8.296875 
L 28.515625 63.921875 
L 10.984375 60.40625 
L 10.984375 69.390625 
L 28.421875 72.90625 
L 38.28125 72.90625 
L 38.28125 8.296875 
L 54.390625 8.296875 
L 54.390625 0 
L 12.40625 0 
z
" id="DejaVuSans-49"/>
       </defs>
       <use xlink:href="#DejaVuSans-49"/>
       <use x="63.623047" xlink:href="#DejaVuSans-46"/>
       <use x="95.410156" xlink:href="#DejaVuSans-48"/>
      </g>
     </g>
    </g>
   </g>
   <g id="matplotlib.axis_2">
    <g id="ytick_1">
     <g id="line2d_7">
      <defs>
       <path d="M 0 0 
L -3.5 0 
" id="mbffed44d8b" style="stroke:#000000;stroke-width:0.8;"/>
      </defs>
      <g>
       <use style="stroke:#000000;stroke-width:0.8;" x="85.7425" xlink:href="#mbffed44d8b" y="163"/>
      </g>
     </g>
     <g id="text_7">
      <!-- 0.0 -->
      <g transform="translate(62.839375 166.799219)scale(0.1 -0.1)">
       <use xlink:href="#DejaVuSans-48"/>
       <use x="63.623047" xlink:href="#DejaVuSans-46"/>
       <use x="95.410156" xlink:href="#DejaVuSans-48"/>
      </g>
     </g>
    </g>
    <g id="ytick_2">
     <g id="line2d_8">
      <g>
       <use style="stroke:#000000;stroke-width:0.8;" x="85.7425" xlink:href="#mbffed44d8b" y="143.08"/>
      </g>
     </g>
     <g id="text_8">
      <!-- 0.2 -->
      <g transform="translate(62.839375 146.879219)scale(0.1 -0.1)">
       <use xlink:href="#DejaVuSans-48"/>
       <use x="63.623047" xlink:href="#DejaVuSans-46"/>
       <use x="95.410156" xlink:href="#DejaVuSans-50"/>
      </g>
     </g>
    </g>
    <g id="ytick_3">
     <g id="line2d_9">
      <g>
       <use style="stroke:#000000;stroke-width:0.8;" x="85.7425" xlink:href="#mbffed44d8b" y="123.16"/>
      </g>
     </g>
     <g id="text_9">
      <!-- 0.4 -->
      <g transform="translate(62.839375 126.959219)scale(0.1 -0.1)">
       <use xlink:href="#DejaVuSans-48"/>
       <use x="63.623047" xlink:href="#DejaVuSans-46"/>
       <use x="95.410156" xlink:href="#DejaVuSans-52"/>
      </g>
     </g>
    </g>
    <g id="ytick_4">
     <g id="line2d_10">
      <g>
       <use style="stroke:#000000;stroke-width:0.8;" x="85.7425" xlink:href="#mbffed44d8b" y="103.24"/>
      </g>
     </g>
     <g id="text_10">
      <!-- 0.6 -->
      <g transform="translate(62.839375 107.039219)scale(0.1 -0.1)">
       <use xlink:href="#DejaVuSans-48"/>
       <use x="63.623047" xlink:href="#DejaVuSans-46"/>
       <use x="95.410156" xlink:href="#DejaVuSans-54"/>
      </g>
     </g>
    </g>
    <g id="ytick_5">
     <g id="line2d_11">
      <g>
       <use style="stroke:#000000;stroke-width:0.8;" x="85.7425" xlink:href="#mbffed44d8b" y="83.32"/>
      </g>
     </g>
     <g id="text_11">
      <!-- 0.8 -->
      <g transform="translate(62.839375 87.119219)scale(0.1 -0.1)">
       <use xlink:href="#DejaVuSans-48"/>
       <use x="63.623047" xlink:href="#DejaVuSans-46"/>
       <use x="95.410156" xlink:href="#DejaVuSans-56"/>
      </g>
     </g>
    </g>
    <g id="ytick_6">
     <g id="line2d_12">
      <g>
       <use style="stroke:#000000;stroke-width:0.8;" x="85.7425" xlink:href="#mbffed44d8b" y="63.4"/>
      </g>
     </g>
     <g id="text_12">
      <!-- 1.0 -->
      <g transform="translate(62.839375 67.199219)scale(0.1 -0.1)">
       <use xlink:href="#DejaVuSans-49"/>
       <use x="63.623047" xlink:href="#DejaVuSans-46"/>
       <use x="95.410156" xlink:href="#DejaVuSans-48"/>
      </g>
     </g>
    </g>
   </g>
   <g id="line2d_13">
    <path clip-path="url(#p7b43767f6d)" d="M 99.765287 154.452571 
L 101.073663 153.655042 
L 102.38204 152.857513 
L 103.690417 152.059984 
L 104.998793 151.262455 
L 106.30717 150.464926 
L 107.615547 149.667397 
L 108.923924 148.869868 
L 110.2323 148.072339 
L 111.540677 147.27481 
L 112.849054 146.477281 
L 114.157431 145.679752 
L 115.465807 144.882223 
L 116.774184 144.084694 
L 118.082561 143.287165 
L 119.390937 142.489636 
L 120.699314 141.692107 
L 122.007691 140.894578 
L 123.316068 140.097049 
L 124.624444 139.29952 
L 125.932821 138.501991 
L 127.241198 137.704462 
L 128.549575 136.906933 
L 129.857951 136.109404 
L 131.166328 135.311875 
L 132.474705 134.514346 
L 133.783081 133.716817 
L 135.091458 132.919288 
L 136.399835 132.121759 
L 137.708212 131.32423 
L 139.016588 130.526701 
L 140.324965 129.729172 
L 141.633342 128.931643 
L 142.941719 128.134114 
L 144.250095 127.336585 
L 145.558472 126.539056 
L 146.866849 125.741527 
L 148.175225 124.943998 
L 149.483602 124.146469 
L 150.791979 123.34894 
L 152.100356 122.551411 
L 153.408732 121.753882 
L 154.717109 120.956353 
L 156.025486 120.158824 
L 157.333862 119.361295 
L 158.642239 118.563766 
L 159.950616 117.766237 
L 161.258993 116.968708 
L 162.567369 116.171179 
L 163.875746 115.37365 
L 165.184123 114.576121 
L 166.4925 113.778592 
L 167.800876 112.981063 
L 169.109253 112.183534 
L 170.41763 111.386005 
L 171.726006 110.588476 
L 173.034383 109.790947 
L 174.34276 108.993418 
L 175.651137 108.195889 
L 176.959513 107.39836 
L 178.26789 106.600831 
L 179.576267 105.803302 
L 180.884644 105.005773 
L 182.19302 104.208244 
L 183.501397 103.410715 
L 184.809774 102.613186 
L 186.11815 101.815657 
L 187.426527 101.018128 
L 188.734904 100.220599 
L 190.043281 99.42307 
L 191.351657 98.625541 
L 192.660034 97.828012 
L 193.968411 97.030483 
L 195.276788 96.232954 
L 196.585164 95.435425 
L 197.893541 94.637896 
L 199.201918 93.840367 
L 200.510294 93.042838 
L 201.818671 92.245309 
L 203.127048 91.44778 
L 204.435425 90.650251 
L 205.743801 89.852722 
L 207.052178 89.055193 
L 208.360555 88.257664 
L 209.668932 87.460135 
L 210.977308 86.662606 
L 212.285685 85.865077 
L 213.594062 85.067548 
L 214.902438 84.270019 
L 216.210815 83.47249 
L 217.519192 82.674961 
L 218.827569 81.877432 
L 220.135945 81.079903 
L 221.444322 80.282374 
L 222.752699 79.484845 
L 224.061076 78.687316 
L 225.369452 77.889787 
L 226.677829 77.092258 
L 227.986206 76.294729 
L 229.294582 75.4972 
" style="fill:none;stroke:#000000;stroke-linecap:square;stroke-width:2.25;"/>
   </g>
   <g id="patch_3">
    <path d="M 85.7425 163 
L 85.7425 63.4 
" style="fill:none;stroke:#000000;stroke-linecap:square;stroke-linejoin:miter;stroke-width:0.8;"/>
   </g>
   <g id="patch_4">
    <path d="M 249.1425 163 
L 249.1425 63.4 
" style="fill:none;stroke:#000000;stroke-linecap:square;stroke-linejoin:miter;stroke-width:0.8;"/>
   </g>
   <g id="patch_5">
    <path d="M 85.7425 163 
L 249.1425 163 
" style="fill:none;stroke:#000000;stroke-linecap:square;stroke-linejoin:miter;stroke-width:0.8;"/>
   </g>
   <g id="patch_6">
    <path d="M 85.7425 63.4 
L 249.1425 63.4 
" style="fill:none;stroke:#000000;stroke-linecap:square;stroke-linejoin:miter;stroke-width:0.8;"/>
   </g>
   <g id="text_13">
    <!-- 2nd-Order Occasion Setting -->
    <g transform="translate(84.069688 57.4)scale(0.12 -0.12)">
     <defs>
      <path d="M 54.890625 33.015625 
L 54.890625 0 
L 45.90625 0 
L 45.90625 32.71875 
Q 45.90625 40.484375 42.875 44.328125 
Q 39.84375 48.1875 33.796875 48.1875 
Q 26.515625 48.1875 22.3125 43.546875 
Q 18.109375 38.921875 18.109375 30.90625 
L 18.109375 0 
L 9.078125 0 
L 9.078125 54.6875 
L 18.109375 54.6875 
L 18.109375 46.1875 
Q 21.34375 51.125 25.703125 53.5625 
Q 30.078125 56 35.796875 56 
Q 45.21875 56 50.046875 50.171875 
Q 54.890625 44.34375 54.890625 33.015625 
z
" id="DejaVuSans-110"/>
      <path d="M 45.40625 46.390625 
L 45.40625 75.984375 
L 54.390625 75.984375 
L 54.390625 0 
L 45.40625 0 
L 45.40625 8.203125 
Q 42.578125 3.328125 38.25 0.953125 
Q 33.9375 -1.421875 27.875 -1.421875 
Q 17.96875 -1.421875 11.734375 6.484375 
Q 5.515625 14.40625 5.515625 27.296875 
Q 5.515625 40.1875 11.734375 48.09375 
Q 17.96875 56 27.875 56 
Q 33.9375 56 38.25 53.625 
Q 42.578125 51.265625 45.40625 46.390625 
z
M 14.796875 27.296875 
Q 14.796875 17.390625 18.875 11.75 
Q 22.953125 6.109375 30.078125 6.109375 
Q 37.203125 6.109375 41.296875 11.75 
Q 45.40625 17.390625 45.40625 27.296875 
Q 45.40625 37.203125 41.296875 42.84375 
Q 37.203125 48.484375 30.078125 48.484375 
Q 22.953125 48.484375 18.875 42.84375 
Q 14.796875 37.203125 14.796875 27.296875 
z
" id="DejaVuSans-100"/>
      <path d="M 4.890625 31.390625 
L 31.203125 31.390625 
L 31.203125 23.390625 
L 4.890625 23.390625 
z
" id="DejaVuSans-45"/>
      <path d="M 39.40625 66.21875 
Q 28.65625 66.21875 22.328125 58.203125 
Q 16.015625 50.203125 16.015625 36.375 
Q 16.015625 22.609375 22.328125 14.59375 
Q 28.65625 6.59375 39.40625 6.59375 
Q 50.140625 6.59375 56.421875 14.59375 
Q 62.703125 22.609375 62.703125 36.375 
Q 62.703125 50.203125 56.421875 58.203125 
Q 50.140625 66.21875 39.40625 66.21875 
z
M 39.40625 74.21875 
Q 54.734375 74.21875 63.90625 63.9375 
Q 73.09375 53.65625 73.09375 36.375 
Q 73.09375 19.140625 63.90625 8.859375 
Q 54.734375 -1.421875 39.40625 -1.421875 
Q 24.03125 -1.421875 14.8125 8.828125 
Q 5.609375 19.09375 5.609375 36.375 
Q 5.609375 53.65625 14.8125 63.9375 
Q 24.03125 74.21875 39.40625 74.21875 
z
" id="DejaVuSans-79"/>
      <path d="M 41.109375 46.296875 
Q 39.59375 47.171875 37.8125 47.578125 
Q 36.03125 48 33.890625 48 
Q 26.265625 48 22.1875 43.046875 
Q 18.109375 38.09375 18.109375 28.8125 
L 18.109375 0 
L 9.078125 0 
L 9.078125 54.6875 
L 18.109375 54.6875 
L 18.109375 46.1875 
Q 20.953125 51.171875 25.484375 53.578125 
Q 30.03125 56 36.53125 56 
Q 37.453125 56 38.578125 55.875 
Q 39.703125 55.765625 41.0625 55.515625 
z
" id="DejaVuSans-114"/>
      <path d="M 56.203125 29.59375 
L 56.203125 25.203125 
L 14.890625 25.203125 
Q 15.484375 15.921875 20.484375 11.0625 
Q 25.484375 6.203125 34.421875 6.203125 
Q 39.59375 6.203125 44.453125 7.46875 
Q 49.3125 8.734375 54.109375 11.28125 
L 54.109375 2.78125 
Q 49.265625 0.734375 44.1875 -0.34375 
Q 39.109375 -1.421875 33.890625 -1.421875 
Q 20.796875 -1.421875 13.15625 6.1875 
Q 5.515625 13.8125 5.515625 26.8125 
Q 5.515625 40.234375 12.765625 48.109375 
Q 20.015625 56 32.328125 56 
Q 43.359375 56 49.78125 48.890625 
Q 56.203125 41.796875 56.203125 29.59375 
z
M 47.21875 32.234375 
Q 47.125 39.59375 43.09375 43.984375 
Q 39.0625 48.390625 32.421875 48.390625 
Q 24.90625 48.390625 20.390625 44.140625 
Q 15.875 39.890625 15.1875 32.171875 
z
" id="DejaVuSans-101"/>
      <path id="DejaVuSans-32"/>
      <path d="M 48.78125 52.59375 
L 48.78125 44.1875 
Q 44.96875 46.296875 41.140625 47.34375 
Q 37.3125 48.390625 33.40625 48.390625 
Q 24.65625 48.390625 19.8125 42.84375 
Q 14.984375 37.3125 14.984375 27.296875 
Q 14.984375 17.28125 19.8125 11.734375 
Q 24.65625 6.203125 33.40625 6.203125 
Q 37.3125 6.203125 41.140625 7.25 
Q 44.96875 8.296875 48.78125 10.40625 
L 48.78125 2.09375 
Q 45.015625 0.34375 40.984375 -0.53125 
Q 36.96875 -1.421875 32.421875 -1.421875 
Q 20.0625 -1.421875 12.78125 6.34375 
Q 5.515625 14.109375 5.515625 27.296875 
Q 5.515625 40.671875 12.859375 48.328125 
Q 20.21875 56 33.015625 56 
Q 37.15625 56 41.109375 55.140625 
Q 45.0625 54.296875 48.78125 52.59375 
z
" id="DejaVuSans-99"/>
      <path d="M 34.28125 27.484375 
Q 23.390625 27.484375 19.1875 25 
Q 14.984375 22.515625 14.984375 16.5 
Q 14.984375 11.71875 18.140625 8.90625 
Q 21.296875 6.109375 26.703125 6.109375 
Q 34.1875 6.109375 38.703125 11.40625 
Q 43.21875 16.703125 43.21875 25.484375 
L 43.21875 27.484375 
z
M 52.203125 31.203125 
L 52.203125 0 
L 43.21875 0 
L 43.21875 8.296875 
Q 40.140625 3.328125 35.546875 0.953125 
Q 30.953125 -1.421875 24.3125 -1.421875 
Q 15.921875 -1.421875 10.953125 3.296875 
Q 6 8.015625 6 15.921875 
Q 6 25.140625 12.171875 29.828125 
Q 18.359375 34.515625 30.609375 34.515625 
L 43.21875 34.515625 
L 43.21875 35.40625 
Q 43.21875 41.609375 39.140625 45 
Q 35.0625 48.390625 27.6875 48.390625 
Q 23 48.390625 18.546875 47.265625 
Q 14.109375 46.140625 10.015625 43.890625 
L 10.015625 52.203125 
Q 14.9375 54.109375 19.578125 55.046875 
Q 24.21875 56 28.609375 56 
Q 40.484375 56 46.34375 49.84375 
Q 52.203125 43.703125 52.203125 31.203125 
z
" id="DejaVuSans-97"/>
      <path d="M 44.28125 53.078125 
L 44.28125 44.578125 
Q 40.484375 46.53125 36.375 47.5 
Q 32.28125 48.484375 27.875 48.484375 
Q 21.1875 48.484375 17.84375 46.4375 
Q 14.5 44.390625 14.5 40.28125 
Q 14.5 37.15625 16.890625 35.375 
Q 19.28125 33.59375 26.515625 31.984375 
L 29.59375 31.296875 
Q 39.15625 29.25 43.1875 25.515625 
Q 47.21875 21.78125 47.21875 15.09375 
Q 47.21875 7.46875 41.1875 3.015625 
Q 35.15625 -1.421875 24.609375 -1.421875 
Q 20.21875 -1.421875 15.453125 -0.5625 
Q 10.6875 0.296875 5.421875 2 
L 5.421875 11.28125 
Q 10.40625 8.6875 15.234375 7.390625 
Q 20.0625 6.109375 24.8125 6.109375 
Q 31.15625 6.109375 34.5625 8.28125 
Q 37.984375 10.453125 37.984375 14.40625 
Q 37.984375 18.0625 35.515625 20.015625 
Q 33.0625 21.96875 24.703125 23.78125 
L 21.578125 24.515625 
Q 13.234375 26.265625 9.515625 29.90625 
Q 5.8125 33.546875 5.8125 39.890625 
Q 5.8125 47.609375 11.28125 51.796875 
Q 16.75 56 26.8125 56 
Q 31.78125 56 36.171875 55.265625 
Q 40.578125 54.546875 44.28125 53.078125 
z
" id="DejaVuSans-115"/>
      <path d="M 9.421875 54.6875 
L 18.40625 54.6875 
L 18.40625 0 
L 9.421875 0 
z
M 9.421875 75.984375 
L 18.40625 75.984375 
L 18.40625 64.59375 
L 9.421875 64.59375 
z
" id="DejaVuSans-105"/>
      <path d="M 30.609375 48.390625 
Q 23.390625 48.390625 19.1875 42.75 
Q 14.984375 37.109375 14.984375 27.296875 
Q 14.984375 17.484375 19.15625 11.84375 
Q 23.34375 6.203125 30.609375 6.203125 
Q 37.796875 6.203125 41.984375 11.859375 
Q 46.1875 17.53125 46.1875 27.296875 
Q 46.1875 37.015625 41.984375 42.703125 
Q 37.796875 48.390625 30.609375 48.390625 
z
M 30.609375 56 
Q 42.328125 56 49.015625 48.375 
Q 55.71875 40.765625 55.71875 27.296875 
Q 55.71875 13.875 49.015625 6.21875 
Q 42.328125 -1.421875 30.609375 -1.421875 
Q 18.84375 -1.421875 12.171875 6.21875 
Q 5.515625 13.875 5.515625 27.296875 
Q 5.515625 40.765625 12.171875 48.375 
Q 18.84375 56 30.609375 56 
z
" id="DejaVuSans-111"/>
      <path d="M 53.515625 70.515625 
L 53.515625 60.890625 
Q 47.90625 63.578125 42.921875 64.890625 
Q 37.9375 66.21875 33.296875 66.21875 
Q 25.25 66.21875 20.875 63.09375 
Q 16.5 59.96875 16.5 54.203125 
Q 16.5 49.359375 19.40625 46.890625 
Q 22.3125 44.4375 30.421875 42.921875 
L 36.375 41.703125 
Q 47.40625 39.59375 52.65625 34.296875 
Q 57.90625 29 57.90625 20.125 
Q 57.90625 9.515625 50.796875 4.046875 
Q 43.703125 -1.421875 29.984375 -1.421875 
Q 24.8125 -1.421875 18.96875 -0.25 
Q 13.140625 0.921875 6.890625 3.21875 
L 6.890625 13.375 
Q 12.890625 10.015625 18.65625 8.296875 
Q 24.421875 6.59375 29.984375 6.59375 
Q 38.421875 6.59375 43.015625 9.90625 
Q 47.609375 13.234375 47.609375 19.390625 
Q 47.609375 24.75 44.3125 27.78125 
Q 41.015625 30.8125 33.5 32.328125 
L 27.484375 33.5 
Q 16.453125 35.6875 11.515625 40.375 
Q 6.59375 45.0625 6.59375 53.421875 
Q 6.59375 63.09375 13.40625 68.65625 
Q 20.21875 74.21875 32.171875 74.21875 
Q 37.3125 74.21875 42.625 73.28125 
Q 47.953125 72.359375 53.515625 70.515625 
z
" id="DejaVuSans-83"/>
      <path d="M 18.3125 70.21875 
L 18.3125 54.6875 
L 36.8125 54.6875 
L 36.8125 47.703125 
L 18.3125 47.703125 
L 18.3125 18.015625 
Q 18.3125 11.328125 20.140625 9.421875 
Q 21.96875 7.515625 27.59375 7.515625 
L 36.8125 7.515625 
L 36.8125 0 
L 27.59375 0 
Q 17.1875 0 13.234375 3.875 
Q 9.28125 7.765625 9.28125 18.015625 
L 9.28125 47.703125 
L 2.6875 47.703125 
L 2.6875 54.6875 
L 9.28125 54.6875 
L 9.28125 70.21875 
z
" id="DejaVuSans-116"/>
      <path d="M 45.40625 27.984375 
Q 45.40625 37.75 41.375 43.109375 
Q 37.359375 48.484375 30.078125 48.484375 
Q 22.859375 48.484375 18.828125 43.109375 
Q 14.796875 37.75 14.796875 27.984375 
Q 14.796875 18.265625 18.828125 12.890625 
Q 22.859375 7.515625 30.078125 7.515625 
Q 37.359375 7.515625 41.375 12.890625 
Q 45.40625 18.265625 45.40625 27.984375 
z
M 54.390625 6.78125 
Q 54.390625 -7.171875 48.1875 -13.984375 
Q 42 -20.796875 29.203125 -20.796875 
Q 24.46875 -20.796875 20.265625 -20.09375 
Q 16.0625 -19.390625 12.109375 -17.921875 
L 12.109375 -9.1875 
Q 16.0625 -11.328125 19.921875 -12.34375 
Q 23.78125 -13.375 27.78125 -13.375 
Q 36.625 -13.375 41.015625 -8.765625 
Q 45.40625 -4.15625 45.40625 5.171875 
L 45.40625 9.625 
Q 42.625 4.78125 38.28125 2.390625 
Q 33.9375 0 27.875 0 
Q 17.828125 0 11.671875 7.65625 
Q 5.515625 15.328125 5.515625 27.984375 
Q 5.515625 40.671875 11.671875 48.328125 
Q 17.828125 56 27.875 56 
Q 33.9375 56 38.28125 53.609375 
Q 42.625 51.21875 45.40625 46.390625 
L 45.40625 54.6875 
L 54.390625 54.6875 
z
" id="DejaVuSans-103"/>
     </defs>
     <use xlink:href="#DejaVuSans-50"/>
     <use x="63.623047" xlink:href="#DejaVuSans-110"/>
     <use x="127.001953" xlink:href="#DejaVuSans-100"/>
     <use x="190.478516" xlink:href="#DejaVuSans-45"/>
     <use x="229.3125" xlink:href="#DejaVuSans-79"/>
     <use x="308.023438" xlink:href="#DejaVuSans-114"/>
     <use x="347.386719" xlink:href="#DejaVuSans-100"/>
     <use x="410.863281" xlink:href="#DejaVuSans-101"/>
     <use x="472.386719" xlink:href="#DejaVuSans-114"/>
     <use x="513.5" xlink:href="#DejaVuSans-32"/>
     <use x="545.287109" xlink:href="#DejaVuSans-79"/>
     <use x="623.998047" xlink:href="#DejaVuSans-99"/>
     <use x="678.978516" xlink:href="#DejaVuSans-99"/>
     <use x="733.958984" xlink:href="#DejaVuSans-97"/>
     <use x="795.238281" xlink:href="#DejaVuSans-115"/>
     <use x="847.337891" xlink:href="#DejaVuSans-105"/>
     <use x="875.121094" xlink:href="#DejaVuSans-111"/>
     <use x="936.302734" xlink:href="#DejaVuSans-110"/>
     <use x="999.681641" xlink:href="#DejaVuSans-32"/>
     <use x="1031.46875" xlink:href="#DejaVuSans-83"/>
     <use x="1094.945312" xlink:href="#DejaVuSans-101"/>
     <use x="1156.46875" xlink:href="#DejaVuSans-116"/>
     <use x="1195.677734" xlink:href="#DejaVuSans-116"/>
     <use x="1234.886719" xlink:href="#DejaVuSans-105"/>
     <use x="1262.669922" xlink:href="#DejaVuSans-110"/>
     <use x="1326.048828" xlink:href="#DejaVuSans-103"/>
    </g>
   </g>
  </g>
  <g id="text_14">
   <!-- Simulated vs Recovered α Parameters -->
   <g transform="translate(7.2 19.3575)scale(0.16 -0.16)">
    <defs>
     <path d="M 52 44.1875 
Q 55.375 50.25 60.0625 53.125 
Q 64.75 56 71.09375 56 
Q 79.640625 56 84.28125 50.015625 
Q 88.921875 44.046875 88.921875 33.015625 
L 88.921875 0 
L 79.890625 0 
L 79.890625 32.71875 
Q 79.890625 40.578125 77.09375 44.375 
Q 74.3125 48.1875 68.609375 48.1875 
Q 61.625 48.1875 57.5625 43.546875 
Q 53.515625 38.921875 53.515625 30.90625 
L 53.515625 0 
L 44.484375 0 
L 44.484375 32.71875 
Q 44.484375 40.625 41.703125 44.40625 
Q 38.921875 48.1875 33.109375 48.1875 
Q 26.21875 48.1875 22.15625 43.53125 
Q 18.109375 38.875 18.109375 30.90625 
L 18.109375 0 
L 9.078125 0 
L 9.078125 54.6875 
L 18.109375 54.6875 
L 18.109375 46.1875 
Q 21.1875 51.21875 25.484375 53.609375 
Q 29.78125 56 35.6875 56 
Q 41.65625 56 45.828125 52.96875 
Q 50 49.953125 52 44.1875 
z
" id="DejaVuSans-109"/>
     <path d="M 8.5 21.578125 
L 8.5 54.6875 
L 17.484375 54.6875 
L 17.484375 21.921875 
Q 17.484375 14.15625 20.5 10.265625 
Q 23.53125 6.390625 29.59375 6.390625 
Q 36.859375 6.390625 41.078125 11.03125 
Q 45.3125 15.671875 45.3125 23.6875 
L 45.3125 54.6875 
L 54.296875 54.6875 
L 54.296875 0 
L 45.3125 0 
L 45.3125 8.40625 
Q 42.046875 3.421875 37.71875 1 
Q 33.40625 -1.421875 27.6875 -1.421875 
Q 18.265625 -1.421875 13.375 4.4375 
Q 8.5 10.296875 8.5 21.578125 
z
M 31.109375 56 
z
" id="DejaVuSans-117"/>
     <path d="M 9.421875 75.984375 
L 18.40625 75.984375 
L 18.40625 0 
L 9.421875 0 
z
" id="DejaVuSans-108"/>
     <path d="M 2.984375 54.6875 
L 12.5 54.6875 
L 29.59375 8.796875 
L 46.6875 54.6875 
L 56.203125 54.6875 
L 35.6875 0 
L 23.484375 0 
z
" id="DejaVuSans-118"/>
     <path d="M 44.390625 34.1875 
Q 47.5625 33.109375 50.5625 29.59375 
Q 53.5625 26.078125 56.59375 19.921875 
L 66.609375 0 
L 56 0 
L 46.6875 18.703125 
Q 43.0625 26.03125 39.671875 28.421875 
Q 36.28125 30.8125 30.421875 30.8125 
L 19.671875 30.8125 
L 19.671875 0 
L 9.8125 0 
L 9.8125 72.90625 
L 32.078125 72.90625 
Q 44.578125 72.90625 50.734375 67.671875 
Q 56.890625 62.453125 56.890625 51.90625 
Q 56.890625 45.015625 53.6875 40.46875 
Q 50.484375 35.9375 44.390625 34.1875 
z
M 19.671875 64.796875 
L 19.671875 38.921875 
L 32.078125 38.921875 
Q 39.203125 38.921875 42.84375 42.21875 
Q 46.484375 45.515625 46.484375 51.90625 
Q 46.484375 58.296875 42.84375 61.546875 
Q 39.203125 64.796875 32.078125 64.796875 
z
" id="DejaVuSans-82"/>
     <path d="M 41.3125 25.4375 
L 39.15625 36.71875 
Q 36.96875 48.296875 28.265625 48.296875 
Q 21.734375 48.296875 18.75 42.921875 
Q 14.984375 36.1875 14.984375 27.296875 
Q 14.984375 16.546875 18.65625 11.421875 
Q 22.359375 6.203125 28.265625 6.203125 
Q 34.8125 6.203125 38.328125 16.609375 
z
M 46.34375 40.375 
L 51.171875 54.6875 
L 59.1875 54.6875 
L 49.171875 25.046875 
L 51.125 14.359375 
Q 51.5625 11.96875 53.265625 9.96875 
Q 55.28125 7.625 56.84375 7.625 
L 61.140625 7.625 
L 61.140625 0 
L 55.765625 0 
Q 51.171875 0 47.078125 4.109375 
Q 45.0625 6.15625 44.234375 10.453125 
Q 42 5.03125 37.40625 0.78125 
Q 35.25 -1.21875 28.265625 -1.21875 
Q 16.796875 -1.21875 11.234375 6.203125 
Q 5.515625 13.875 5.515625 27.296875 
Q 5.515625 41.65625 11.71875 48.390625 
Q 18.609375 55.90625 28.265625 55.90625 
Q 43.453125 55.90625 46.34375 40.375 
z
" id="DejaVuSans-945"/>
     <path d="M 19.671875 64.796875 
L 19.671875 37.40625 
L 32.078125 37.40625 
Q 38.96875 37.40625 42.71875 40.96875 
Q 46.484375 44.53125 46.484375 51.125 
Q 46.484375 57.671875 42.71875 61.234375 
Q 38.96875 64.796875 32.078125 64.796875 
z
M 9.8125 72.90625 
L 32.078125 72.90625 
Q 44.34375 72.90625 50.609375 67.359375 
Q 56.890625 61.8125 56.890625 51.125 
Q 56.890625 40.328125 50.609375 34.8125 
Q 44.34375 29.296875 32.078125 29.296875 
L 19.671875 29.296875 
L 19.671875 0 
L 9.8125 0 
z
" id="DejaVuSans-80"/>
    </defs>
    <use xlink:href="#DejaVuSans-83"/>
    <use x="63.476562" xlink:href="#DejaVuSans-105"/>
    <use x="91.259766" xlink:href="#DejaVuSans-109"/>
    <use x="188.671875" xlink:href="#DejaVuSans-117"/>
    <use x="252.050781" xlink:href="#DejaVuSans-108"/>
    <use x="279.833984" xlink:href="#DejaVuSans-97"/>
    <use x="341.113281" xlink:href="#DejaVuSans-116"/>
    <use x="380.322266" xlink:href="#DejaVuSans-101"/>
    <use x="441.845703" xlink:href="#DejaVuSans-100"/>
    <use x="505.322266" xlink:href="#DejaVuSans-32"/>
    <use x="537.109375" xlink:href="#DejaVuSans-118"/>
    <use x="596.289062" xlink:href="#DejaVuSans-115"/>
    <use x="648.388672" xlink:href="#DejaVuSans-32"/>
    <use x="680.175781" xlink:href="#DejaVuSans-82"/>
    <use x="745.158203" xlink:href="#DejaVuSans-101"/>
    <use x="806.681641" xlink:href="#DejaVuSans-99"/>
    <use x="861.662109" xlink:href="#DejaVuSans-111"/>
    <use x="922.84375" xlink:href="#DejaVuSans-118"/>
    <use x="982.023438" xlink:href="#DejaVuSans-101"/>
    <use x="1043.546875" xlink:href="#DejaVuSans-114"/>
    <use x="1082.410156" xlink:href="#DejaVuSans-101"/>
    <use x="1143.933594" xlink:href="#DejaVuSans-100"/>
    <use x="1207.410156" xlink:href="#DejaVuSans-32"/>
    <use x="1239.197266" xlink:href="#DejaVuSans-945"/>
    <use x="1305.115234" xlink:href="#DejaVuSans-32"/>
    <use x="1336.902344" xlink:href="#DejaVuSans-80"/>
    <use x="1392.705078" xlink:href="#DejaVuSans-97"/>
    <use x="1453.984375" xlink:href="#DejaVuSans-114"/>
    <use x="1495.097656" xlink:href="#DejaVuSans-97"/>
    <use x="1556.376953" xlink:href="#DejaVuSans-109"/>
    <use x="1653.789062" xlink:href="#DejaVuSans-101"/>
    <use x="1715.3125" xlink:href="#DejaVuSans-116"/>
    <use x="1754.521484" xlink:href="#DejaVuSans-101"/>
    <use x="1816.044922" xlink:href="#DejaVuSans-114"/>
    <use x="1857.158203" xlink:href="#DejaVuSans-115"/>
   </g>
  </g>
  <g id="text_15">
   <!-- Simulated α -->
   <g transform="translate(111.7 198.815)scale(0.16 -0.16)">
    <use xlink:href="#DejaVuSans-83"/>
    <use x="63.476562" xlink:href="#DejaVuSans-105"/>
    <use x="91.259766" xlink:href="#DejaVuSans-109"/>
    <use x="188.671875" xlink:href="#DejaVuSans-117"/>
    <use x="252.050781" xlink:href="#DejaVuSans-108"/>
    <use x="279.833984" xlink:href="#DejaVuSans-97"/>
    <use x="341.113281" xlink:href="#DejaVuSans-116"/>
    <use x="380.322266" xlink:href="#DejaVuSans-101"/>
    <use x="441.845703" xlink:href="#DejaVuSans-100"/>
    <use x="505.322266" xlink:href="#DejaVuSans-32"/>
    <use x="537.109375" xlink:href="#DejaVuSans-945"/>
   </g>
  </g>
  <g id="text_16">
   <!-- Recovered α -->
   <g transform="translate(52.0375 150.79875)rotate(-90)scale(0.16 -0.16)">
    <use xlink:href="#DejaVuSans-82"/>
    <use x="64.982422" xlink:href="#DejaVuSans-101"/>
    <use x="126.505859" xlink:href="#DejaVuSans-99"/>
    <use x="181.486328" xlink:href="#DejaVuSans-111"/>
    <use x="242.667969" xlink:href="#DejaVuSans-118"/>
    <use x="301.847656" xlink:href="#DejaVuSans-101"/>
    <use x="363.371094" xlink:href="#DejaVuSans-114"/>
    <use x="402.234375" xlink:href="#DejaVuSans-101"/>
    <use x="463.757812" xlink:href="#DejaVuSans-100"/>
    <use x="527.234375" xlink:href="#DejaVuSans-32"/>
    <use x="559.021484" xlink:href="#DejaVuSans-945"/>
   </g>
  </g>
 </g>
 <defs>
  <clipPath id="p7b43767f6d">
   <rect height="99.6" width="163.4" x="85.7425" y="63.4"/>
  </clipPath>
 </defs>
</svg>
