<?xml version="1.0" encoding="utf-8" standalone="no"?>
<!DOCTYPE svg PUBLIC "-//W3C//DTD SVG 1.1//EN"
  "http://www.w3.org/Graphics/SVG/1.1/DTD/svg11.dtd">
<svg xmlns:xlink="http://www.w3.org/1999/xlink" width="319.885pt" height="209.3425pt" viewBox="0 0 319.885 209.3425" xmlns="http://www.w3.org/2000/svg" version="1.1">
 <metadata>
  <rdf:RDF xmlns:dc="http://purl.org/dc/elements/1.1/" xmlns:cc="http://creativecommons.org/ns#" xmlns:rdf="http://www.w3.org/1999/02/22-rdf-syntax-ns#">
   <cc:Work>
    <dc:type rdf:resource="http://purl.org/dc/dcmitype/StillImage"/>
    <dc:date>2022-05-06T09:39:24.577609</dc:date>
    <dc:format>image/svg+xml</dc:format>
    <dc:creator>
     <cc:Agent>
      <dc:title>Matplotlib v3.5.1, https://matplotlib.org/</dc:title>
     </cc:Agent>
    </dc:creator>
   </cc:Work>
  </rdf:RDF>
 </metadata>
 <defs>
  <style type="text/css">*{stroke-linejoin: round; stroke-linecap: butt}</style>
 </defs>
 <g id="figure_1">
  <g id="patch_1">
   <path d="M 0 209.3425 
L 319.885 209.3425 
L 319.885 0 
L 0 0 
L 0 209.3425 
z
" style="fill: none"/>
  </g>
  <g id="axes_1">
   <g id="patch_2">
    <path d="M 85.7425 163 
L 249.1425 163 
L 249.1425 63.4 
L 85.7425 63.4 
z
" style="fill: #ffffff"/>
   </g>
   <g id="PathCollection_1">
    <defs>
     <path id="m8d362cb02d" d="M 0 3 
C 0.795609 3 1.55874 2.683901 2.12132 2.12132 
C 2.683901 1.55874 3 0.795609 3 0 
C 3 -0.795609 2.683901 -1.55874 2.12132 -2.12132 
C 1.55874 -2.683901 0.795609 -3 0 -3 
C -0.795609 -3 -1.55874 -2.683901 -2.12132 -2.12132 
C -2.683901 -1.55874 -3 -0.795609 -3 0 
C -3 0.795609 -2.683901 1.55874 -2.12132 2.12132 
C -1.55874 2.683901 -0.795609 3 0 3 
z
" style="stroke: #000000; stroke-opacity: 0.8"/>
    </defs>
    <g clip-path="url(#p322f20b453)">
     <use xlink:href="#m8d362cb02d" x="106.522907" y="150.324519" style="fill-opacity: 0.8; stroke: #000000; stroke-opacity: 0.8"/>
     <use xlink:href="#m8d362cb02d" x="164.965314" y="114.678435" style="fill-opacity: 0.8; stroke: #000000; stroke-opacity: 0.8"/>
     <use xlink:href="#m8d362cb02d" x="232.510549" y="73.503659" style="fill-opacity: 0.8; stroke: #000000; stroke-opacity: 0.8"/>
     <use xlink:href="#m8d362cb02d" x="99.79912" y="154.344858" style="fill-opacity: 0.8; stroke: #000000; stroke-opacity: 0.8"/>
     <use xlink:href="#m8d362cb02d" x="187.02337" y="101.206334" style="fill-opacity: 0.8; stroke: #000000; stroke-opacity: 0.8"/>
     <use xlink:href="#m8d362cb02d" x="116.759999" y="144.037677" style="fill-opacity: 0.8; stroke: #000000; stroke-opacity: 0.8"/>
     <use xlink:href="#m8d362cb02d" x="231.974745" y="73.84692" style="fill-opacity: 0.8; stroke: #000000; stroke-opacity: 0.8"/>
     <use xlink:href="#m8d362cb02d" x="184.757956" y="102.644719" style="fill-opacity: 0.8; stroke: #000000; stroke-opacity: 0.8"/>
     <use xlink:href="#m8d362cb02d" x="92.731455" y="158.738054" style="fill-opacity: 0.8; stroke: #000000; stroke-opacity: 0.8"/>
     <use xlink:href="#m8d362cb02d" x="208.889455" y="87.984848" style="fill-opacity: 0.8; stroke: #000000; stroke-opacity: 0.8"/>
     <use xlink:href="#m8d362cb02d" x="146.167857" y="126.17683" style="fill-opacity: 0.8; stroke: #000000; stroke-opacity: 0.8"/>
     <use xlink:href="#m8d362cb02d" x="155.182304" y="120.644475" style="fill-opacity: 0.8; stroke: #000000; stroke-opacity: 0.8"/>
     <use xlink:href="#m8d362cb02d" x="123.880696" y="139.774525" style="fill-opacity: 0.8; stroke: #000000; stroke-opacity: 0.8"/>
     <use xlink:href="#m8d362cb02d" x="110.850636" y="147.665981" style="fill-opacity: 0.8; stroke: #000000; stroke-opacity: 0.8"/>
     <use xlink:href="#m8d362cb02d" x="193.031377" y="97.544464" style="fill-opacity: 0.8; stroke: #000000; stroke-opacity: 0.8"/>
     <use xlink:href="#m8d362cb02d" x="169.712136" y="111.754048" style="fill-opacity: 0.8; stroke: #000000; stroke-opacity: 0.8"/>
     <use xlink:href="#m8d362cb02d" x="215.640729" y="83.854853" style="fill-opacity: 0.8; stroke: #000000; stroke-opacity: 0.8"/>
     <use xlink:href="#m8d362cb02d" x="147.508734" y="125.365409" style="fill-opacity: 0.8; stroke: #000000; stroke-opacity: 0.8"/>
     <use xlink:href="#m8d362cb02d" x="175.49572" y="108.299907" style="fill-opacity: 0.8; stroke: #000000; stroke-opacity: 0.8"/>
     <use xlink:href="#m8d362cb02d" x="128.648164" y="136.786229" style="fill-opacity: 0.8; stroke: #000000; stroke-opacity: 0.8"/>
    </g>
   </g>
   <g id="PolyCollection_1">
    <path d="M 92.731455 158.677737 
L 92.731455 158.736137 
L 94.143365 157.875202 
L 95.555275 157.014285 
L 96.967185 156.153571 
L 98.379095 155.292764 
L 99.791005 154.432058 
L 101.202915 153.571403 
L 102.614825 152.710686 
L 104.026735 151.849741 
L 105.438645 150.989 
L 106.850555 150.128591 
L 108.262465 149.267895 
L 109.674375 148.407218 
L 111.086285 147.546705 
L 112.498195 146.685766 
L 113.910105 145.824969 
L 115.322015 144.964027 
L 116.733925 144.103445 
L 118.145835 143.242864 
L 119.557746 142.382112 
L 120.969656 141.521271 
L 122.381566 140.660433 
L 123.793476 139.799769 
L 125.205386 138.938855 
L 126.617296 138.078225 
L 128.029206 137.217745 
L 129.441116 136.357035 
L 130.853026 135.496361 
L 132.264936 134.635836 
L 133.676846 133.775306 
L 135.088756 132.91478 
L 136.500666 132.054255 
L 137.912576 131.19375 
L 139.324486 130.333194 
L 140.736396 129.472642 
L 142.148306 128.612141 
L 143.560216 127.751738 
L 144.972126 126.891121 
L 146.384036 126.030469 
L 147.795946 125.169716 
L 149.207856 124.309065 
L 150.619766 123.448505 
L 152.031676 122.58784 
L 153.443587 121.727196 
L 154.855497 120.866546 
L 156.267407 120.006203 
L 157.679317 119.14585 
L 159.091227 118.28554 
L 160.503137 117.425276 
L 161.915047 116.564856 
L 163.326957 115.704666 
L 164.738867 114.844275 
L 166.150777 113.984112 
L 167.562687 113.123309 
L 168.974597 112.263216 
L 170.386507 111.403317 
L 171.798417 110.543161 
L 173.210327 109.682987 
L 174.622237 108.82303 
L 176.034147 107.963125 
L 177.446057 107.102907 
L 178.857967 106.242394 
L 180.269877 105.382295 
L 181.681787 104.522478 
L 183.093697 103.66229 
L 184.505607 102.802326 
L 185.917518 101.94218 
L 187.329428 101.082265 
L 188.741338 100.22229 
L 190.153248 99.362391 
L 191.565158 98.502489 
L 192.977068 97.642588 
L 194.388978 96.782601 
L 195.800888 95.922593 
L 197.212798 95.06264 
L 198.624708 94.202684 
L 200.036618 93.342903 
L 201.448528 92.48285 
L 202.860438 91.622895 
L 204.272348 90.763039 
L 205.684258 89.903111 
L 207.096168 89.043109 
L 208.508078 88.183339 
L 209.919988 87.323506 
L 211.331898 86.463489 
L 212.743808 85.603467 
L 214.155718 84.743577 
L 215.567628 83.883767 
L 216.979538 83.023714 
L 218.391448 82.163661 
L 219.803359 81.303641 
L 221.215269 80.443756 
L 222.627179 79.583871 
L 224.039089 78.724088 
L 225.450999 77.86438 
L 226.862909 77.004739 
L 228.274819 76.144938 
L 229.686729 75.285168 
L 231.098639 74.425434 
L 232.510549 73.565709 
L 232.510549 73.499132 
L 232.510549 73.499132 
L 231.098639 74.360025 
L 229.686729 75.220905 
L 228.274819 76.081677 
L 226.862909 76.942382 
L 225.450999 77.803209 
L 224.039089 78.664035 
L 222.627179 79.524862 
L 221.215269 80.385689 
L 219.803359 81.246501 
L 218.391448 82.107285 
L 216.979538 82.967845 
L 215.567628 83.82841 
L 214.155718 84.689427 
L 212.743808 85.550337 
L 211.331898 86.411208 
L 209.919988 87.271923 
L 208.508078 88.132583 
L 207.096168 88.99328 
L 205.684258 89.853913 
L 204.272348 90.714876 
L 202.860438 91.575423 
L 201.448528 92.43597 
L 200.036618 93.296705 
L 198.624708 94.157678 
L 197.212798 95.01803 
L 195.800888 95.878721 
L 194.388978 96.739423 
L 192.977068 97.600347 
L 191.565158 98.461409 
L 190.153248 99.322012 
L 188.741338 100.182615 
L 187.329428 101.043221 
L 185.917518 101.903823 
L 184.505607 102.764424 
L 183.093697 103.625027 
L 181.681787 104.485724 
L 180.269877 105.346421 
L 178.857967 106.207118 
L 177.446057 107.067863 
L 176.034147 107.928455 
L 174.622237 108.789034 
L 173.210327 109.649355 
L 171.798417 110.510093 
L 170.386507 111.37063 
L 168.974597 112.231087 
L 167.562687 113.091761 
L 166.150777 113.952364 
L 164.738867 114.812878 
L 163.326957 115.673381 
L 161.915047 116.534026 
L 160.503137 117.394402 
L 159.091227 118.254806 
L 157.679317 119.115362 
L 156.267407 119.975865 
L 154.855497 120.836257 
L 153.443587 121.696996 
L 152.031676 122.557214 
L 150.619766 123.417462 
L 149.207856 124.277647 
L 147.795946 125.13778 
L 146.384036 125.997972 
L 144.972126 126.85809 
L 143.560216 127.718448 
L 142.148306 128.578814 
L 140.736396 129.439155 
L 139.324486 130.299467 
L 137.912576 131.159602 
L 136.500666 132.019578 
L 135.088756 132.879549 
L 133.676846 133.73979 
L 132.264936 134.600081 
L 130.853026 135.459878 
L 129.441116 136.31991 
L 128.029206 137.179878 
L 126.617296 138.039744 
L 125.205386 138.899821 
L 123.793476 139.759658 
L 122.381566 140.619578 
L 120.969656 141.479387 
L 119.557746 142.339197 
L 118.145835 143.199173 
L 116.733925 144.059144 
L 115.322015 144.919195 
L 113.910105 145.779132 
L 112.498195 146.639057 
L 111.086285 147.498975 
L 109.674375 148.358898 
L 108.262465 149.218824 
L 106.850555 150.078577 
L 105.438645 150.938459 
L 104.026735 151.798425 
L 102.614825 152.658402 
L 101.202915 153.518278 
L 99.791005 154.378048 
L 98.379095 155.237818 
L 96.967185 156.097757 
L 95.555275 156.957751 
L 94.143365 157.817745 
L 92.731455 158.677737 
z
" clip-path="url(#p322f20b453)" style="fill-opacity: 0.15"/>
   </g>
   <g id="matplotlib.axis_1">
    <g id="xtick_1">
     <g id="line2d_1">
      <defs>
       <path id="m8d75331175" d="M 0 0 
L 0 3.5 
" style="stroke: #000000; stroke-width: 0.8"/>
      </defs>
      <g>
       <use xlink:href="#m8d75331175" x="90.40471" y="163" style="stroke: #000000; stroke-width: 0.8"/>
      </g>
     </g>
     <g id="text_1">
      <!-- 0.0 -->
      <g transform="translate(82.453147 177.598437)scale(0.1 -0.1)">
       <defs>
        <path id="DejaVuSans-30" d="M 2034 4250 
Q 1547 4250 1301 3770 
Q 1056 3291 1056 2328 
Q 1056 1369 1301 889 
Q 1547 409 2034 409 
Q 2525 409 2770 889 
Q 3016 1369 3016 2328 
Q 3016 3291 2770 3770 
Q 2525 4250 2034 4250 
z
M 2034 4750 
Q 2819 4750 3233 4129 
Q 3647 3509 3647 2328 
Q 3647 1150 3233 529 
Q 2819 -91 2034 -91 
Q 1250 -91 836 529 
Q 422 1150 422 2328 
Q 422 3509 836 4129 
Q 1250 4750 2034 4750 
z
" transform="scale(0.015625)"/>
        <path id="DejaVuSans-2e" d="M 684 794 
L 1344 794 
L 1344 0 
L 684 0 
L 684 794 
z
" transform="scale(0.015625)"/>
       </defs>
       <use xlink:href="#DejaVuSans-30"/>
       <use xlink:href="#DejaVuSans-2e" x="63.623047"/>
       <use xlink:href="#DejaVuSans-30" x="95.410156"/>
      </g>
     </g>
    </g>
    <g id="xtick_2">
     <g id="line2d_2">
      <g>
       <use xlink:href="#m8d75331175" x="122.152268" y="163" style="stroke: #000000; stroke-width: 0.8"/>
      </g>
     </g>
     <g id="text_2">
      <!-- 0.2 -->
      <g transform="translate(114.200705 177.598437)scale(0.1 -0.1)">
       <defs>
        <path id="DejaVuSans-32" d="M 1228 531 
L 3431 531 
L 3431 0 
L 469 0 
L 469 531 
Q 828 903 1448 1529 
Q 2069 2156 2228 2338 
Q 2531 2678 2651 2914 
Q 2772 3150 2772 3378 
Q 2772 3750 2511 3984 
Q 2250 4219 1831 4219 
Q 1534 4219 1204 4116 
Q 875 4013 500 3803 
L 500 4441 
Q 881 4594 1212 4672 
Q 1544 4750 1819 4750 
Q 2544 4750 2975 4387 
Q 3406 4025 3406 3419 
Q 3406 3131 3298 2873 
Q 3191 2616 2906 2266 
Q 2828 2175 2409 1742 
Q 1991 1309 1228 531 
z
" transform="scale(0.015625)"/>
       </defs>
       <use xlink:href="#DejaVuSans-30"/>
       <use xlink:href="#DejaVuSans-2e" x="63.623047"/>
       <use xlink:href="#DejaVuSans-32" x="95.410156"/>
      </g>
     </g>
    </g>
    <g id="xtick_3">
     <g id="line2d_3">
      <g>
       <use xlink:href="#m8d75331175" x="153.899826" y="163" style="stroke: #000000; stroke-width: 0.8"/>
      </g>
     </g>
     <g id="text_3">
      <!-- 0.4 -->
      <g transform="translate(145.948263 177.598437)scale(0.1 -0.1)">
       <defs>
        <path id="DejaVuSans-34" d="M 2419 4116 
L 825 1625 
L 2419 1625 
L 2419 4116 
z
M 2253 4666 
L 3047 4666 
L 3047 1625 
L 3713 1625 
L 3713 1100 
L 3047 1100 
L 3047 0 
L 2419 0 
L 2419 1100 
L 313 1100 
L 313 1709 
L 2253 4666 
z
" transform="scale(0.015625)"/>
       </defs>
       <use xlink:href="#DejaVuSans-30"/>
       <use xlink:href="#DejaVuSans-2e" x="63.623047"/>
       <use xlink:href="#DejaVuSans-34" x="95.410156"/>
      </g>
     </g>
    </g>
    <g id="xtick_4">
     <g id="line2d_4">
      <g>
       <use xlink:href="#m8d75331175" x="185.647384" y="163" style="stroke: #000000; stroke-width: 0.8"/>
      </g>
     </g>
     <g id="text_4">
      <!-- 0.6 -->
      <g transform="translate(177.695821 177.598437)scale(0.1 -0.1)">
       <defs>
        <path id="DejaVuSans-36" d="M 2113 2584 
Q 1688 2584 1439 2293 
Q 1191 2003 1191 1497 
Q 1191 994 1439 701 
Q 1688 409 2113 409 
Q 2538 409 2786 701 
Q 3034 994 3034 1497 
Q 3034 2003 2786 2293 
Q 2538 2584 2113 2584 
z
M 3366 4563 
L 3366 3988 
Q 3128 4100 2886 4159 
Q 2644 4219 2406 4219 
Q 1781 4219 1451 3797 
Q 1122 3375 1075 2522 
Q 1259 2794 1537 2939 
Q 1816 3084 2150 3084 
Q 2853 3084 3261 2657 
Q 3669 2231 3669 1497 
Q 3669 778 3244 343 
Q 2819 -91 2113 -91 
Q 1303 -91 875 529 
Q 447 1150 447 2328 
Q 447 3434 972 4092 
Q 1497 4750 2381 4750 
Q 2619 4750 2861 4703 
Q 3103 4656 3366 4563 
z
" transform="scale(0.015625)"/>
       </defs>
       <use xlink:href="#DejaVuSans-30"/>
       <use xlink:href="#DejaVuSans-2e" x="63.623047"/>
       <use xlink:href="#DejaVuSans-36" x="95.410156"/>
      </g>
     </g>
    </g>
    <g id="xtick_5">
     <g id="line2d_5">
      <g>
       <use xlink:href="#m8d75331175" x="217.394942" y="163" style="stroke: #000000; stroke-width: 0.8"/>
      </g>
     </g>
     <g id="text_5">
      <!-- 0.8 -->
      <g transform="translate(209.443379 177.598437)scale(0.1 -0.1)">
       <defs>
        <path id="DejaVuSans-38" d="M 2034 2216 
Q 1584 2216 1326 1975 
Q 1069 1734 1069 1313 
Q 1069 891 1326 650 
Q 1584 409 2034 409 
Q 2484 409 2743 651 
Q 3003 894 3003 1313 
Q 3003 1734 2745 1975 
Q 2488 2216 2034 2216 
z
M 1403 2484 
Q 997 2584 770 2862 
Q 544 3141 544 3541 
Q 544 4100 942 4425 
Q 1341 4750 2034 4750 
Q 2731 4750 3128 4425 
Q 3525 4100 3525 3541 
Q 3525 3141 3298 2862 
Q 3072 2584 2669 2484 
Q 3125 2378 3379 2068 
Q 3634 1759 3634 1313 
Q 3634 634 3220 271 
Q 2806 -91 2034 -91 
Q 1263 -91 848 271 
Q 434 634 434 1313 
Q 434 1759 690 2068 
Q 947 2378 1403 2484 
z
M 1172 3481 
Q 1172 3119 1398 2916 
Q 1625 2713 2034 2713 
Q 2441 2713 2670 2916 
Q 2900 3119 2900 3481 
Q 2900 3844 2670 4047 
Q 2441 4250 2034 4250 
Q 1625 4250 1398 4047 
Q 1172 3844 1172 3481 
z
" transform="scale(0.015625)"/>
       </defs>
       <use xlink:href="#DejaVuSans-30"/>
       <use xlink:href="#DejaVuSans-2e" x="63.623047"/>
       <use xlink:href="#DejaVuSans-38" x="95.410156"/>
      </g>
     </g>
    </g>
    <g id="xtick_6">
     <g id="line2d_6">
      <g>
       <use xlink:href="#m8d75331175" x="249.1425" y="163" style="stroke: #000000; stroke-width: 0.8"/>
      </g>
     </g>
     <g id="text_6">
      <!-- 1.0 -->
      <g transform="translate(241.190937 177.598437)scale(0.1 -0.1)">
       <defs>
        <path id="DejaVuSans-31" d="M 794 531 
L 1825 531 
L 1825 4091 
L 703 3866 
L 703 4441 
L 1819 4666 
L 2450 4666 
L 2450 531 
L 3481 531 
L 3481 0 
L 794 0 
L 794 531 
z
" transform="scale(0.015625)"/>
       </defs>
       <use xlink:href="#DejaVuSans-31"/>
       <use xlink:href="#DejaVuSans-2e" x="63.623047"/>
       <use xlink:href="#DejaVuSans-30" x="95.410156"/>
      </g>
     </g>
    </g>
   </g>
   <g id="matplotlib.axis_2">
    <g id="ytick_1">
     <g id="line2d_7">
      <defs>
       <path id="m7ed71582b1" d="M 0 0 
L -3.5 0 
" style="stroke: #000000; stroke-width: 0.8"/>
      </defs>
      <g>
       <use xlink:href="#m7ed71582b1" x="85.7425" y="160.126538" style="stroke: #000000; stroke-width: 0.8"/>
      </g>
     </g>
     <g id="text_7">
      <!-- 0.0 -->
      <g transform="translate(62.839375 163.925757)scale(0.1 -0.1)">
       <use xlink:href="#DejaVuSans-30"/>
       <use xlink:href="#DejaVuSans-2e" x="63.623047"/>
       <use xlink:href="#DejaVuSans-30" x="95.410156"/>
      </g>
     </g>
    </g>
    <g id="ytick_2">
     <g id="line2d_8">
      <g>
       <use xlink:href="#m7ed71582b1" x="85.7425" y="140.78123" style="stroke: #000000; stroke-width: 0.8"/>
      </g>
     </g>
     <g id="text_8">
      <!-- 0.2 -->
      <g transform="translate(62.839375 144.580449)scale(0.1 -0.1)">
       <use xlink:href="#DejaVuSans-30"/>
       <use xlink:href="#DejaVuSans-2e" x="63.623047"/>
       <use xlink:href="#DejaVuSans-32" x="95.410156"/>
      </g>
     </g>
    </g>
    <g id="ytick_3">
     <g id="line2d_9">
      <g>
       <use xlink:href="#m7ed71582b1" x="85.7425" y="121.435923" style="stroke: #000000; stroke-width: 0.8"/>
      </g>
     </g>
     <g id="text_9">
      <!-- 0.4 -->
      <g transform="translate(62.839375 125.235142)scale(0.1 -0.1)">
       <use xlink:href="#DejaVuSans-30"/>
       <use xlink:href="#DejaVuSans-2e" x="63.623047"/>
       <use xlink:href="#DejaVuSans-34" x="95.410156"/>
      </g>
     </g>
    </g>
    <g id="ytick_4">
     <g id="line2d_10">
      <g>
       <use xlink:href="#m7ed71582b1" x="85.7425" y="102.090615" style="stroke: #000000; stroke-width: 0.8"/>
      </g>
     </g>
     <g id="text_10">
      <!-- 0.6 -->
      <g transform="translate(62.839375 105.889834)scale(0.1 -0.1)">
       <use xlink:href="#DejaVuSans-30"/>
       <use xlink:href="#DejaVuSans-2e" x="63.623047"/>
       <use xlink:href="#DejaVuSans-36" x="95.410156"/>
      </g>
     </g>
    </g>
    <g id="ytick_5">
     <g id="line2d_11">
      <g>
       <use xlink:href="#m7ed71582b1" x="85.7425" y="82.745308" style="stroke: #000000; stroke-width: 0.8"/>
      </g>
     </g>
     <g id="text_11">
      <!-- 0.8 -->
      <g transform="translate(62.839375 86.544526)scale(0.1 -0.1)">
       <use xlink:href="#DejaVuSans-30"/>
       <use xlink:href="#DejaVuSans-2e" x="63.623047"/>
       <use xlink:href="#DejaVuSans-38" x="95.410156"/>
      </g>
     </g>
    </g>
    <g id="ytick_6">
     <g id="line2d_12">
      <g>
       <use xlink:href="#m7ed71582b1" x="85.7425" y="63.4" style="stroke: #000000; stroke-width: 0.8"/>
      </g>
     </g>
     <g id="text_12">
      <!-- 1.0 -->
      <g transform="translate(62.839375 67.199219)scale(0.1 -0.1)">
       <use xlink:href="#DejaVuSans-31"/>
       <use xlink:href="#DejaVuSans-2e" x="63.623047"/>
       <use xlink:href="#DejaVuSans-30" x="95.410156"/>
      </g>
     </g>
    </g>
   </g>
   <g id="line2d_13">
    <path d="M 92.731455 158.707464 
L 94.143365 157.847102 
L 95.555275 156.986741 
L 96.967185 156.12638 
L 98.379095 155.266019 
L 99.791005 154.405657 
L 101.202915 153.545296 
L 102.614825 152.684935 
L 104.026735 151.824574 
L 105.438645 150.964212 
L 106.850555 150.103851 
L 108.262465 149.24349 
L 109.674375 148.383129 
L 111.086285 147.522767 
L 112.498195 146.662406 
L 113.910105 145.802045 
L 115.322015 144.941684 
L 116.733925 144.081322 
L 118.145835 143.220961 
L 119.557746 142.3606 
L 120.969656 141.500239 
L 122.381566 140.639877 
L 123.793476 139.779516 
L 125.205386 138.919155 
L 126.617296 138.058794 
L 128.029206 137.198432 
L 129.441116 136.338071 
L 130.853026 135.47771 
L 132.264936 134.617349 
L 133.676846 133.756987 
L 135.088756 132.896626 
L 136.500666 132.036265 
L 137.912576 131.175903 
L 139.324486 130.315542 
L 140.736396 129.455181 
L 142.148306 128.59482 
L 143.560216 127.734458 
L 144.972126 126.874097 
L 146.384036 126.013736 
L 147.795946 125.153375 
L 149.207856 124.293013 
L 150.619766 123.432652 
L 152.031676 122.572291 
L 153.443587 121.71193 
L 154.855497 120.851568 
L 156.267407 119.991207 
L 157.679317 119.130846 
L 159.091227 118.270485 
L 160.503137 117.410123 
L 161.915047 116.549762 
L 163.326957 115.689401 
L 164.738867 114.82904 
L 166.150777 113.968678 
L 167.562687 113.108317 
L 168.974597 112.247956 
L 170.386507 111.387595 
L 171.798417 110.527233 
L 173.210327 109.666872 
L 174.622237 108.806511 
L 176.034147 107.94615 
L 177.446057 107.085788 
L 178.857967 106.225427 
L 180.269877 105.365066 
L 181.681787 104.504705 
L 183.093697 103.644343 
L 184.505607 102.783982 
L 185.917518 101.923621 
L 187.329428 101.06326 
L 188.741338 100.202898 
L 190.153248 99.342537 
L 191.565158 98.482176 
L 192.977068 97.621815 
L 194.388978 96.761453 
L 195.800888 95.901092 
L 197.212798 95.040731 
L 198.624708 94.18037 
L 200.036618 93.320008 
L 201.448528 92.459647 
L 202.860438 91.599286 
L 204.272348 90.738925 
L 205.684258 89.878563 
L 207.096168 89.018202 
L 208.508078 88.157841 
L 209.919988 87.29748 
L 211.331898 86.437118 
L 212.743808 85.576757 
L 214.155718 84.716396 
L 215.567628 83.856035 
L 216.979538 82.995673 
L 218.391448 82.135312 
L 219.803359 81.274951 
L 221.215269 80.414589 
L 222.627179 79.554228 
L 224.039089 78.693867 
L 225.450999 77.833506 
L 226.862909 76.973144 
L 228.274819 76.112783 
L 229.686729 75.252422 
L 231.098639 74.392061 
L 232.510549 73.531699 
" clip-path="url(#p322f20b453)" style="fill: none; stroke: #000000; stroke-width: 2.25; stroke-linecap: square"/>
   </g>
   <g id="patch_3">
    <path d="M 85.7425 163 
L 85.7425 63.4 
" style="fill: none; stroke: #000000; stroke-width: 0.8; stroke-linejoin: miter; stroke-linecap: square"/>
   </g>
   <g id="patch_4">
    <path d="M 249.1425 163 
L 249.1425 63.4 
" style="fill: none; stroke: #000000; stroke-width: 0.8; stroke-linejoin: miter; stroke-linecap: square"/>
   </g>
   <g id="patch_5">
    <path d="M 85.7425 163 
L 249.1425 163 
" style="fill: none; stroke: #000000; stroke-width: 0.8; stroke-linejoin: miter; stroke-linecap: square"/>
   </g>
   <g id="patch_6">
    <path d="M 85.7425 63.4 
L 249.1425 63.4 
" style="fill: none; stroke: #000000; stroke-width: 0.8; stroke-linejoin: miter; stroke-linecap: square"/>
   </g>
   <g id="text_13">
    <!-- α -->
    <g transform="translate(163.487188 57.4)scale(0.12 -0.12)">
     <defs>
      <path id="DejaVuSans-3b1" d="M 2644 1628 
L 2506 2350 
Q 2366 3091 1809 3091 
Q 1391 3091 1200 2747 
Q 959 2316 959 1747 
Q 959 1059 1194 731 
Q 1431 397 1809 397 
Q 2228 397 2453 1063 
L 2644 1628 
z
M 2966 2584 
L 3275 3500 
L 3788 3500 
L 3147 1603 
L 3272 919 
Q 3300 766 3409 638 
Q 3538 488 3638 488 
L 3913 488 
L 3913 0 
L 3569 0 
Q 3275 0 3013 263 
Q 2884 394 2831 669 
Q 2688 322 2394 50 
Q 2256 -78 1809 -78 
Q 1075 -78 719 397 
Q 353 888 353 1747 
Q 353 2666 750 3097 
Q 1191 3578 1809 3578 
Q 2781 3578 2966 2584 
z
" transform="scale(0.015625)"/>
     </defs>
     <use xlink:href="#DejaVuSans-3b1"/>
    </g>
   </g>
  </g>
  <g id="text_14">
   <!-- Simulated vs Recovered α Parameters -->
   <g transform="translate(7.2 19.3575)scale(0.16 -0.16)">
    <defs>
     <path id="DejaVuSans-53" d="M 3425 4513 
L 3425 3897 
Q 3066 4069 2747 4153 
Q 2428 4238 2131 4238 
Q 1616 4238 1336 4038 
Q 1056 3838 1056 3469 
Q 1056 3159 1242 3001 
Q 1428 2844 1947 2747 
L 2328 2669 
Q 3034 2534 3370 2195 
Q 3706 1856 3706 1288 
Q 3706 609 3251 259 
Q 2797 -91 1919 -91 
Q 1588 -91 1214 -16 
Q 841 59 441 206 
L 441 856 
Q 825 641 1194 531 
Q 1563 422 1919 422 
Q 2459 422 2753 634 
Q 3047 847 3047 1241 
Q 3047 1584 2836 1778 
Q 2625 1972 2144 2069 
L 1759 2144 
Q 1053 2284 737 2584 
Q 422 2884 422 3419 
Q 422 4038 858 4394 
Q 1294 4750 2059 4750 
Q 2388 4750 2728 4690 
Q 3069 4631 3425 4513 
z
" transform="scale(0.015625)"/>
     <path id="DejaVuSans-69" d="M 603 3500 
L 1178 3500 
L 1178 0 
L 603 0 
L 603 3500 
z
M 603 4863 
L 1178 4863 
L 1178 4134 
L 603 4134 
L 603 4863 
z
" transform="scale(0.015625)"/>
     <path id="DejaVuSans-6d" d="M 3328 2828 
Q 3544 3216 3844 3400 
Q 4144 3584 4550 3584 
Q 5097 3584 5394 3201 
Q 5691 2819 5691 2113 
L 5691 0 
L 5113 0 
L 5113 2094 
Q 5113 2597 4934 2840 
Q 4756 3084 4391 3084 
Q 3944 3084 3684 2787 
Q 3425 2491 3425 1978 
L 3425 0 
L 2847 0 
L 2847 2094 
Q 2847 2600 2669 2842 
Q 2491 3084 2119 3084 
Q 1678 3084 1418 2786 
Q 1159 2488 1159 1978 
L 1159 0 
L 581 0 
L 581 3500 
L 1159 3500 
L 1159 2956 
Q 1356 3278 1631 3431 
Q 1906 3584 2284 3584 
Q 2666 3584 2933 3390 
Q 3200 3197 3328 2828 
z
" transform="scale(0.015625)"/>
     <path id="DejaVuSans-75" d="M 544 1381 
L 544 3500 
L 1119 3500 
L 1119 1403 
Q 1119 906 1312 657 
Q 1506 409 1894 409 
Q 2359 409 2629 706 
Q 2900 1003 2900 1516 
L 2900 3500 
L 3475 3500 
L 3475 0 
L 2900 0 
L 2900 538 
Q 2691 219 2414 64 
Q 2138 -91 1772 -91 
Q 1169 -91 856 284 
Q 544 659 544 1381 
z
M 1991 3584 
L 1991 3584 
z
" transform="scale(0.015625)"/>
     <path id="DejaVuSans-6c" d="M 603 4863 
L 1178 4863 
L 1178 0 
L 603 0 
L 603 4863 
z
" transform="scale(0.015625)"/>
     <path id="DejaVuSans-61" d="M 2194 1759 
Q 1497 1759 1228 1600 
Q 959 1441 959 1056 
Q 959 750 1161 570 
Q 1363 391 1709 391 
Q 2188 391 2477 730 
Q 2766 1069 2766 1631 
L 2766 1759 
L 2194 1759 
z
M 3341 1997 
L 3341 0 
L 2766 0 
L 2766 531 
Q 2569 213 2275 61 
Q 1981 -91 1556 -91 
Q 1019 -91 701 211 
Q 384 513 384 1019 
Q 384 1609 779 1909 
Q 1175 2209 1959 2209 
L 2766 2209 
L 2766 2266 
Q 2766 2663 2505 2880 
Q 2244 3097 1772 3097 
Q 1472 3097 1187 3025 
Q 903 2953 641 2809 
L 641 3341 
Q 956 3463 1253 3523 
Q 1550 3584 1831 3584 
Q 2591 3584 2966 3190 
Q 3341 2797 3341 1997 
z
" transform="scale(0.015625)"/>
     <path id="DejaVuSans-74" d="M 1172 4494 
L 1172 3500 
L 2356 3500 
L 2356 3053 
L 1172 3053 
L 1172 1153 
Q 1172 725 1289 603 
Q 1406 481 1766 481 
L 2356 481 
L 2356 0 
L 1766 0 
Q 1100 0 847 248 
Q 594 497 594 1153 
L 594 3053 
L 172 3053 
L 172 3500 
L 594 3500 
L 594 4494 
L 1172 4494 
z
" transform="scale(0.015625)"/>
     <path id="DejaVuSans-65" d="M 3597 1894 
L 3597 1613 
L 953 1613 
Q 991 1019 1311 708 
Q 1631 397 2203 397 
Q 2534 397 2845 478 
Q 3156 559 3463 722 
L 3463 178 
Q 3153 47 2828 -22 
Q 2503 -91 2169 -91 
Q 1331 -91 842 396 
Q 353 884 353 1716 
Q 353 2575 817 3079 
Q 1281 3584 2069 3584 
Q 2775 3584 3186 3129 
Q 3597 2675 3597 1894 
z
M 3022 2063 
Q 3016 2534 2758 2815 
Q 2500 3097 2075 3097 
Q 1594 3097 1305 2825 
Q 1016 2553 972 2059 
L 3022 2063 
z
" transform="scale(0.015625)"/>
     <path id="DejaVuSans-64" d="M 2906 2969 
L 2906 4863 
L 3481 4863 
L 3481 0 
L 2906 0 
L 2906 525 
Q 2725 213 2448 61 
Q 2172 -91 1784 -91 
Q 1150 -91 751 415 
Q 353 922 353 1747 
Q 353 2572 751 3078 
Q 1150 3584 1784 3584 
Q 2172 3584 2448 3432 
Q 2725 3281 2906 2969 
z
M 947 1747 
Q 947 1113 1208 752 
Q 1469 391 1925 391 
Q 2381 391 2643 752 
Q 2906 1113 2906 1747 
Q 2906 2381 2643 2742 
Q 2381 3103 1925 3103 
Q 1469 3103 1208 2742 
Q 947 2381 947 1747 
z
" transform="scale(0.015625)"/>
     <path id="DejaVuSans-20" transform="scale(0.015625)"/>
     <path id="DejaVuSans-76" d="M 191 3500 
L 800 3500 
L 1894 563 
L 2988 3500 
L 3597 3500 
L 2284 0 
L 1503 0 
L 191 3500 
z
" transform="scale(0.015625)"/>
     <path id="DejaVuSans-73" d="M 2834 3397 
L 2834 2853 
Q 2591 2978 2328 3040 
Q 2066 3103 1784 3103 
Q 1356 3103 1142 2972 
Q 928 2841 928 2578 
Q 928 2378 1081 2264 
Q 1234 2150 1697 2047 
L 1894 2003 
Q 2506 1872 2764 1633 
Q 3022 1394 3022 966 
Q 3022 478 2636 193 
Q 2250 -91 1575 -91 
Q 1294 -91 989 -36 
Q 684 19 347 128 
L 347 722 
Q 666 556 975 473 
Q 1284 391 1588 391 
Q 1994 391 2212 530 
Q 2431 669 2431 922 
Q 2431 1156 2273 1281 
Q 2116 1406 1581 1522 
L 1381 1569 
Q 847 1681 609 1914 
Q 372 2147 372 2553 
Q 372 3047 722 3315 
Q 1072 3584 1716 3584 
Q 2034 3584 2315 3537 
Q 2597 3491 2834 3397 
z
" transform="scale(0.015625)"/>
     <path id="DejaVuSans-52" d="M 2841 2188 
Q 3044 2119 3236 1894 
Q 3428 1669 3622 1275 
L 4263 0 
L 3584 0 
L 2988 1197 
Q 2756 1666 2539 1819 
Q 2322 1972 1947 1972 
L 1259 1972 
L 1259 0 
L 628 0 
L 628 4666 
L 2053 4666 
Q 2853 4666 3247 4331 
Q 3641 3997 3641 3322 
Q 3641 2881 3436 2590 
Q 3231 2300 2841 2188 
z
M 1259 4147 
L 1259 2491 
L 2053 2491 
Q 2509 2491 2742 2702 
Q 2975 2913 2975 3322 
Q 2975 3731 2742 3939 
Q 2509 4147 2053 4147 
L 1259 4147 
z
" transform="scale(0.015625)"/>
     <path id="DejaVuSans-63" d="M 3122 3366 
L 3122 2828 
Q 2878 2963 2633 3030 
Q 2388 3097 2138 3097 
Q 1578 3097 1268 2742 
Q 959 2388 959 1747 
Q 959 1106 1268 751 
Q 1578 397 2138 397 
Q 2388 397 2633 464 
Q 2878 531 3122 666 
L 3122 134 
Q 2881 22 2623 -34 
Q 2366 -91 2075 -91 
Q 1284 -91 818 406 
Q 353 903 353 1747 
Q 353 2603 823 3093 
Q 1294 3584 2113 3584 
Q 2378 3584 2631 3529 
Q 2884 3475 3122 3366 
z
" transform="scale(0.015625)"/>
     <path id="DejaVuSans-6f" d="M 1959 3097 
Q 1497 3097 1228 2736 
Q 959 2375 959 1747 
Q 959 1119 1226 758 
Q 1494 397 1959 397 
Q 2419 397 2687 759 
Q 2956 1122 2956 1747 
Q 2956 2369 2687 2733 
Q 2419 3097 1959 3097 
z
M 1959 3584 
Q 2709 3584 3137 3096 
Q 3566 2609 3566 1747 
Q 3566 888 3137 398 
Q 2709 -91 1959 -91 
Q 1206 -91 779 398 
Q 353 888 353 1747 
Q 353 2609 779 3096 
Q 1206 3584 1959 3584 
z
" transform="scale(0.015625)"/>
     <path id="DejaVuSans-72" d="M 2631 2963 
Q 2534 3019 2420 3045 
Q 2306 3072 2169 3072 
Q 1681 3072 1420 2755 
Q 1159 2438 1159 1844 
L 1159 0 
L 581 0 
L 581 3500 
L 1159 3500 
L 1159 2956 
Q 1341 3275 1631 3429 
Q 1922 3584 2338 3584 
Q 2397 3584 2469 3576 
Q 2541 3569 2628 3553 
L 2631 2963 
z
" transform="scale(0.015625)"/>
     <path id="DejaVuSans-50" d="M 1259 4147 
L 1259 2394 
L 2053 2394 
Q 2494 2394 2734 2622 
Q 2975 2850 2975 3272 
Q 2975 3691 2734 3919 
Q 2494 4147 2053 4147 
L 1259 4147 
z
M 628 4666 
L 2053 4666 
Q 2838 4666 3239 4311 
Q 3641 3956 3641 3272 
Q 3641 2581 3239 2228 
Q 2838 1875 2053 1875 
L 1259 1875 
L 1259 0 
L 628 0 
L 628 4666 
z
" transform="scale(0.015625)"/>
    </defs>
    <use xlink:href="#DejaVuSans-53"/>
    <use xlink:href="#DejaVuSans-69" x="63.476562"/>
    <use xlink:href="#DejaVuSans-6d" x="91.259766"/>
    <use xlink:href="#DejaVuSans-75" x="188.671875"/>
    <use xlink:href="#DejaVuSans-6c" x="252.050781"/>
    <use xlink:href="#DejaVuSans-61" x="279.833984"/>
    <use xlink:href="#DejaVuSans-74" x="341.113281"/>
    <use xlink:href="#DejaVuSans-65" x="380.322266"/>
    <use xlink:href="#DejaVuSans-64" x="441.845703"/>
    <use xlink:href="#DejaVuSans-20" x="505.322266"/>
    <use xlink:href="#DejaVuSans-76" x="537.109375"/>
    <use xlink:href="#DejaVuSans-73" x="596.289062"/>
    <use xlink:href="#DejaVuSans-20" x="648.388672"/>
    <use xlink:href="#DejaVuSans-52" x="680.175781"/>
    <use xlink:href="#DejaVuSans-65" x="745.158203"/>
    <use xlink:href="#DejaVuSans-63" x="806.681641"/>
    <use xlink:href="#DejaVuSans-6f" x="861.662109"/>
    <use xlink:href="#DejaVuSans-76" x="922.84375"/>
    <use xlink:href="#DejaVuSans-65" x="982.023438"/>
    <use xlink:href="#DejaVuSans-72" x="1043.546875"/>
    <use xlink:href="#DejaVuSans-65" x="1082.410156"/>
    <use xlink:href="#DejaVuSans-64" x="1143.933594"/>
    <use xlink:href="#DejaVuSans-20" x="1207.410156"/>
    <use xlink:href="#DejaVuSans-3b1" x="1239.197266"/>
    <use xlink:href="#DejaVuSans-20" x="1305.115234"/>
    <use xlink:href="#DejaVuSans-50" x="1336.902344"/>
    <use xlink:href="#DejaVuSans-61" x="1392.705078"/>
    <use xlink:href="#DejaVuSans-72" x="1453.984375"/>
    <use xlink:href="#DejaVuSans-61" x="1495.097656"/>
    <use xlink:href="#DejaVuSans-6d" x="1556.376953"/>
    <use xlink:href="#DejaVuSans-65" x="1653.789062"/>
    <use xlink:href="#DejaVuSans-74" x="1715.3125"/>
    <use xlink:href="#DejaVuSans-65" x="1754.521484"/>
    <use xlink:href="#DejaVuSans-72" x="1816.044922"/>
    <use xlink:href="#DejaVuSans-73" x="1857.158203"/>
   </g>
  </g>
  <g id="text_15">
   <!-- Simulated -->
   <g transform="translate(119.51625 198.815)scale(0.16 -0.16)">
    <use xlink:href="#DejaVuSans-53"/>
    <use xlink:href="#DejaVuSans-69" x="63.476562"/>
    <use xlink:href="#DejaVuSans-6d" x="91.259766"/>
    <use xlink:href="#DejaVuSans-75" x="188.671875"/>
    <use xlink:href="#DejaVuSans-6c" x="252.050781"/>
    <use xlink:href="#DejaVuSans-61" x="279.833984"/>
    <use xlink:href="#DejaVuSans-74" x="341.113281"/>
    <use xlink:href="#DejaVuSans-65" x="380.322266"/>
    <use xlink:href="#DejaVuSans-64" x="441.845703"/>
   </g>
  </g>
  <g id="text_16">
   <!-- Recovered -->
   <g transform="translate(52.0375 142.9825)rotate(-90)scale(0.16 -0.16)">
    <use xlink:href="#DejaVuSans-52"/>
    <use xlink:href="#DejaVuSans-65" x="64.982422"/>
    <use xlink:href="#DejaVuSans-63" x="126.505859"/>
    <use xlink:href="#DejaVuSans-6f" x="181.486328"/>
    <use xlink:href="#DejaVuSans-76" x="242.667969"/>
    <use xlink:href="#DejaVuSans-65" x="301.847656"/>
    <use xlink:href="#DejaVuSans-72" x="363.371094"/>
    <use xlink:href="#DejaVuSans-65" x="402.234375"/>
    <use xlink:href="#DejaVuSans-64" x="463.757812"/>
   </g>
  </g>
 </g>
 <defs>
  <clipPath id="p322f20b453">
   <rect x="85.7425" y="63.4" width="163.4" height="99.6"/>
  </clipPath>
 </defs>
</svg>
