<?xml version="1.0" encoding="utf-8" standalone="no"?>
<!DOCTYPE svg PUBLIC "-//W3C//DTD SVG 1.1//EN"
  "http://www.w3.org/Graphics/SVG/1.1/DTD/svg11.dtd">
<!-- Created with matplotlib (https://matplotlib.org/) -->
<svg height="209.3425pt" version="1.1" viewBox="0 0 319.885 209.3425" width="319.885pt" xmlns="http://www.w3.org/2000/svg" xmlns:xlink="http://www.w3.org/1999/xlink">
 <metadata>
  <rdf:RDF xmlns:cc="http://creativecommons.org/ns#" xmlns:dc="http://purl.org/dc/elements/1.1/" xmlns:rdf="http://www.w3.org/1999/02/22-rdf-syntax-ns#">
   <cc:Work>
    <dc:type rdf:resource="http://purl.org/dc/dcmitype/StillImage"/>
    <dc:date>2022-04-14T18:41:36.239594</dc:date>
    <dc:format>image/svg+xml</dc:format>
    <dc:creator>
     <cc:Agent>
      <dc:title>Matplotlib v3.3.2, https://matplotlib.org/</dc:title>
     </cc:Agent>
    </dc:creator>
   </cc:Work>
  </rdf:RDF>
 </metadata>
 <defs>
  <style type="text/css">*{stroke-linecap:butt;stroke-linejoin:round;}</style>
 </defs>
 <g id="figure_1">
  <g id="patch_1">
   <path d="M 0 209.3425 
L 319.885 209.3425 
L 319.885 0 
L 0 0 
z
" style="fill:none;"/>
  </g>
  <g id="axes_1">
   <g id="patch_2">
    <path d="M 85.7425 163 
L 249.1425 163 
L 249.1425 63.4 
L 85.7425 63.4 
z
" style="fill:#ffffff;"/>
   </g>
   <g id="PathCollection_1">
    <defs>
     <path d="M 0 3 
C 0.795609 3 1.55874 2.683901 2.12132 2.12132 
C 2.683901 1.55874 3 0.795609 3 0 
C 3 -0.795609 2.683901 -1.55874 2.12132 -2.12132 
C 1.55874 -2.683901 0.795609 -3 0 -3 
C -0.795609 -3 -1.55874 -2.683901 -2.12132 -2.12132 
C -2.683901 -1.55874 -3 -0.795609 -3 0 
C -3 0.795609 -2.683901 1.55874 -2.12132 2.12132 
C -1.55874 2.683901 -0.795609 3 0 3 
z
" id="m617d011658" style="stroke:#000000;stroke-opacity:0.8;"/>
    </defs>
    <g clip-path="url(#p1132dd3cd4)">
     <use style="fill-opacity:0.8;stroke:#000000;stroke-opacity:0.8;" x="236.635489" xlink:href="#m617d011658" y="71.02955"/>
     <use style="fill-opacity:0.8;stroke:#000000;stroke-opacity:0.8;" x="142.467448" xlink:href="#m617d011658" y="128.448567"/>
     <use style="fill-opacity:0.8;stroke:#000000;stroke-opacity:0.8;" x="223.330551" xlink:href="#m617d011658" y="79.154156"/>
     <use style="fill-opacity:0.8;stroke:#000000;stroke-opacity:0.8;" x="183.242166" xlink:href="#m617d011658" y="103.525957"/>
     <use style="fill-opacity:0.8;stroke:#000000;stroke-opacity:0.8;" x="217.815382" xlink:href="#m617d011658" y="82.505342"/>
     <use style="fill-opacity:0.8;stroke:#000000;stroke-opacity:0.8;" x="114.546394" xlink:href="#m617d011658" y="145.408484"/>
     <use style="fill-opacity:0.8;stroke:#000000;stroke-opacity:0.8;" x="228.539678" xlink:href="#m617d011658" y="75.927759"/>
     <use style="fill-opacity:0.8;stroke:#000000;stroke-opacity:0.8;" x="211.406896" xlink:href="#m617d011658" y="86.392976"/>
     <use style="fill-opacity:0.8;stroke:#000000;stroke-opacity:0.8;" x="156.021819" xlink:href="#m617d011658" y="120.12414"/>
     <use style="fill-opacity:0.8;stroke:#000000;stroke-opacity:0.8;" x="172.672995" xlink:href="#m617d011658" y="109.987452"/>
     <use style="fill-opacity:0.8;stroke:#000000;stroke-opacity:0.8;" x="150.562214" xlink:href="#m617d011658" y="123.519017"/>
     <use style="fill-opacity:0.8;stroke:#000000;stroke-opacity:0.8;" x="184.866531" xlink:href="#m617d011658" y="102.509371"/>
     <use style="fill-opacity:0.8;stroke:#000000;stroke-opacity:0.8;" x="215.605566" xlink:href="#m617d011658" y="83.870231"/>
     <use style="fill-opacity:0.8;stroke:#000000;stroke-opacity:0.8;" x="179.890286" xlink:href="#m617d011658" y="105.599813"/>
     <use style="fill-opacity:0.8;stroke:#000000;stroke-opacity:0.8;" x="160.666016" xlink:href="#m617d011658" y="117.300741"/>
     <use style="fill-opacity:0.8;stroke:#000000;stroke-opacity:0.8;" x="130.620061" xlink:href="#m617d011658" y="135.672593"/>
     <use style="fill-opacity:0.8;stroke:#000000;stroke-opacity:0.8;" x="169.312759" xlink:href="#m617d011658" y="112.114108"/>
     <use style="fill-opacity:0.8;stroke:#000000;stroke-opacity:0.8;" x="180.856035" xlink:href="#m617d011658" y="104.988693"/>
     <use style="fill-opacity:0.8;stroke:#000000;stroke-opacity:0.8;" x="104.92979" xlink:href="#m617d011658" y="151.331072"/>
     <use style="fill-opacity:0.8;stroke:#000000;stroke-opacity:0.8;" x="152.766215" xlink:href="#m617d011658" y="122.157"/>
     <use style="fill-opacity:0.8;stroke:#000000;stroke-opacity:0.8;" x="121.370849" xlink:href="#m617d011658" y="141.29323"/>
     <use style="fill-opacity:0.8;stroke:#000000;stroke-opacity:0.8;" x="184.555524" xlink:href="#m617d011658" y="102.737905"/>
     <use style="fill-opacity:0.8;stroke:#000000;stroke-opacity:0.8;" x="174.504265" xlink:href="#m617d011658" y="108.869031"/>
     <use style="fill-opacity:0.8;stroke:#000000;stroke-opacity:0.8;" x="97.125106" xlink:href="#m617d011658" y="156.033872"/>
     <use style="fill-opacity:0.8;stroke:#000000;stroke-opacity:0.8;" x="172.605988" xlink:href="#m617d011658" y="110.071203"/>
     <use style="fill-opacity:0.8;stroke:#000000;stroke-opacity:0.8;" x="138.753371" xlink:href="#m617d011658" y="130.63227"/>
     <use style="fill-opacity:0.8;stroke:#000000;stroke-opacity:0.8;" x="125.213406" xlink:href="#m617d011658" y="138.971261"/>
     <use style="fill-opacity:0.8;stroke:#000000;stroke-opacity:0.8;" x="163.665301" xlink:href="#m617d011658" y="115.566326"/>
     <use style="fill-opacity:0.8;stroke:#000000;stroke-opacity:0.8;" x="120.585836" xlink:href="#m617d011658" y="141.745736"/>
     <use style="fill-opacity:0.8;stroke:#000000;stroke-opacity:0.8;" x="226.189513" xlink:href="#m617d011658" y="77.382935"/>
     <use style="fill-opacity:0.8;stroke:#000000;stroke-opacity:0.8;" x="185.88678" xlink:href="#m617d011658" y="101.956287"/>
     <use style="fill-opacity:0.8;stroke:#000000;stroke-opacity:0.8;" x="162.192317" xlink:href="#m617d011658" y="116.443262"/>
     <use style="fill-opacity:0.8;stroke:#000000;stroke-opacity:0.8;" x="235.724688" xlink:href="#m617d011658" y="71.550939"/>
     <use style="fill-opacity:0.8;stroke:#000000;stroke-opacity:0.8;" x="165.717578" xlink:href="#m617d011658" y="114.282336"/>
     <use style="fill-opacity:0.8;stroke:#000000;stroke-opacity:0.8;" x="202.874981" xlink:href="#m617d011658" y="91.616525"/>
     <use style="fill-opacity:0.8;stroke:#000000;stroke-opacity:0.8;" x="194.249717" xlink:href="#m617d011658" y="96.839477"/>
     <use style="fill-opacity:0.8;stroke:#000000;stroke-opacity:0.8;" x="163.242775" xlink:href="#m617d011658" y="115.722421"/>
     <use style="fill-opacity:0.8;stroke:#000000;stroke-opacity:0.8;" x="162.102227" xlink:href="#m617d011658" y="116.440831"/>
     <use style="fill-opacity:0.8;stroke:#000000;stroke-opacity:0.8;" x="138.468992" xlink:href="#m617d011658" y="130.838677"/>
     <use style="fill-opacity:0.8;stroke:#000000;stroke-opacity:0.8;" x="226.922024" xlink:href="#m617d011658" y="76.912978"/>
     <use style="fill-opacity:0.8;stroke:#000000;stroke-opacity:0.8;" x="181.28495" xlink:href="#m617d011658" y="104.785134"/>
     <use style="fill-opacity:0.8;stroke:#000000;stroke-opacity:0.8;" x="125.770691" xlink:href="#m617d011658" y="138.571245"/>
     <use style="fill-opacity:0.8;stroke:#000000;stroke-opacity:0.8;" x="97.983477" xlink:href="#m617d011658" y="155.541621"/>
     <use style="fill-opacity:0.8;stroke:#000000;stroke-opacity:0.8;" x="126.172547" xlink:href="#m617d011658" y="138.360756"/>
     <use style="fill-opacity:0.8;stroke:#000000;stroke-opacity:0.8;" x="109.400777" xlink:href="#m617d011658" y="148.546638"/>
     <use style="fill-opacity:0.8;stroke:#000000;stroke-opacity:0.8;" x="145.763704" xlink:href="#m617d011658" y="126.41341"/>
     <use style="fill-opacity:0.8;stroke:#000000;stroke-opacity:0.8;" x="131.93722" xlink:href="#m617d011658" y="134.822304"/>
     <use style="fill-opacity:0.8;stroke:#000000;stroke-opacity:0.8;" x="189.814456" xlink:href="#m617d011658" y="99.54749"/>
     <use style="fill-opacity:0.8;stroke:#000000;stroke-opacity:0.8;" x="94.762708" xlink:href="#m617d011658" y="157.534165"/>
     <use style="fill-opacity:0.8;stroke:#000000;stroke-opacity:0.8;" x="134.533813" xlink:href="#m617d011658" y="133.263382"/>
     <use style="fill-opacity:0.8;stroke:#000000;stroke-opacity:0.8;" x="118.831565" xlink:href="#m617d011658" y="142.795204"/>
     <use style="fill-opacity:0.8;stroke:#000000;stroke-opacity:0.8;" x="151.061972" xlink:href="#m617d011658" y="123.202531"/>
     <use style="fill-opacity:0.8;stroke:#000000;stroke-opacity:0.8;" x="199.989084" xlink:href="#m617d011658" y="93.426166"/>
     <use style="fill-opacity:0.8;stroke:#000000;stroke-opacity:0.8;" x="160.04283" xlink:href="#m617d011658" y="117.746596"/>
     <use style="fill-opacity:0.8;stroke:#000000;stroke-opacity:0.8;" x="184.896652" xlink:href="#m617d011658" y="102.579471"/>
     <use style="fill-opacity:0.8;stroke:#000000;stroke-opacity:0.8;" x="180.044243" xlink:href="#m617d011658" y="105.476668"/>
     <use style="fill-opacity:0.8;stroke:#000000;stroke-opacity:0.8;" x="198.413977" xlink:href="#m617d011658" y="94.274501"/>
     <use style="fill-opacity:0.8;stroke:#000000;stroke-opacity:0.8;" x="168.613974" xlink:href="#m617d011658" y="112.502268"/>
     <use style="fill-opacity:0.8;stroke:#000000;stroke-opacity:0.8;" x="165.623456" xlink:href="#m617d011658" y="114.313398"/>
     <use style="fill-opacity:0.8;stroke:#000000;stroke-opacity:0.8;" x="141.752096" xlink:href="#m617d011658" y="128.945215"/>
     <use style="fill-opacity:0.8;stroke:#000000;stroke-opacity:0.8;" x="115.948131" xlink:href="#m617d011658" y="144.573751"/>
     <use style="fill-opacity:0.8;stroke:#000000;stroke-opacity:0.8;" x="203.313253" xlink:href="#m617d011658" y="91.325213"/>
     <use style="fill-opacity:0.8;stroke:#000000;stroke-opacity:0.8;" x="159.012431" xlink:href="#m617d011658" y="118.322943"/>
     <use style="fill-opacity:0.8;stroke:#000000;stroke-opacity:0.8;" x="174.228006" xlink:href="#m617d011658" y="109.056556"/>
     <use style="fill-opacity:0.8;stroke:#000000;stroke-opacity:0.8;" x="134.665506" xlink:href="#m617d011658" y="133.170402"/>
     <use style="fill-opacity:0.8;stroke:#000000;stroke-opacity:0.8;" x="194.10268" xlink:href="#m617d011658" y="96.936316"/>
     <use style="fill-opacity:0.8;stroke:#000000;stroke-opacity:0.8;" x="139.312958" xlink:href="#m617d011658" y="130.338027"/>
    </g>
   </g>
   <g id="PolyCollection_1">
    <path clip-path="url(#p1132dd3cd4)" d="M 94.762708 157.489748 
L 94.762708 157.520323 
L 96.195767 156.646393 
L 97.628825 155.772463 
L 99.061884 154.898536 
L 100.494942 154.024609 
L 101.928 153.150757 
L 103.361059 152.276956 
L 104.794117 151.40302 
L 106.227176 150.529083 
L 107.660234 149.655147 
L 109.093292 148.781211 
L 110.526351 147.907272 
L 111.959409 147.033332 
L 113.392467 146.159527 
L 114.825526 145.285598 
L 116.258584 144.411705 
L 117.691643 143.537955 
L 119.124701 142.664249 
L 120.557759 141.790456 
L 121.990818 140.916664 
L 123.423876 140.04296 
L 124.856935 139.169193 
L 126.289993 138.295415 
L 127.723051 137.421605 
L 129.15611 136.54774 
L 130.589168 135.673872 
L 132.022226 134.800003 
L 133.455285 133.926167 
L 134.888343 133.052261 
L 136.321402 132.178401 
L 137.75446 131.304532 
L 139.187518 130.430829 
L 140.620577 129.557127 
L 142.053635 128.683429 
L 143.486694 127.809683 
L 144.919752 126.935939 
L 146.35281 126.061987 
L 147.785869 125.188258 
L 149.218927 124.314484 
L 150.651985 123.440756 
L 152.085044 122.567171 
L 153.518102 121.693585 
L 154.951161 120.820001 
L 156.384219 119.946111 
L 157.817277 119.072574 
L 159.250336 118.198881 
L 160.683394 117.325369 
L 162.116453 116.451727 
L 163.549511 115.578132 
L 164.982569 114.704502 
L 166.415628 113.830835 
L 167.848686 112.957168 
L 169.281745 112.083593 
L 170.714803 111.210125 
L 172.147861 110.336603 
L 173.58092 109.463062 
L 175.013978 108.589482 
L 176.447036 107.715864 
L 177.880095 106.842245 
L 179.313153 105.968774 
L 180.746212 105.095197 
L 182.17927 104.221733 
L 183.612328 103.348263 
L 185.045387 102.474714 
L 186.478445 101.601151 
L 187.911504 100.727618 
L 189.344562 99.854026 
L 190.77762 98.98062 
L 192.210679 98.107107 
L 193.643737 97.233568 
L 195.076795 96.360059 
L 196.509854 95.486679 
L 197.942912 94.613218 
L 199.375971 93.739741 
L 200.809029 92.866362 
L 202.242087 91.992886 
L 203.675146 91.119481 
L 205.108204 90.24596 
L 206.541263 89.372556 
L 207.974321 88.499017 
L 209.407379 87.625637 
L 210.840438 86.752238 
L 212.273496 85.878785 
L 213.706554 85.005453 
L 215.139613 84.132057 
L 216.572671 83.258601 
L 218.00573 82.385178 
L 219.438788 81.511612 
L 220.871846 80.638149 
L 222.304905 79.764794 
L 223.737963 78.891506 
L 225.171022 78.018177 
L 226.60408 77.144674 
L 228.037138 76.271227 
L 229.470197 75.397908 
L 230.903255 74.524589 
L 232.336313 73.651269 
L 233.769372 72.777949 
L 235.20243 71.904629 
L 236.635489 71.031309 
L 236.635489 71.002506 
L 236.635489 71.002506 
L 235.20243 71.876365 
L 233.769372 72.750224 
L 232.336313 73.624023 
L 230.903255 74.497722 
L 229.470197 75.371427 
L 228.037138 76.245271 
L 226.60408 77.119164 
L 225.171022 77.993004 
L 223.737963 78.866884 
L 222.304905 79.740768 
L 220.871846 80.614627 
L 219.438788 81.48852 
L 218.00573 82.362287 
L 216.572671 83.236021 
L 215.139613 84.109858 
L 213.706554 84.983806 
L 212.273496 85.857657 
L 210.840438 86.731478 
L 209.407379 87.605211 
L 207.974321 88.479119 
L 206.541263 89.352962 
L 205.108204 90.226605 
L 203.675146 91.100365 
L 202.242087 91.974096 
L 200.809029 92.847764 
L 199.375971 93.721465 
L 197.942912 94.595306 
L 196.509854 95.469046 
L 195.076795 96.342685 
L 193.643737 97.216263 
L 192.210679 98.089967 
L 190.77762 98.963656 
L 189.344562 99.83741 
L 187.911504 100.711087 
L 186.478445 101.584871 
L 185.045387 102.458513 
L 183.612328 103.332192 
L 182.17927 104.20586 
L 180.746212 105.079581 
L 179.313153 105.953333 
L 177.880095 106.826958 
L 176.447036 107.700657 
L 175.013978 108.574295 
L 173.58092 109.447822 
L 172.147861 110.321352 
L 170.714803 111.194995 
L 169.281745 112.068753 
L 167.848686 112.942302 
L 166.415628 113.815925 
L 164.982569 114.689567 
L 163.549511 115.563213 
L 162.116453 116.436831 
L 160.683394 117.310344 
L 159.250336 118.183872 
L 157.817277 119.057404 
L 156.384219 119.930934 
L 154.951161 120.80451 
L 153.518102 121.677993 
L 152.085044 122.551507 
L 150.651985 123.42499 
L 149.218927 124.298549 
L 147.785869 125.172114 
L 146.35281 126.045644 
L 144.919752 126.919172 
L 143.486694 127.792705 
L 142.053635 128.666252 
L 140.620577 129.539794 
L 139.187518 130.413295 
L 137.75446 131.286819 
L 136.321402 132.160354 
L 134.888343 133.03388 
L 133.455285 133.907409 
L 132.022226 134.780848 
L 130.589168 135.654234 
L 129.15611 136.527659 
L 127.723051 137.401091 
L 126.289993 138.27453 
L 124.856935 139.147964 
L 123.423876 140.021382 
L 121.990818 140.894893 
L 120.557759 141.768348 
L 119.124701 142.641806 
L 117.691643 143.515244 
L 116.258584 144.388708 
L 114.825526 145.262173 
L 113.392467 146.135528 
L 111.959409 147.008909 
L 110.526351 147.882339 
L 109.093292 148.755769 
L 107.660234 149.629167 
L 106.227176 150.50263 
L 104.794117 151.376061 
L 103.361059 152.249392 
L 101.928 153.122851 
L 100.494942 153.996311 
L 99.061884 154.86974 
L 97.628825 155.743082 
L 96.195767 156.61639 
L 94.762708 157.489748 
z
" style="fill-opacity:0.15;"/>
   </g>
   <g id="matplotlib.axis_1">
    <g id="xtick_1">
     <g id="line2d_1">
      <defs>
       <path d="M 0 0 
L 0 3.5 
" id="m824e888c4d" style="stroke:#000000;stroke-width:0.8;"/>
      </defs>
      <g>
       <use style="stroke:#000000;stroke-width:0.8;" x="85.7425" xlink:href="#m824e888c4d" y="163"/>
      </g>
     </g>
     <g id="text_1">
      <!-- 0.0 -->
      <g transform="translate(77.790938 177.598437)scale(0.1 -0.1)">
       <defs>
        <path d="M 31.78125 66.40625 
Q 24.171875 66.40625 20.328125 58.90625 
Q 16.5 51.421875 16.5 36.375 
Q 16.5 21.390625 20.328125 13.890625 
Q 24.171875 6.390625 31.78125 6.390625 
Q 39.453125 6.390625 43.28125 13.890625 
Q 47.125 21.390625 47.125 36.375 
Q 47.125 51.421875 43.28125 58.90625 
Q 39.453125 66.40625 31.78125 66.40625 
z
M 31.78125 74.21875 
Q 44.046875 74.21875 50.515625 64.515625 
Q 56.984375 54.828125 56.984375 36.375 
Q 56.984375 17.96875 50.515625 8.265625 
Q 44.046875 -1.421875 31.78125 -1.421875 
Q 19.53125 -1.421875 13.0625 8.265625 
Q 6.59375 17.96875 6.59375 36.375 
Q 6.59375 54.828125 13.0625 64.515625 
Q 19.53125 74.21875 31.78125 74.21875 
z
" id="DejaVuSans-48"/>
        <path d="M 10.6875 12.40625 
L 21 12.40625 
L 21 0 
L 10.6875 0 
z
" id="DejaVuSans-46"/>
       </defs>
       <use xlink:href="#DejaVuSans-48"/>
       <use x="63.623047" xlink:href="#DejaVuSans-46"/>
       <use x="95.410156" xlink:href="#DejaVuSans-48"/>
      </g>
     </g>
    </g>
    <g id="xtick_2">
     <g id="line2d_2">
      <g>
       <use style="stroke:#000000;stroke-width:0.8;" x="118.4225" xlink:href="#m824e888c4d" y="163"/>
      </g>
     </g>
     <g id="text_2">
      <!-- 0.2 -->
      <g transform="translate(110.470938 177.598437)scale(0.1 -0.1)">
       <defs>
        <path d="M 19.1875 8.296875 
L 53.609375 8.296875 
L 53.609375 0 
L 7.328125 0 
L 7.328125 8.296875 
Q 12.9375 14.109375 22.625 23.890625 
Q 32.328125 33.6875 34.8125 36.53125 
Q 39.546875 41.84375 41.421875 45.53125 
Q 43.3125 49.21875 43.3125 52.78125 
Q 43.3125 58.59375 39.234375 62.25 
Q 35.15625 65.921875 28.609375 65.921875 
Q 23.96875 65.921875 18.8125 64.3125 
Q 13.671875 62.703125 7.8125 59.421875 
L 7.8125 69.390625 
Q 13.765625 71.78125 18.9375 73 
Q 24.125 74.21875 28.421875 74.21875 
Q 39.75 74.21875 46.484375 68.546875 
Q 53.21875 62.890625 53.21875 53.421875 
Q 53.21875 48.921875 51.53125 44.890625 
Q 49.859375 40.875 45.40625 35.40625 
Q 44.1875 33.984375 37.640625 27.21875 
Q 31.109375 20.453125 19.1875 8.296875 
z
" id="DejaVuSans-50"/>
       </defs>
       <use xlink:href="#DejaVuSans-48"/>
       <use x="63.623047" xlink:href="#DejaVuSans-46"/>
       <use x="95.410156" xlink:href="#DejaVuSans-50"/>
      </g>
     </g>
    </g>
    <g id="xtick_3">
     <g id="line2d_3">
      <g>
       <use style="stroke:#000000;stroke-width:0.8;" x="151.1025" xlink:href="#m824e888c4d" y="163"/>
      </g>
     </g>
     <g id="text_3">
      <!-- 0.4 -->
      <g transform="translate(143.150938 177.598437)scale(0.1 -0.1)">
       <defs>
        <path d="M 37.796875 64.3125 
L 12.890625 25.390625 
L 37.796875 25.390625 
z
M 35.203125 72.90625 
L 47.609375 72.90625 
L 47.609375 25.390625 
L 58.015625 25.390625 
L 58.015625 17.1875 
L 47.609375 17.1875 
L 47.609375 0 
L 37.796875 0 
L 37.796875 17.1875 
L 4.890625 17.1875 
L 4.890625 26.703125 
z
" id="DejaVuSans-52"/>
       </defs>
       <use xlink:href="#DejaVuSans-48"/>
       <use x="63.623047" xlink:href="#DejaVuSans-46"/>
       <use x="95.410156" xlink:href="#DejaVuSans-52"/>
      </g>
     </g>
    </g>
    <g id="xtick_4">
     <g id="line2d_4">
      <g>
       <use style="stroke:#000000;stroke-width:0.8;" x="183.7825" xlink:href="#m824e888c4d" y="163"/>
      </g>
     </g>
     <g id="text_4">
      <!-- 0.6 -->
      <g transform="translate(175.830937 177.598437)scale(0.1 -0.1)">
       <defs>
        <path d="M 33.015625 40.375 
Q 26.375 40.375 22.484375 35.828125 
Q 18.609375 31.296875 18.609375 23.390625 
Q 18.609375 15.53125 22.484375 10.953125 
Q 26.375 6.390625 33.015625 6.390625 
Q 39.65625 6.390625 43.53125 10.953125 
Q 47.40625 15.53125 47.40625 23.390625 
Q 47.40625 31.296875 43.53125 35.828125 
Q 39.65625 40.375 33.015625 40.375 
z
M 52.59375 71.296875 
L 52.59375 62.3125 
Q 48.875 64.0625 45.09375 64.984375 
Q 41.3125 65.921875 37.59375 65.921875 
Q 27.828125 65.921875 22.671875 59.328125 
Q 17.53125 52.734375 16.796875 39.40625 
Q 19.671875 43.65625 24.015625 45.921875 
Q 28.375 48.1875 33.59375 48.1875 
Q 44.578125 48.1875 50.953125 41.515625 
Q 57.328125 34.859375 57.328125 23.390625 
Q 57.328125 12.15625 50.6875 5.359375 
Q 44.046875 -1.421875 33.015625 -1.421875 
Q 20.359375 -1.421875 13.671875 8.265625 
Q 6.984375 17.96875 6.984375 36.375 
Q 6.984375 53.65625 15.1875 63.9375 
Q 23.390625 74.21875 37.203125 74.21875 
Q 40.921875 74.21875 44.703125 73.484375 
Q 48.484375 72.75 52.59375 71.296875 
z
" id="DejaVuSans-54"/>
       </defs>
       <use xlink:href="#DejaVuSans-48"/>
       <use x="63.623047" xlink:href="#DejaVuSans-46"/>
       <use x="95.410156" xlink:href="#DejaVuSans-54"/>
      </g>
     </g>
    </g>
    <g id="xtick_5">
     <g id="line2d_5">
      <g>
       <use style="stroke:#000000;stroke-width:0.8;" x="216.4625" xlink:href="#m824e888c4d" y="163"/>
      </g>
     </g>
     <g id="text_5">
      <!-- 0.8 -->
      <g transform="translate(208.510938 177.598437)scale(0.1 -0.1)">
       <defs>
        <path d="M 31.78125 34.625 
Q 24.75 34.625 20.71875 30.859375 
Q 16.703125 27.09375 16.703125 20.515625 
Q 16.703125 13.921875 20.71875 10.15625 
Q 24.75 6.390625 31.78125 6.390625 
Q 38.8125 6.390625 42.859375 10.171875 
Q 46.921875 13.96875 46.921875 20.515625 
Q 46.921875 27.09375 42.890625 30.859375 
Q 38.875 34.625 31.78125 34.625 
z
M 21.921875 38.8125 
Q 15.578125 40.375 12.03125 44.71875 
Q 8.5 49.078125 8.5 55.328125 
Q 8.5 64.0625 14.71875 69.140625 
Q 20.953125 74.21875 31.78125 74.21875 
Q 42.671875 74.21875 48.875 69.140625 
Q 55.078125 64.0625 55.078125 55.328125 
Q 55.078125 49.078125 51.53125 44.71875 
Q 48 40.375 41.703125 38.8125 
Q 48.828125 37.15625 52.796875 32.3125 
Q 56.78125 27.484375 56.78125 20.515625 
Q 56.78125 9.90625 50.3125 4.234375 
Q 43.84375 -1.421875 31.78125 -1.421875 
Q 19.734375 -1.421875 13.25 4.234375 
Q 6.78125 9.90625 6.78125 20.515625 
Q 6.78125 27.484375 10.78125 32.3125 
Q 14.796875 37.15625 21.921875 38.8125 
z
M 18.3125 54.390625 
Q 18.3125 48.734375 21.84375 45.5625 
Q 25.390625 42.390625 31.78125 42.390625 
Q 38.140625 42.390625 41.71875 45.5625 
Q 45.3125 48.734375 45.3125 54.390625 
Q 45.3125 60.0625 41.71875 63.234375 
Q 38.140625 66.40625 31.78125 66.40625 
Q 25.390625 66.40625 21.84375 63.234375 
Q 18.3125 60.0625 18.3125 54.390625 
z
" id="DejaVuSans-56"/>
       </defs>
       <use xlink:href="#DejaVuSans-48"/>
       <use x="63.623047" xlink:href="#DejaVuSans-46"/>
       <use x="95.410156" xlink:href="#DejaVuSans-56"/>
      </g>
     </g>
    </g>
    <g id="xtick_6">
     <g id="line2d_6">
      <g>
       <use style="stroke:#000000;stroke-width:0.8;" x="249.1425" xlink:href="#m824e888c4d" y="163"/>
      </g>
     </g>
     <g id="text_6">
      <!-- 1.0 -->
      <g transform="translate(241.190937 177.598437)scale(0.1 -0.1)">
       <defs>
        <path d="M 12.40625 8.296875 
L 28.515625 8.296875 
L 28.515625 63.921875 
L 10.984375 60.40625 
L 10.984375 69.390625 
L 28.421875 72.90625 
L 38.28125 72.90625 
L 38.28125 8.296875 
L 54.390625 8.296875 
L 54.390625 0 
L 12.40625 0 
z
" id="DejaVuSans-49"/>
       </defs>
       <use xlink:href="#DejaVuSans-49"/>
       <use x="63.623047" xlink:href="#DejaVuSans-46"/>
       <use x="95.410156" xlink:href="#DejaVuSans-48"/>
      </g>
     </g>
    </g>
   </g>
   <g id="matplotlib.axis_2">
    <g id="ytick_1">
     <g id="line2d_7">
      <defs>
       <path d="M 0 0 
L -3.5 0 
" id="m75cd2b04c5" style="stroke:#000000;stroke-width:0.8;"/>
      </defs>
      <g>
       <use style="stroke:#000000;stroke-width:0.8;" x="85.7425" xlink:href="#m75cd2b04c5" y="163"/>
      </g>
     </g>
     <g id="text_7">
      <!-- 0.0 -->
      <g transform="translate(62.839375 166.799219)scale(0.1 -0.1)">
       <use xlink:href="#DejaVuSans-48"/>
       <use x="63.623047" xlink:href="#DejaVuSans-46"/>
       <use x="95.410156" xlink:href="#DejaVuSans-48"/>
      </g>
     </g>
    </g>
    <g id="ytick_2">
     <g id="line2d_8">
      <g>
       <use style="stroke:#000000;stroke-width:0.8;" x="85.7425" xlink:href="#m75cd2b04c5" y="143.08"/>
      </g>
     </g>
     <g id="text_8">
      <!-- 0.2 -->
      <g transform="translate(62.839375 146.879219)scale(0.1 -0.1)">
       <use xlink:href="#DejaVuSans-48"/>
       <use x="63.623047" xlink:href="#DejaVuSans-46"/>
       <use x="95.410156" xlink:href="#DejaVuSans-50"/>
      </g>
     </g>
    </g>
    <g id="ytick_3">
     <g id="line2d_9">
      <g>
       <use style="stroke:#000000;stroke-width:0.8;" x="85.7425" xlink:href="#m75cd2b04c5" y="123.16"/>
      </g>
     </g>
     <g id="text_9">
      <!-- 0.4 -->
      <g transform="translate(62.839375 126.959219)scale(0.1 -0.1)">
       <use xlink:href="#DejaVuSans-48"/>
       <use x="63.623047" xlink:href="#DejaVuSans-46"/>
       <use x="95.410156" xlink:href="#DejaVuSans-52"/>
      </g>
     </g>
    </g>
    <g id="ytick_4">
     <g id="line2d_10">
      <g>
       <use style="stroke:#000000;stroke-width:0.8;" x="85.7425" xlink:href="#m75cd2b04c5" y="103.24"/>
      </g>
     </g>
     <g id="text_10">
      <!-- 0.6 -->
      <g transform="translate(62.839375 107.039219)scale(0.1 -0.1)">
       <use xlink:href="#DejaVuSans-48"/>
       <use x="63.623047" xlink:href="#DejaVuSans-46"/>
       <use x="95.410156" xlink:href="#DejaVuSans-54"/>
      </g>
     </g>
    </g>
    <g id="ytick_5">
     <g id="line2d_11">
      <g>
       <use style="stroke:#000000;stroke-width:0.8;" x="85.7425" xlink:href="#m75cd2b04c5" y="83.32"/>
      </g>
     </g>
     <g id="text_11">
      <!-- 0.8 -->
      <g transform="translate(62.839375 87.119219)scale(0.1 -0.1)">
       <use xlink:href="#DejaVuSans-48"/>
       <use x="63.623047" xlink:href="#DejaVuSans-46"/>
       <use x="95.410156" xlink:href="#DejaVuSans-56"/>
      </g>
     </g>
    </g>
    <g id="ytick_6">
     <g id="line2d_12">
      <g>
       <use style="stroke:#000000;stroke-width:0.8;" x="85.7425" xlink:href="#m75cd2b04c5" y="63.4"/>
      </g>
     </g>
     <g id="text_12">
      <!-- 1.0 -->
      <g transform="translate(62.839375 67.199219)scale(0.1 -0.1)">
       <use xlink:href="#DejaVuSans-49"/>
       <use x="63.623047" xlink:href="#DejaVuSans-46"/>
       <use x="95.410156" xlink:href="#DejaVuSans-48"/>
      </g>
     </g>
    </g>
   </g>
   <g id="line2d_13">
    <path clip-path="url(#p1132dd3cd4)" d="M 94.762708 157.502654 
L 96.195767 156.629063 
L 97.628825 155.755471 
L 99.061884 154.88188 
L 100.494942 154.008288 
L 101.928 153.134697 
L 103.361059 152.261105 
L 104.794117 151.387514 
L 106.227176 150.513922 
L 107.660234 149.640331 
L 109.093292 148.766739 
L 110.526351 147.893148 
L 111.959409 147.019556 
L 113.392467 146.145965 
L 114.825526 145.272373 
L 116.258584 144.398782 
L 117.691643 143.52519 
L 119.124701 142.651599 
L 120.557759 141.778007 
L 121.990818 140.904416 
L 123.423876 140.030824 
L 124.856935 139.157233 
L 126.289993 138.283641 
L 127.723051 137.410049 
L 129.15611 136.536458 
L 130.589168 135.662866 
L 132.022226 134.789275 
L 133.455285 133.915683 
L 134.888343 133.042092 
L 136.321402 132.1685 
L 137.75446 131.294909 
L 139.187518 130.421317 
L 140.620577 129.547726 
L 142.053635 128.674134 
L 143.486694 127.800543 
L 144.919752 126.926951 
L 146.35281 126.05336 
L 147.785869 125.179768 
L 149.218927 124.306177 
L 150.651985 123.432585 
L 152.085044 122.558994 
L 153.518102 121.685402 
L 154.951161 120.811811 
L 156.384219 119.938219 
L 157.817277 119.064628 
L 159.250336 118.191036 
L 160.683394 117.317445 
L 162.116453 116.443853 
L 163.549511 115.570262 
L 164.982569 114.69667 
L 166.415628 113.823079 
L 167.848686 112.949487 
L 169.281745 112.075896 
L 170.714803 111.202304 
L 172.147861 110.328712 
L 173.58092 109.455121 
L 175.013978 108.581529 
L 176.447036 107.707938 
L 177.880095 106.834346 
L 179.313153 105.960755 
L 180.746212 105.087163 
L 182.17927 104.213572 
L 183.612328 103.33998 
L 185.045387 102.466389 
L 186.478445 101.592797 
L 187.911504 100.719206 
L 189.344562 99.845614 
L 190.77762 98.972023 
L 192.210679 98.098431 
L 193.643737 97.22484 
L 195.076795 96.351248 
L 196.509854 95.477657 
L 197.942912 94.604065 
L 199.375971 93.730474 
L 200.809029 92.856882 
L 202.242087 91.983291 
L 203.675146 91.109699 
L 205.108204 90.236108 
L 206.541263 89.362516 
L 207.974321 88.488925 
L 209.407379 87.615333 
L 210.840438 86.741742 
L 212.273496 85.86815 
L 213.706554 84.994558 
L 215.139613 84.120967 
L 216.572671 83.247375 
L 218.00573 82.373784 
L 219.438788 81.500192 
L 220.871846 80.626601 
L 222.304905 79.753009 
L 223.737963 78.879418 
L 225.171022 78.005826 
L 226.60408 77.132235 
L 228.037138 76.258643 
L 229.470197 75.385052 
L 230.903255 74.51146 
L 232.336313 73.637869 
L 233.769372 72.764277 
L 235.20243 71.890686 
L 236.635489 71.017094 
" style="fill:none;stroke:#000000;stroke-linecap:square;stroke-width:2.25;"/>
   </g>
   <g id="patch_3">
    <path d="M 85.7425 163 
L 85.7425 63.4 
" style="fill:none;stroke:#000000;stroke-linecap:square;stroke-linejoin:miter;stroke-width:0.8;"/>
   </g>
   <g id="patch_4">
    <path d="M 249.1425 163 
L 249.1425 63.4 
" style="fill:none;stroke:#000000;stroke-linecap:square;stroke-linejoin:miter;stroke-width:0.8;"/>
   </g>
   <g id="patch_5">
    <path d="M 85.7425 163 
L 249.1425 163 
" style="fill:none;stroke:#000000;stroke-linecap:square;stroke-linejoin:miter;stroke-width:0.8;"/>
   </g>
   <g id="patch_6">
    <path d="M 85.7425 63.4 
L 249.1425 63.4 
" style="fill:none;stroke:#000000;stroke-linecap:square;stroke-linejoin:miter;stroke-width:0.8;"/>
   </g>
   <g id="text_13">
    <!-- Direct Associations -->
    <g transform="translate(110.285937 57.4)scale(0.12 -0.12)">
     <defs>
      <path d="M 19.671875 64.796875 
L 19.671875 8.109375 
L 31.59375 8.109375 
Q 46.6875 8.109375 53.6875 14.9375 
Q 60.6875 21.78125 60.6875 36.53125 
Q 60.6875 51.171875 53.6875 57.984375 
Q 46.6875 64.796875 31.59375 64.796875 
z
M 9.8125 72.90625 
L 30.078125 72.90625 
Q 51.265625 72.90625 61.171875 64.09375 
Q 71.09375 55.28125 71.09375 36.53125 
Q 71.09375 17.671875 61.125 8.828125 
Q 51.171875 0 30.078125 0 
L 9.8125 0 
z
" id="DejaVuSans-68"/>
      <path d="M 9.421875 54.6875 
L 18.40625 54.6875 
L 18.40625 0 
L 9.421875 0 
z
M 9.421875 75.984375 
L 18.40625 75.984375 
L 18.40625 64.59375 
L 9.421875 64.59375 
z
" id="DejaVuSans-105"/>
      <path d="M 41.109375 46.296875 
Q 39.59375 47.171875 37.8125 47.578125 
Q 36.03125 48 33.890625 48 
Q 26.265625 48 22.1875 43.046875 
Q 18.109375 38.09375 18.109375 28.8125 
L 18.109375 0 
L 9.078125 0 
L 9.078125 54.6875 
L 18.109375 54.6875 
L 18.109375 46.1875 
Q 20.953125 51.171875 25.484375 53.578125 
Q 30.03125 56 36.53125 56 
Q 37.453125 56 38.578125 55.875 
Q 39.703125 55.765625 41.0625 55.515625 
z
" id="DejaVuSans-114"/>
      <path d="M 56.203125 29.59375 
L 56.203125 25.203125 
L 14.890625 25.203125 
Q 15.484375 15.921875 20.484375 11.0625 
Q 25.484375 6.203125 34.421875 6.203125 
Q 39.59375 6.203125 44.453125 7.46875 
Q 49.3125 8.734375 54.109375 11.28125 
L 54.109375 2.78125 
Q 49.265625 0.734375 44.1875 -0.34375 
Q 39.109375 -1.421875 33.890625 -1.421875 
Q 20.796875 -1.421875 13.15625 6.1875 
Q 5.515625 13.8125 5.515625 26.8125 
Q 5.515625 40.234375 12.765625 48.109375 
Q 20.015625 56 32.328125 56 
Q 43.359375 56 49.78125 48.890625 
Q 56.203125 41.796875 56.203125 29.59375 
z
M 47.21875 32.234375 
Q 47.125 39.59375 43.09375 43.984375 
Q 39.0625 48.390625 32.421875 48.390625 
Q 24.90625 48.390625 20.390625 44.140625 
Q 15.875 39.890625 15.1875 32.171875 
z
" id="DejaVuSans-101"/>
      <path d="M 48.78125 52.59375 
L 48.78125 44.1875 
Q 44.96875 46.296875 41.140625 47.34375 
Q 37.3125 48.390625 33.40625 48.390625 
Q 24.65625 48.390625 19.8125 42.84375 
Q 14.984375 37.3125 14.984375 27.296875 
Q 14.984375 17.28125 19.8125 11.734375 
Q 24.65625 6.203125 33.40625 6.203125 
Q 37.3125 6.203125 41.140625 7.25 
Q 44.96875 8.296875 48.78125 10.40625 
L 48.78125 2.09375 
Q 45.015625 0.34375 40.984375 -0.53125 
Q 36.96875 -1.421875 32.421875 -1.421875 
Q 20.0625 -1.421875 12.78125 6.34375 
Q 5.515625 14.109375 5.515625 27.296875 
Q 5.515625 40.671875 12.859375 48.328125 
Q 20.21875 56 33.015625 56 
Q 37.15625 56 41.109375 55.140625 
Q 45.0625 54.296875 48.78125 52.59375 
z
" id="DejaVuSans-99"/>
      <path d="M 18.3125 70.21875 
L 18.3125 54.6875 
L 36.8125 54.6875 
L 36.8125 47.703125 
L 18.3125 47.703125 
L 18.3125 18.015625 
Q 18.3125 11.328125 20.140625 9.421875 
Q 21.96875 7.515625 27.59375 7.515625 
L 36.8125 7.515625 
L 36.8125 0 
L 27.59375 0 
Q 17.1875 0 13.234375 3.875 
Q 9.28125 7.765625 9.28125 18.015625 
L 9.28125 47.703125 
L 2.6875 47.703125 
L 2.6875 54.6875 
L 9.28125 54.6875 
L 9.28125 70.21875 
z
" id="DejaVuSans-116"/>
      <path id="DejaVuSans-32"/>
      <path d="M 34.1875 63.1875 
L 20.796875 26.90625 
L 47.609375 26.90625 
z
M 28.609375 72.90625 
L 39.796875 72.90625 
L 67.578125 0 
L 57.328125 0 
L 50.6875 18.703125 
L 17.828125 18.703125 
L 11.1875 0 
L 0.78125 0 
z
" id="DejaVuSans-65"/>
      <path d="M 44.28125 53.078125 
L 44.28125 44.578125 
Q 40.484375 46.53125 36.375 47.5 
Q 32.28125 48.484375 27.875 48.484375 
Q 21.1875 48.484375 17.84375 46.4375 
Q 14.5 44.390625 14.5 40.28125 
Q 14.5 37.15625 16.890625 35.375 
Q 19.28125 33.59375 26.515625 31.984375 
L 29.59375 31.296875 
Q 39.15625 29.25 43.1875 25.515625 
Q 47.21875 21.78125 47.21875 15.09375 
Q 47.21875 7.46875 41.1875 3.015625 
Q 35.15625 -1.421875 24.609375 -1.421875 
Q 20.21875 -1.421875 15.453125 -0.5625 
Q 10.6875 0.296875 5.421875 2 
L 5.421875 11.28125 
Q 10.40625 8.6875 15.234375 7.390625 
Q 20.0625 6.109375 24.8125 6.109375 
Q 31.15625 6.109375 34.5625 8.28125 
Q 37.984375 10.453125 37.984375 14.40625 
Q 37.984375 18.0625 35.515625 20.015625 
Q 33.0625 21.96875 24.703125 23.78125 
L 21.578125 24.515625 
Q 13.234375 26.265625 9.515625 29.90625 
Q 5.8125 33.546875 5.8125 39.890625 
Q 5.8125 47.609375 11.28125 51.796875 
Q 16.75 56 26.8125 56 
Q 31.78125 56 36.171875 55.265625 
Q 40.578125 54.546875 44.28125 53.078125 
z
" id="DejaVuSans-115"/>
      <path d="M 30.609375 48.390625 
Q 23.390625 48.390625 19.1875 42.75 
Q 14.984375 37.109375 14.984375 27.296875 
Q 14.984375 17.484375 19.15625 11.84375 
Q 23.34375 6.203125 30.609375 6.203125 
Q 37.796875 6.203125 41.984375 11.859375 
Q 46.1875 17.53125 46.1875 27.296875 
Q 46.1875 37.015625 41.984375 42.703125 
Q 37.796875 48.390625 30.609375 48.390625 
z
M 30.609375 56 
Q 42.328125 56 49.015625 48.375 
Q 55.71875 40.765625 55.71875 27.296875 
Q 55.71875 13.875 49.015625 6.21875 
Q 42.328125 -1.421875 30.609375 -1.421875 
Q 18.84375 -1.421875 12.171875 6.21875 
Q 5.515625 13.875 5.515625 27.296875 
Q 5.515625 40.765625 12.171875 48.375 
Q 18.84375 56 30.609375 56 
z
" id="DejaVuSans-111"/>
      <path d="M 34.28125 27.484375 
Q 23.390625 27.484375 19.1875 25 
Q 14.984375 22.515625 14.984375 16.5 
Q 14.984375 11.71875 18.140625 8.90625 
Q 21.296875 6.109375 26.703125 6.109375 
Q 34.1875 6.109375 38.703125 11.40625 
Q 43.21875 16.703125 43.21875 25.484375 
L 43.21875 27.484375 
z
M 52.203125 31.203125 
L 52.203125 0 
L 43.21875 0 
L 43.21875 8.296875 
Q 40.140625 3.328125 35.546875 0.953125 
Q 30.953125 -1.421875 24.3125 -1.421875 
Q 15.921875 -1.421875 10.953125 3.296875 
Q 6 8.015625 6 15.921875 
Q 6 25.140625 12.171875 29.828125 
Q 18.359375 34.515625 30.609375 34.515625 
L 43.21875 34.515625 
L 43.21875 35.40625 
Q 43.21875 41.609375 39.140625 45 
Q 35.0625 48.390625 27.6875 48.390625 
Q 23 48.390625 18.546875 47.265625 
Q 14.109375 46.140625 10.015625 43.890625 
L 10.015625 52.203125 
Q 14.9375 54.109375 19.578125 55.046875 
Q 24.21875 56 28.609375 56 
Q 40.484375 56 46.34375 49.84375 
Q 52.203125 43.703125 52.203125 31.203125 
z
" id="DejaVuSans-97"/>
      <path d="M 54.890625 33.015625 
L 54.890625 0 
L 45.90625 0 
L 45.90625 32.71875 
Q 45.90625 40.484375 42.875 44.328125 
Q 39.84375 48.1875 33.796875 48.1875 
Q 26.515625 48.1875 22.3125 43.546875 
Q 18.109375 38.921875 18.109375 30.90625 
L 18.109375 0 
L 9.078125 0 
L 9.078125 54.6875 
L 18.109375 54.6875 
L 18.109375 46.1875 
Q 21.34375 51.125 25.703125 53.5625 
Q 30.078125 56 35.796875 56 
Q 45.21875 56 50.046875 50.171875 
Q 54.890625 44.34375 54.890625 33.015625 
z
" id="DejaVuSans-110"/>
     </defs>
     <use xlink:href="#DejaVuSans-68"/>
     <use x="77.001953" xlink:href="#DejaVuSans-105"/>
     <use x="104.785156" xlink:href="#DejaVuSans-114"/>
     <use x="143.648438" xlink:href="#DejaVuSans-101"/>
     <use x="205.171875" xlink:href="#DejaVuSans-99"/>
     <use x="260.152344" xlink:href="#DejaVuSans-116"/>
     <use x="299.361328" xlink:href="#DejaVuSans-32"/>
     <use x="331.148438" xlink:href="#DejaVuSans-65"/>
     <use x="399.556641" xlink:href="#DejaVuSans-115"/>
     <use x="451.65625" xlink:href="#DejaVuSans-115"/>
     <use x="503.755859" xlink:href="#DejaVuSans-111"/>
     <use x="564.9375" xlink:href="#DejaVuSans-99"/>
     <use x="619.917969" xlink:href="#DejaVuSans-105"/>
     <use x="647.701172" xlink:href="#DejaVuSans-97"/>
     <use x="708.980469" xlink:href="#DejaVuSans-116"/>
     <use x="748.189453" xlink:href="#DejaVuSans-105"/>
     <use x="775.972656" xlink:href="#DejaVuSans-111"/>
     <use x="837.154297" xlink:href="#DejaVuSans-110"/>
     <use x="900.533203" xlink:href="#DejaVuSans-115"/>
    </g>
   </g>
  </g>
  <g id="text_14">
   <!-- Simulated vs Recovered α Parameters -->
   <g transform="translate(7.2 19.3575)scale(0.16 -0.16)">
    <defs>
     <path d="M 53.515625 70.515625 
L 53.515625 60.890625 
Q 47.90625 63.578125 42.921875 64.890625 
Q 37.9375 66.21875 33.296875 66.21875 
Q 25.25 66.21875 20.875 63.09375 
Q 16.5 59.96875 16.5 54.203125 
Q 16.5 49.359375 19.40625 46.890625 
Q 22.3125 44.4375 30.421875 42.921875 
L 36.375 41.703125 
Q 47.40625 39.59375 52.65625 34.296875 
Q 57.90625 29 57.90625 20.125 
Q 57.90625 9.515625 50.796875 4.046875 
Q 43.703125 -1.421875 29.984375 -1.421875 
Q 24.8125 -1.421875 18.96875 -0.25 
Q 13.140625 0.921875 6.890625 3.21875 
L 6.890625 13.375 
Q 12.890625 10.015625 18.65625 8.296875 
Q 24.421875 6.59375 29.984375 6.59375 
Q 38.421875 6.59375 43.015625 9.90625 
Q 47.609375 13.234375 47.609375 19.390625 
Q 47.609375 24.75 44.3125 27.78125 
Q 41.015625 30.8125 33.5 32.328125 
L 27.484375 33.5 
Q 16.453125 35.6875 11.515625 40.375 
Q 6.59375 45.0625 6.59375 53.421875 
Q 6.59375 63.09375 13.40625 68.65625 
Q 20.21875 74.21875 32.171875 74.21875 
Q 37.3125 74.21875 42.625 73.28125 
Q 47.953125 72.359375 53.515625 70.515625 
z
" id="DejaVuSans-83"/>
     <path d="M 52 44.1875 
Q 55.375 50.25 60.0625 53.125 
Q 64.75 56 71.09375 56 
Q 79.640625 56 84.28125 50.015625 
Q 88.921875 44.046875 88.921875 33.015625 
L 88.921875 0 
L 79.890625 0 
L 79.890625 32.71875 
Q 79.890625 40.578125 77.09375 44.375 
Q 74.3125 48.1875 68.609375 48.1875 
Q 61.625 48.1875 57.5625 43.546875 
Q 53.515625 38.921875 53.515625 30.90625 
L 53.515625 0 
L 44.484375 0 
L 44.484375 32.71875 
Q 44.484375 40.625 41.703125 44.40625 
Q 38.921875 48.1875 33.109375 48.1875 
Q 26.21875 48.1875 22.15625 43.53125 
Q 18.109375 38.875 18.109375 30.90625 
L 18.109375 0 
L 9.078125 0 
L 9.078125 54.6875 
L 18.109375 54.6875 
L 18.109375 46.1875 
Q 21.1875 51.21875 25.484375 53.609375 
Q 29.78125 56 35.6875 56 
Q 41.65625 56 45.828125 52.96875 
Q 50 49.953125 52 44.1875 
z
" id="DejaVuSans-109"/>
     <path d="M 8.5 21.578125 
L 8.5 54.6875 
L 17.484375 54.6875 
L 17.484375 21.921875 
Q 17.484375 14.15625 20.5 10.265625 
Q 23.53125 6.390625 29.59375 6.390625 
Q 36.859375 6.390625 41.078125 11.03125 
Q 45.3125 15.671875 45.3125 23.6875 
L 45.3125 54.6875 
L 54.296875 54.6875 
L 54.296875 0 
L 45.3125 0 
L 45.3125 8.40625 
Q 42.046875 3.421875 37.71875 1 
Q 33.40625 -1.421875 27.6875 -1.421875 
Q 18.265625 -1.421875 13.375 4.4375 
Q 8.5 10.296875 8.5 21.578125 
z
M 31.109375 56 
z
" id="DejaVuSans-117"/>
     <path d="M 9.421875 75.984375 
L 18.40625 75.984375 
L 18.40625 0 
L 9.421875 0 
z
" id="DejaVuSans-108"/>
     <path d="M 45.40625 46.390625 
L 45.40625 75.984375 
L 54.390625 75.984375 
L 54.390625 0 
L 45.40625 0 
L 45.40625 8.203125 
Q 42.578125 3.328125 38.25 0.953125 
Q 33.9375 -1.421875 27.875 -1.421875 
Q 17.96875 -1.421875 11.734375 6.484375 
Q 5.515625 14.40625 5.515625 27.296875 
Q 5.515625 40.1875 11.734375 48.09375 
Q 17.96875 56 27.875 56 
Q 33.9375 56 38.25 53.625 
Q 42.578125 51.265625 45.40625 46.390625 
z
M 14.796875 27.296875 
Q 14.796875 17.390625 18.875 11.75 
Q 22.953125 6.109375 30.078125 6.109375 
Q 37.203125 6.109375 41.296875 11.75 
Q 45.40625 17.390625 45.40625 27.296875 
Q 45.40625 37.203125 41.296875 42.84375 
Q 37.203125 48.484375 30.078125 48.484375 
Q 22.953125 48.484375 18.875 42.84375 
Q 14.796875 37.203125 14.796875 27.296875 
z
" id="DejaVuSans-100"/>
     <path d="M 2.984375 54.6875 
L 12.5 54.6875 
L 29.59375 8.796875 
L 46.6875 54.6875 
L 56.203125 54.6875 
L 35.6875 0 
L 23.484375 0 
z
" id="DejaVuSans-118"/>
     <path d="M 44.390625 34.1875 
Q 47.5625 33.109375 50.5625 29.59375 
Q 53.5625 26.078125 56.59375 19.921875 
L 66.609375 0 
L 56 0 
L 46.6875 18.703125 
Q 43.0625 26.03125 39.671875 28.421875 
Q 36.28125 30.8125 30.421875 30.8125 
L 19.671875 30.8125 
L 19.671875 0 
L 9.8125 0 
L 9.8125 72.90625 
L 32.078125 72.90625 
Q 44.578125 72.90625 50.734375 67.671875 
Q 56.890625 62.453125 56.890625 51.90625 
Q 56.890625 45.015625 53.6875 40.46875 
Q 50.484375 35.9375 44.390625 34.1875 
z
M 19.671875 64.796875 
L 19.671875 38.921875 
L 32.078125 38.921875 
Q 39.203125 38.921875 42.84375 42.21875 
Q 46.484375 45.515625 46.484375 51.90625 
Q 46.484375 58.296875 42.84375 61.546875 
Q 39.203125 64.796875 32.078125 64.796875 
z
" id="DejaVuSans-82"/>
     <path d="M 41.3125 25.4375 
L 39.15625 36.71875 
Q 36.96875 48.296875 28.265625 48.296875 
Q 21.734375 48.296875 18.75 42.921875 
Q 14.984375 36.1875 14.984375 27.296875 
Q 14.984375 16.546875 18.65625 11.421875 
Q 22.359375 6.203125 28.265625 6.203125 
Q 34.8125 6.203125 38.328125 16.609375 
z
M 46.34375 40.375 
L 51.171875 54.6875 
L 59.1875 54.6875 
L 49.171875 25.046875 
L 51.125 14.359375 
Q 51.5625 11.96875 53.265625 9.96875 
Q 55.28125 7.625 56.84375 7.625 
L 61.140625 7.625 
L 61.140625 0 
L 55.765625 0 
Q 51.171875 0 47.078125 4.109375 
Q 45.0625 6.15625 44.234375 10.453125 
Q 42 5.03125 37.40625 0.78125 
Q 35.25 -1.21875 28.265625 -1.21875 
Q 16.796875 -1.21875 11.234375 6.203125 
Q 5.515625 13.875 5.515625 27.296875 
Q 5.515625 41.65625 11.71875 48.390625 
Q 18.609375 55.90625 28.265625 55.90625 
Q 43.453125 55.90625 46.34375 40.375 
z
" id="DejaVuSans-945"/>
     <path d="M 19.671875 64.796875 
L 19.671875 37.40625 
L 32.078125 37.40625 
Q 38.96875 37.40625 42.71875 40.96875 
Q 46.484375 44.53125 46.484375 51.125 
Q 46.484375 57.671875 42.71875 61.234375 
Q 38.96875 64.796875 32.078125 64.796875 
z
M 9.8125 72.90625 
L 32.078125 72.90625 
Q 44.34375 72.90625 50.609375 67.359375 
Q 56.890625 61.8125 56.890625 51.125 
Q 56.890625 40.328125 50.609375 34.8125 
Q 44.34375 29.296875 32.078125 29.296875 
L 19.671875 29.296875 
L 19.671875 0 
L 9.8125 0 
z
" id="DejaVuSans-80"/>
    </defs>
    <use xlink:href="#DejaVuSans-83"/>
    <use x="63.476562" xlink:href="#DejaVuSans-105"/>
    <use x="91.259766" xlink:href="#DejaVuSans-109"/>
    <use x="188.671875" xlink:href="#DejaVuSans-117"/>
    <use x="252.050781" xlink:href="#DejaVuSans-108"/>
    <use x="279.833984" xlink:href="#DejaVuSans-97"/>
    <use x="341.113281" xlink:href="#DejaVuSans-116"/>
    <use x="380.322266" xlink:href="#DejaVuSans-101"/>
    <use x="441.845703" xlink:href="#DejaVuSans-100"/>
    <use x="505.322266" xlink:href="#DejaVuSans-32"/>
    <use x="537.109375" xlink:href="#DejaVuSans-118"/>
    <use x="596.289062" xlink:href="#DejaVuSans-115"/>
    <use x="648.388672" xlink:href="#DejaVuSans-32"/>
    <use x="680.175781" xlink:href="#DejaVuSans-82"/>
    <use x="745.158203" xlink:href="#DejaVuSans-101"/>
    <use x="806.681641" xlink:href="#DejaVuSans-99"/>
    <use x="861.662109" xlink:href="#DejaVuSans-111"/>
    <use x="922.84375" xlink:href="#DejaVuSans-118"/>
    <use x="982.023438" xlink:href="#DejaVuSans-101"/>
    <use x="1043.546875" xlink:href="#DejaVuSans-114"/>
    <use x="1082.410156" xlink:href="#DejaVuSans-101"/>
    <use x="1143.933594" xlink:href="#DejaVuSans-100"/>
    <use x="1207.410156" xlink:href="#DejaVuSans-32"/>
    <use x="1239.197266" xlink:href="#DejaVuSans-945"/>
    <use x="1305.115234" xlink:href="#DejaVuSans-32"/>
    <use x="1336.902344" xlink:href="#DejaVuSans-80"/>
    <use x="1392.705078" xlink:href="#DejaVuSans-97"/>
    <use x="1453.984375" xlink:href="#DejaVuSans-114"/>
    <use x="1495.097656" xlink:href="#DejaVuSans-97"/>
    <use x="1556.376953" xlink:href="#DejaVuSans-109"/>
    <use x="1653.789062" xlink:href="#DejaVuSans-101"/>
    <use x="1715.3125" xlink:href="#DejaVuSans-116"/>
    <use x="1754.521484" xlink:href="#DejaVuSans-101"/>
    <use x="1816.044922" xlink:href="#DejaVuSans-114"/>
    <use x="1857.158203" xlink:href="#DejaVuSans-115"/>
   </g>
  </g>
  <g id="text_15">
   <!-- Simulated α -->
   <g transform="translate(111.7 198.815)scale(0.16 -0.16)">
    <use xlink:href="#DejaVuSans-83"/>
    <use x="63.476562" xlink:href="#DejaVuSans-105"/>
    <use x="91.259766" xlink:href="#DejaVuSans-109"/>
    <use x="188.671875" xlink:href="#DejaVuSans-117"/>
    <use x="252.050781" xlink:href="#DejaVuSans-108"/>
    <use x="279.833984" xlink:href="#DejaVuSans-97"/>
    <use x="341.113281" xlink:href="#DejaVuSans-116"/>
    <use x="380.322266" xlink:href="#DejaVuSans-101"/>
    <use x="441.845703" xlink:href="#DejaVuSans-100"/>
    <use x="505.322266" xlink:href="#DejaVuSans-32"/>
    <use x="537.109375" xlink:href="#DejaVuSans-945"/>
   </g>
  </g>
  <g id="text_16">
   <!-- Recovered α -->
   <g transform="translate(52.0375 150.79875)rotate(-90)scale(0.16 -0.16)">
    <use xlink:href="#DejaVuSans-82"/>
    <use x="64.982422" xlink:href="#DejaVuSans-101"/>
    <use x="126.505859" xlink:href="#DejaVuSans-99"/>
    <use x="181.486328" xlink:href="#DejaVuSans-111"/>
    <use x="242.667969" xlink:href="#DejaVuSans-118"/>
    <use x="301.847656" xlink:href="#DejaVuSans-101"/>
    <use x="363.371094" xlink:href="#DejaVuSans-114"/>
    <use x="402.234375" xlink:href="#DejaVuSans-101"/>
    <use x="463.757812" xlink:href="#DejaVuSans-100"/>
    <use x="527.234375" xlink:href="#DejaVuSans-32"/>
    <use x="559.021484" xlink:href="#DejaVuSans-945"/>
   </g>
  </g>
 </g>
 <defs>
  <clipPath id="p1132dd3cd4">
   <rect height="99.6" width="163.4" x="85.7425" y="63.4"/>
  </clipPath>
 </defs>
</svg>
